<?xml version="1.0" encoding="UTF-8" standalone="no"?>
<!-- Created with Inkscape (http://www.inkscape.org/) -->

<svg
   xmlns:dc="http://purl.org/dc/elements/1.1/"
   xmlns:cc="http://creativecommons.org/ns#"
   xmlns:rdf="http://www.w3.org/1999/02/22-rdf-syntax-ns#"
   xmlns:svg="http://www.w3.org/2000/svg"
   xmlns="http://www.w3.org/2000/svg"
   xmlns:sodipodi="http://sodipodi.sourceforge.net/DTD/sodipodi-0.dtd"
   xmlns:inkscape="http://www.inkscape.org/namespaces/inkscape"
   width="1280"
   height="480"
   viewBox="0 0 338.66666 127"
   version="1.1"
   id="svg1349"
   inkscape:version="0.92.3 (2405546, 2018-03-11)"
   sodipodi:docname="menu_particles-front.svg">
  <defs
     id="defs1343" />
  <sodipodi:namedview
     id="base"
     pagecolor="#ffffff"
     bordercolor="#666666"
     borderopacity="1.0"
     inkscape:pageopacity="0.0"
     inkscape:pageshadow="2"
     inkscape:zoom="0.70000001"
     inkscape:cx="448.04128"
     inkscape:cy="163.17691"
     inkscape:document-units="px"
     inkscape:current-layer="layer4"
     showgrid="false"
     units="px"
     inkscape:window-width="1920"
     inkscape:window-height="1001"
     inkscape:window-x="-9"
     inkscape:window-y="846"
     inkscape:window-maximized="1" />
  <metadata
     id="metadata1346">
    <rdf:RDF>
      <cc:Work
         rdf:about="">
        <dc:format>image/svg+xml</dc:format>
        <dc:type
           rdf:resource="http://purl.org/dc/dcmitype/StillImage" />
        <dc:title />
      </cc:Work>
    </rdf:RDF>
  </metadata>
  <g
     inkscape:groupmode="layer"
     id="layer4"
     inkscape:label="Layer 2"
     style="display:inline">
    <path
       style="opacity:1;fill:#dfdfdf;fill-opacity:1;stroke:none;stroke-width:0.26458332;stroke-linecap:round;stroke-linejoin:round;stroke-miterlimit:4;stroke-dasharray:none;stroke-opacity:1;paint-order:fill markers stroke"
       d="m 266.82763,0.22272542 c -2.06301,2.00440428 2.49375,1.48986278 0,0 z M 310.0188,1.5838826 c -2.31508,1.7060524 2.26814,1.8159343 0,0 z m -75.44656,1.0366293 c -1.72865,2.3623293 2.78989,0.9178602 0,0 z m -54.47833,0.9451618 c -2.6186,1.2437493 1.89962,2.1734284 0,0 z M 75.943684,7.6543132 c -1.737691,2.3554418 2.785176,0.9294781 0,0 z M 38.57594,15.978869 c -2.820072,0.672019 1.405863,2.520609 0,0 z m 272.66346,8.200017 c -1.64436,2.421168 2.81988,0.820218 0,0 z m 10.1079,4.934583 c -2.79736,0.760151 1.48394,2.475884 0,0 z m -181.9863,0.04961 c -2.58973,1.250069 1.89533,2.201376 0,0 z m 78.16887,5.748486 c -1.56894,2.471727 2.84434,0.730665 0,0 z m -35.96266,1.890324 c -2.2514,1.788914 2.33294,1.731885 0,0 z m -16.40003,0.975651 c -1.8981,2.227974 2.71259,1.122309 0,0 z m -67.823769,1.517218 c -1.947508,2.185093 2.687839,1.182106 0,0 z m -50.678042,2.183847 c -1.854787,2.197113 2.627963,1.237965 0,0 z m 260.628541,1.008724 c -2.37665,1.618157 2.1986,1.899211 0,0 z M 31.604272,46.66847 c -2.697437,1.061267 1.744716,2.298777 0,0 z m 178.448538,2.619478 c -2.55969,1.310598 1.94653,2.156645 0,0 z m -92.75299,3.1843 c -1.63753,2.426814 2.82165,0.811067 0,0 z m 214.15901,0.753959 c -2.35164,1.655797 2.22845,1.862273 0,0 z M 28.616857,55.940253 c -1.950035,2.113931 2.571435,1.352089 0,0 z m 287.651183,0.314711 c -1.18623,2.676075 2.92071,0.303543 0,0 z m -83.30965,11.767241 c -2.3033,1.722654 2.28118,1.7991 0,0 z m -32.81144,1.310513 c -2.12568,1.937157 2.44407,1.569632 0,0 z M 37.160522,69.479479 c -2.047324,2.018887 2.505343,1.471618 0,0 z m 98.492698,1.939417 c -1.73575,2.356467 2.78684,0.926836 0,0 z m -39.875605,0.7028 c -2.845935,0.554476 1.298451,2.577504 0,0 z m 79.890735,4.234365 c -2.0473,2.092357 2.63027,1.305607 0,0 z m 104.47682,0.63097 c -1.25339,2.645728 2.91309,0.375952 0,0 z m -57.12416,3.092318 c -2.60453,1.218546 1.86738,2.225646 0,0 z M 42.998924,83.585594 c -2.418316,1.556168 2.149144,1.954816 0,0 z M 153.3896,86.453119 c -2.57106,1.337461 1.9771,2.104086 0,0 z m 54.67677,6.793902 c -2.78217,0.815456 1.53214,2.446602 0,0 z m 19.31561,1.357021 c -1.75553,2.342365 2.77824,0.950799 0,0 z m 14.91279,0.555006 c -1.90327,2.223696 2.71204,1.127181 0,0 z m -93.63408,3.140893 c -2.26902,1.767879 2.31584,1.753629 0,0 z m -43.38443,1.613855 c -2.14328,1.917404 2.4296,1.591844 0,0 z m 19.56211,5.741764 c -1.32941,2.60839 2.90085,0.46011 0,0 z m 67.34525,0.82011 c -2.17477,1.88052 2.40277,1.63465 0,0 z m 124.89212,2.2288 c -1.18946,2.67422 2.91954,0.30659 0,0 z m -187.9782,3.9455 c -2.53241,1.36445 1.99015,2.11582 0,0 z m 150.96907,2.08928 c -1.71577,2.37172 2.79437,0.90249 0,0 z m -265.767741,2.09651 c -1.290431,2.6275 2.906339,0.41833 0,0 z m 200.363481,5.51491 c -1.1754,2.68138 2.92233,0.29049 0,0 z"
       id="path2615"
       inkscape:connector-curvature="0" />
  </g>
</svg>
