<?xml version="1.0" encoding="UTF-8" standalone="no"?>
<!-- Created with Inkscape (http://www.inkscape.org/) -->

<svg
   xmlns:dc="http://purl.org/dc/elements/1.1/"
   xmlns:cc="http://creativecommons.org/ns#"
   xmlns:rdf="http://www.w3.org/1999/02/22-rdf-syntax-ns#"
   xmlns:svg="http://www.w3.org/2000/svg"
   xmlns="http://www.w3.org/2000/svg"
   xmlns:sodipodi="http://sodipodi.sourceforge.net/DTD/sodipodi-0.dtd"
   xmlns:inkscape="http://www.inkscape.org/namespaces/inkscape"
   width="1280"
   height="480"
   viewBox="0 0 338.66666 127"
   version="1.1"
   id="svg1349"
   inkscape:version="0.92.3 (2405546, 2018-03-11)"
   sodipodi:docname="menu_particles-back.svg">
  <defs
     id="defs1343" />
  <sodipodi:namedview
     id="base"
     pagecolor="#ffffff"
     bordercolor="#666666"
     borderopacity="1.0"
     inkscape:pageopacity="0.0"
     inkscape:pageshadow="2"
     inkscape:zoom="0.98994949"
     inkscape:cx="711.57253"
     inkscape:cy="250.90048"
     inkscape:document-units="px"
     inkscape:current-layer="layer4"
     showgrid="false"
     units="px"
     inkscape:window-width="1920"
     inkscape:window-height="1001"
     inkscape:window-x="-9"
     inkscape:window-y="846"
     inkscape:window-maximized="1" />
  <metadata
     id="metadata1346">
    <rdf:RDF>
      <cc:Work
         rdf:about="">
        <dc:format>image/svg+xml</dc:format>
        <dc:type
           rdf:resource="http://purl.org/dc/dcmitype/StillImage" />
        <dc:title />
      </cc:Work>
    </rdf:RDF>
  </metadata>
  <g
     inkscape:groupmode="layer"
     id="layer4"
     inkscape:label="Layer 2"
     style="display:inline">
    <path
       style="display:inline;opacity:1;fill:#979797;fill-opacity:1;stroke:none;stroke-width:0.26458332;stroke-linecap:round;stroke-linejoin:round;stroke-miterlimit:4;stroke-dasharray:none;stroke-opacity:1;paint-order:fill markers stroke"
       d="m 314.62113,6.110252 c -0.88821,1.350444 1.49004,0.5686183 0,0 z m -57.39276,13.758327 c -1.51589,0.3408 0.69297,1.49266 0,0 z m -99.52878,-7.690006 c -1.53466,0.195787 0.5819,1.552399 0,0 z M 64.207653,6.5373479 c -1.293317,0.8711466 1.088211,1.2173906 0,0 z M 302.1354,26.932287 c -1.48646,0.280248 0.62185,1.578992 0,0 z M 95.777935,15.004664 c -1.229126,0.980767 1.169806,1.117475 0,0 z m 37.092915,10.193551 c -1.43045,0.537084 0.8313,1.452083 0,0 z m -14.89575,2.133031 c -1.49711,0.434211 0.76499,1.448316 0,0 z m -9.29278,-7.8e-5 c -0.85296,1.39442 1.43931,0.595971 0,0 z M 77.421107,26.878763 c -1.113252,1.140597 1.280797,0.950567 0,0 z M 227.36714,39.164608 c -1.30837,0.843509 1.06882,1.239515 0,0 z m 104.28048,13.161158 c -1.27052,0.912464 1.12167,1.180335 0,0 z m -64.81341,-4.607599 c -1.20984,1.008582 1.19033,1.091682 0,0 z m -16.66522,3.052077 c -0.83179,1.409279 1.44784,0.567733 0,0 z M 38.441872,40.416887 c -0.886577,1.367221 1.424955,0.639589 0,0 z M 19.098126,40.273528 c -1.522237,0.302635 0.664912,1.509472 0,0 z M 228.83116,63.297991 c -1.00007,1.265074 1.36351,0.793206 0,0 z M 15.389817,48.455057 c -1.378187,0.688068 0.951041,1.357056 0,0 z m 122.419143,10.85236 c -1.39705,0.636339 0.90955,1.390427 0,0 z m 195.15281,22.483906 c -1.46997,0.377433 0.70152,1.536504 0,0 z M 67.223734,62.538137 c -1.529689,0.253741 0.627118,1.529807 0,0 z M 5.2469771,59.26879 c -0.8559757,1.39165 1.4386435,0.59872 0,0 z M 265.07626,87.016732 c -1.06694,1.19259 1.31616,0.887783 0,0 z m 49.99338,5.76597 c -0.97177,1.292616 1.38044,0.753293 0,0 z M 65.850725,73.028123 c -1.52878,0.251408 0.624121,1.531228 0,0 z M 265.33878,89.986484 c -0.88901,1.349018 1.48805,0.570832 0,0 z M 296.0223,94.2816 c -1.38338,0.672763 0.93831,1.367447 0,0 z M 122.48238,81.293776 c -1.17114,1.064615 1.23079,1.033651 0,0 z M 67.084958,80.366515 c -1.508442,0.379106 0.72266,1.475801 0,0 z m 4.620257,7.863742 c -1.414123,0.588226 0.872588,1.420909 0,0 z M 307.90549,112.66663 c -1.34234,0.76928 1.01223,1.29927 0,0 z m -118.14016,-3.90636 c -1.53537,0.19211 0.57946,1.55376 0,0 z m 16.00509,2.80267 c -1.37463,0.69393 0.95574,1.35456 0,0 z m 110.83783,10.61001 c -0.88878,1.36606 1.42385,0.64216 0,0 z M 147.73108,111.00736 c -1.53107,0.23132 0.61035,1.5389 0,0 z m 81.21253,7.84685 c -1.01167,1.23457 1.42736,0.75284 0,0 z m -29.41196,0.73764 c -0.81195,1.42365 1.45566,0.54224 0,0 z M 72.399902,113.28722 c -1.000332,1.24547 1.434188,0.73588 0,0 z"
       id="path2894"
       inkscape:connector-curvature="0" />
  </g>
</svg>
