<?xml version="1.0" encoding="UTF-8" standalone="no"?>
<svg
   xmlns:dc="http://purl.org/dc/elements/1.1/"
   xmlns:cc="http://creativecommons.org/ns#"
   xmlns:rdf="http://www.w3.org/1999/02/22-rdf-syntax-ns#"
   xmlns:svg="http://www.w3.org/2000/svg"
   xmlns="http://www.w3.org/2000/svg"
   id="svg1445"
   version="1.1"
   viewBox="0 0 24.918196 4.9465361"
   height="4.9465361mm"
   width="24.918196mm">
  <defs
     id="defs1439" />
  <metadata
     id="metadata1442">
    <rdf:RDF>
      <cc:Work
         rdf:about="">
        <dc:format>image/svg+xml</dc:format>
        <dc:type
           rdf:resource="http://purl.org/dc/dcmitype/StillImage" />
        <dc:title></dc:title>
      </cc:Work>
    </rdf:RDF>
  </metadata>
  <g
     transform="translate(-27.606379,-81.348158)"
     id="layer1">
    <path
       id="path1081"
       d="m 52.326842,81.647226 -24.007811,4.234376 0.0449,0.259765 24.007821,-4.232423 z"
       style="color:#000000;font-style:normal;font-variant:normal;font-weight:normal;font-stretch:normal;font-size:medium;line-height:normal;font-family:sans-serif;font-variant-ligatures:normal;font-variant-position:normal;font-variant-caps:normal;font-variant-numeric:normal;font-variant-alternates:normal;font-feature-settings:normal;text-indent:0;text-align:start;text-decoration:none;text-decoration-line:none;text-decoration-style:solid;text-decoration-color:#000000;letter-spacing:normal;word-spacing:normal;text-transform:none;writing-mode:lr-tb;direction:ltr;text-orientation:mixed;dominant-baseline:auto;baseline-shift:baseline;text-anchor:start;white-space:normal;shape-padding:0;clip-rule:nonzero;display:inline;overflow:visible;visibility:visible;opacity:1;isolation:auto;mix-blend-mode:normal;color-interpolation:sRGB;color-interpolation-filters:linearRGB;solid-color:#000000;solid-opacity:1;vector-effect:none;fill:#000000;fill-opacity:1;fill-rule:nonzero;stroke:#ffffff;stroke-width:0.265;stroke-linecap:round;stroke-linejoin:miter;stroke-miterlimit:4;stroke-dasharray:none;stroke-dashoffset:0;stroke-opacity:1;paint-order:markers stroke fill;color-rendering:auto;image-rendering:auto;shape-rendering:auto;text-rendering:auto;enable-background:accumulate" />
    <path
       id="path1110"
       d="m 40.344422,82.270273 c -2.68603,0 -5.11618,0.16587 -6.882811,0.4375 -0.88331,0.135814 -1.59972,0.298571 -2.10547,0.482421 -0.252869,0.09192 -0.45302,0.188687 -0.59961,0.298829 -0.14658,0.110141 -0.25,0.245088 -0.25,0.40625 0,0.161162 0.10342,0.296109 0.25,0.40625 0.14659,0.110141 0.346741,0.206903 0.59961,0.298828 0.50575,0.18385 1.22216,0.344654 2.10547,0.480468 1.766631,0.27163 4.196781,0.439455 6.882811,0.439455 2.68603,0 5.118139,-0.167825 6.88477,-0.439455 0.88331,-0.135814 1.59972,-0.296618 2.10547,-0.480468 0.25287,-0.09192 0.45302,-0.188687 0.59961,-0.298828 0.14658,-0.110141 0.25,-0.245088 0.25,-0.40625 0,-0.161162 -0.10342,-0.296109 -0.25,-0.40625 -0.14659,-0.110142 -0.34674,-0.206904 -0.59961,-0.298829 -0.50575,-0.18385 -1.22216,-0.346607 -2.10547,-0.482421 -1.766631,-0.27163 -4.19874,-0.4375 -6.88477,-0.4375 z m 0,0.263671 c 2.67504,0 5.09711,0.16699 6.84375,0.435547 0.87333,0.134279 1.57998,0.295474 2.05664,0.46875 0.23833,0.08664 0.41922,0.177541 0.53125,0.261719 0.11203,0.08418 0.14453,0.1504 0.14453,0.195313 0,0.04491 -0.0325,0.111134 -0.14453,0.195312 -0.11203,0.08418 -0.29292,0.175081 -0.53125,0.26172 -0.47666,0.173275 -1.18331,0.332518 -2.05664,0.466797 -1.74664,0.268556 -4.16871,0.435547 -6.84375,0.435546 -2.67504,0 -5.097101,-0.16699 -6.843751,-0.435546 -0.87332,-0.134279 -1.57802,-0.293522 -2.054689,-0.466797 -0.238331,-0.08664 -0.419221,-0.177542 -0.531241,-0.26172 -0.11203,-0.08418 -0.14454,-0.1504 -0.14454,-0.195312 0,-0.04491 0.0325,-0.111135 0.14454,-0.195313 0.11202,-0.08418 0.29291,-0.175081 0.531241,-0.261719 0.476669,-0.173276 1.181369,-0.334471 2.054689,-0.46875 1.74665,-0.268557 4.168711,-0.435547 6.843751,-0.435547 z"
       style="color:#000000;font-style:normal;font-variant:normal;font-weight:normal;font-stretch:normal;font-size:medium;line-height:normal;font-family:sans-serif;font-variant-ligatures:normal;font-variant-position:normal;font-variant-caps:normal;font-variant-numeric:normal;font-variant-alternates:normal;font-feature-settings:normal;text-indent:0;text-align:start;text-decoration:none;text-decoration-line:none;text-decoration-style:solid;text-decoration-color:#000000;letter-spacing:normal;word-spacing:normal;text-transform:none;writing-mode:lr-tb;direction:ltr;text-orientation:mixed;dominant-baseline:auto;baseline-shift:baseline;text-anchor:start;white-space:normal;shape-padding:0;clip-rule:nonzero;display:inline;overflow:visible;visibility:visible;opacity:1;isolation:auto;mix-blend-mode:normal;color-interpolation:sRGB;color-interpolation-filters:linearRGB;solid-color:#000000;solid-opacity:1;vector-effect:none;fill:#050000;fill-opacity:1;fill-rule:nonzero;stroke:#ffffff;stroke-width:0.265;stroke-linecap:round;stroke-linejoin:bevel;stroke-miterlimit:4;stroke-dasharray:none;stroke-dashoffset:0;stroke-opacity:1;paint-order:markers stroke fill;color-rendering:auto;image-rendering:auto;shape-rendering:auto;text-rendering:auto;enable-background:accumulate" />
    <g
       style="stroke:#ffffff;stroke-width:0.265;stroke-miterlimit:4;stroke-dasharray:none;stroke-opacity:1;paint-order:markers stroke fill;stroke-linecap:round"
       id="g1402"
       transform="translate(-73.69464,129.40308)">
      <path
         id="path1079"
         d="m 102.05859,-47.755859 -0.0449,0.261718 24.00781,4.232422 0.0449,-0.259765 z"
         style="color:#000000;font-style:normal;font-variant:normal;font-weight:normal;font-stretch:normal;font-size:medium;line-height:normal;font-family:sans-serif;font-variant-ligatures:normal;font-variant-position:normal;font-variant-caps:normal;font-variant-numeric:normal;font-variant-alternates:normal;font-feature-settings:normal;text-indent:0;text-align:start;text-decoration:none;text-decoration-line:none;text-decoration-style:solid;text-decoration-color:#000000;letter-spacing:normal;word-spacing:normal;text-transform:none;writing-mode:lr-tb;direction:ltr;text-orientation:mixed;dominant-baseline:auto;baseline-shift:baseline;text-anchor:start;white-space:normal;shape-padding:0;clip-rule:nonzero;display:inline;overflow:visible;visibility:visible;opacity:1;isolation:auto;mix-blend-mode:normal;color-interpolation:sRGB;color-interpolation-filters:linearRGB;solid-color:#000000;solid-opacity:1;vector-effect:none;fill:#ff0000;fill-opacity:1;fill-rule:nonzero;stroke:#ffffff;stroke-width:0.265;stroke-linecap:round;stroke-linejoin:miter;stroke-miterlimit:4;stroke-dasharray:none;stroke-dashoffset:0;stroke-opacity:1;paint-order:markers stroke fill;color-rendering:auto;image-rendering:auto;shape-rendering:auto;text-rendering:auto;enable-background:accumulate" />
      <path
         id="path1408"
         d="m 103.07806,-47.441221 0.61302,-0.429239 -1.91583,0.199517 1.73205,0.842738 z"
         style="fill:#ff0000;fill-opacity:1;fill-rule:evenodd;stroke:#ffffff;stroke-width:0.265;stroke-miterlimit:4;stroke-dasharray:none;stroke-opacity:1;paint-order:markers stroke fill;stroke-linecap:round" />
    </g>
  </g>
</svg>
