<?xml version="1.0" encoding="UTF-8" standalone="no"?>
<svg
   xmlns:dc="http://purl.org/dc/elements/1.1/"
   xmlns:cc="http://creativecommons.org/ns#"
   xmlns:rdf="http://www.w3.org/1999/02/22-rdf-syntax-ns#"
   xmlns:svg="http://www.w3.org/2000/svg"
   xmlns="http://www.w3.org/2000/svg"
   xmlns:xlink="http://www.w3.org/1999/xlink"
   id="svg8"
   version="1.1"
   viewBox="0 0 105.83333 132.29167"
   height="500"
   width="400">
  <defs
     id="defs2">
    <linearGradient
       id="linearGradient1715">
      <stop
         id="stop1711"
         offset="0"
         style="stop-color:#004f8d;stop-opacity:1" />
      <stop
         id="stop1713"
         offset="1"
         style="stop-color:#217bb8;stop-opacity:1" />
    </linearGradient>
    <filter
       height="1.3156774"
       y="-0.15783869"
       width="2.8101289"
       x="-0.90506452"
       id="filter2325-4-2-2-6"
       style="color-interpolation-filters:sRGB">
      <feGaussianBlur
         id="feGaussianBlur2327-67-5-1-3"
         stdDeviation="2.2280425" />
    </filter>
    <filter
       height="1.4558276"
       y="-0.2279138"
       width="2.920754"
       x="-0.96037698"
       id="filter2397-4-8-7-3"
       style="color-interpolation-filters:sRGB">
      <feGaussianBlur
         id="feGaussianBlur2399-20-4-0-8"
         stdDeviation="1.6632088" />
    </filter>
    <linearGradient
       gradientUnits="userSpaceOnUse"
       y2="229.93283"
       x2="41.837238"
       y1="222.49144"
       x1="41.837238"
       id="linearGradient1717-29-4-4-8"
       xlink:href="#linearGradient1715" />
    <linearGradient
       y2="229.93283"
       x2="41.837238"
       y1="222.49144"
       x1="41.837238"
       gradientTransform="translate(21.109913)"
       gradientUnits="userSpaceOnUse"
       id="linearGradient14720"
       xlink:href="#linearGradient1715" />
  </defs>
  <metadata
     id="metadata5">
    <rdf:RDF>
      <cc:Work
         rdf:about="">
        <dc:format>image/svg+xml</dc:format>
        <dc:type
           rdf:resource="http://purl.org/dc/dcmitype/StillImage" />
        <dc:title></dc:title>
      </cc:Work>
    </rdf:RDF>
  </metadata>
  <g
     style="display:inline"
     transform="translate(0,-164.70832)"
     id="layer1">
    <g
       transform="translate(-158.84165,-62.957749)"
       id="g25504">
      <g
         transform="rotate(9.3492569,-267.52666,1243.203)"
         style="display:inline"
         id="g3048-1-6-7-0">
        <path
           id="path3035-3-7-61-2"
           d="m 52.727677,180.74868 0.944941,-1.03943 1.393788,1.96075 -1.559153,0.89769 -1.086681,-0.96856 z"
           style="fill:#232323;fill-opacity:1;stroke:none;stroke-width:0.26458332px;stroke-linecap:butt;stroke-linejoin:miter;stroke-opacity:1" />
        <path
           id="path3015-62-1-6-2"
           d="m 59.601105,183.67771 c 1.603615,-0.93545 0.119133,-4.03933 0.119133,-4.03933 l -1.771763,0.73233 -0.708705,2.76395 z"
           style="fill:#3a3a3a;fill-opacity:1;stroke:#000000;stroke-width:0.26458332px;stroke-linecap:butt;stroke-linejoin:miter;stroke-opacity:1" />
        <path
           id="path3017-0-1-1-2"
           d="m 56.601933,183.15828 c 2.362351,-0.51971 6.496466,-4.13411 1.393788,-8.03199 -0.826823,-0.92132 -1.488281,1.32292 -1.488281,1.32292 z"
           style="fill:#3a3a3a;fill-opacity:1;stroke:#000000;stroke-width:0.26458332px;stroke-linecap:butt;stroke-linejoin:miter;stroke-opacity:1" />
        <path
           id="path3019-7-0-1-7"
           d="m 55.457524,183.18191 c 3.582281,-1.81901 4.514656,-11.57553 -1.766603,-10.15811 -6.281263,1.41741 1.766603,10.15811 1.766603,10.15811 z"
           style="fill:#3a3a3a;fill-opacity:1;stroke:#000000;stroke-width:0.26458332px;stroke-linecap:butt;stroke-linejoin:miter;stroke-opacity:1" />
        <path
           id="path3021-78-2-4-1"
           d="m 50.885044,183.63075 c 4.606584,-3.37816 5.527903,-13.60714 -1.063058,-10.37072 -0.519716,2.7167 1.063058,10.37072 1.063058,10.37072 z"
           style="fill:#3a3a3a;fill-opacity:1;stroke:#000000;stroke-width:0.26458332px;stroke-linecap:butt;stroke-linejoin:miter;stroke-opacity:1" />
        <path
           id="path3023-3-0-2-3"
           d="m 49.136905,183.20553 c 5.905876,-2.59859 2.480469,-11.19755 -0.330729,-9.96912 -0.968565,4.77195 0.330729,9.96912 0.330729,9.96912 z"
           style="fill:#3a3a3a;fill-opacity:1;stroke:#000000;stroke-width:0.26458332px;stroke-linecap:butt;stroke-linejoin:miter;stroke-opacity:1" />
        <path
           id="path3025-77-9-2-1"
           d="m 47.979354,182.92402 c 4.157736,-3.44049 2.338726,-14.18925 -4.204986,-9.03975 3.897878,-0.24735 6.000371,1.2143 3.685267,8.43261 -0.02363,0.87699 0.519719,0.60714 0.519719,0.60714 z"
           style="fill:#3a3a3a;fill-opacity:1;stroke:#000000;stroke-width:0.26458332px;stroke-linecap:butt;stroke-linejoin:miter;stroke-opacity:1" />
        <path
           id="path3027-7-1-6-4"
           d="m 46.703683,183.22915 c 2.574962,-2.10249 3.401785,-9.49665 -1.488281,-8.59896 -4.890069,0.8977 -2.55134,7.29967 -1.322917,8.59896 1.228421,1.2993 2.811198,0 2.811198,0 z"
           style="fill:#3a3a3a;fill-opacity:1;stroke:#000000;stroke-width:0.26458332px;stroke-linecap:butt;stroke-linejoin:miter;stroke-opacity:1" />
        <path
           id="path3029-4-7-0-6"
           d="m 46.136718,183.18191 c 1.653646,-2.55134 0.803198,-7.55953 -1.015812,-7.55953 -1.81901,0 -3.189174,4.96094 0.330729,7.03981 3.519906,2.07887 0.685083,0.51972 0.685083,0.51972 z"
           style="fill:#232323;fill-opacity:1;stroke:#000000;stroke-width:0.26458332px;stroke-linecap:butt;stroke-linejoin:miter;stroke-opacity:1" />
        <path
           id="path3031-4-2-8-3"
           d="m 46.136718,183.18191 c 2.645833,-2.4096 5.504278,-2.76396 9.591146,-0.77958 1.322917,0.85045 1.372822,1.25205 -0.270341,0.77958 -1.643163,-0.47247 -3.887398,-1.51191 -6.320618,-0.73233 -2.433222,0.77957 -3.000187,0.73233 -3.000187,0.73233 z"
           style="fill:#232323;fill-opacity:1;stroke:#000000;stroke-width:0.26458332px;stroke-linecap:butt;stroke-linejoin:miter;stroke-opacity:1" />
        <path
           id="path3033-56-6-1-4"
           d="m 55.822357,183.79612 c -1.299292,-1.51191 -5.66964,-3.18919 -8.008368,-0.82683 -0.543343,0.4961 5.215405,1.18627 5.215405,1.18627 z"
           style="fill:#3a3a3a;fill-opacity:1;stroke:#000000;stroke-width:0.26458332px;stroke-linecap:butt;stroke-linejoin:miter;stroke-opacity:1" />
      </g>
      <g
         style="display:inline"
         id="g1835-2-5-5-46-7"
         transform="matrix(-0.98671642,-0.16245216,-0.16245216,0.98671642,300.8058,76.833273)">
        <path
           id="path1072-4-7-8-1-9"
           d="m 31.041295,223.05196 c -0.566965,-2.22061 -3.685268,-2.50409 -4.110493,-1.98437 -2.999817,6.75348 6.043116,16.51669 7.039811,13.65439 0.708705,-1.55915 -2.929315,-11.67002 -2.929315,-11.67002 z"
           style="fill:#ffdbb4;fill-opacity:1;stroke:#000000;stroke-width:0.26458332px;stroke-linecap:butt;stroke-linejoin:miter;stroke-opacity:1" />
        <path
           id="path1701-1-7-6-2-1"
           d="m 28.33057,223.6345 -0.14772,0.49876 -0.07087,0.82683 0.01815,0.61211 0.218096,1.0061 0.2008,0.69689 0.295294,0.7087 0.460658,0.82683 0.437034,0.59059 0.531529,0.60239 0.529283,0.34595 0.0021,-0.55856 -0.177176,-0.95675 -0.259858,-0.98037 -0.366165,-1.14574 -0.425225,-0.95676 -0.507904,-1.13392 z"
           style="fill:#ffc39c;fill-opacity:1;stroke:none;stroke-width:0.26458332px;stroke-linecap:butt;stroke-linejoin:miter;stroke-opacity:1" />
        <path
           id="path1094-3-1-1-5-0"
           d="m 32.224789,232.44078 a 0.26460979,0.26460979 0 0 0 -0.02634,-10e-4 0.26460979,0.26460979 0 0 0 -0.258489,0.21437 l -0.205569,0.96368 -1.115151,-0.28094 a 0.26460979,0.26460979 0 0 0 -0.05217,-0.008 0.26460979,0.26460979 0 0 0 -0.07608,0.52239 l 1.132887,0.28566 -0.223508,1.04768 a 0.26472097,0.26472097 0 1 0 0.517688,0.11094 l 0.219219,-1.02887 0.819353,0.20658 a 0.26510718,0.26510718 0 1 0 0.130827,-0.51382 l -0.839663,-0.21153 0.209997,-0.98404 a 0.26460979,0.26460979 0 0 0 -0.232996,-0.32243 z"
           style="color:#000000;font-style:normal;font-variant:normal;font-weight:normal;font-stretch:normal;font-size:medium;line-height:normal;font-family:sans-serif;font-variant-ligatures:normal;font-variant-position:normal;font-variant-caps:normal;font-variant-numeric:normal;font-variant-alternates:normal;font-feature-settings:normal;text-indent:0;text-align:start;text-decoration:none;text-decoration-line:none;text-decoration-style:solid;text-decoration-color:#000000;letter-spacing:normal;word-spacing:normal;text-transform:none;writing-mode:lr-tb;direction:ltr;text-orientation:mixed;dominant-baseline:auto;baseline-shift:baseline;text-anchor:start;white-space:normal;shape-padding:0;clip-rule:nonzero;display:inline;overflow:visible;visibility:visible;opacity:1;isolation:auto;mix-blend-mode:normal;color-interpolation:sRGB;color-interpolation-filters:linearRGB;solid-color:#000000;solid-opacity:1;vector-effect:none;fill:#7c7c7c;fill-opacity:1;fill-rule:nonzero;stroke:none;stroke-width:0.52916664;stroke-linecap:round;stroke-linejoin:miter;stroke-miterlimit:4;stroke-dasharray:none;stroke-dashoffset:0;stroke-opacity:1;color-rendering:auto;image-rendering:auto;shape-rendering:auto;text-rendering:auto;enable-background:accumulate" />
        <path
           id="path1090-8-8-6-92-5"
           d="m 27.461943,222.76587 c 1.603618,0.7684 3.207234,5.44562 3.340869,7.21628 0.133636,1.77066 0.133636,1.77066 0.133636,1.77066"
           style="fill:none;stroke:#000000;stroke-width:0.26458332px;stroke-linecap:butt;stroke-linejoin:miter;stroke-opacity:1" />
        <path
           id="path1092-6-4-4-3-1"
           d="m 28.33057,223.6345 c -0.634765,1.13589 0.23386,5.47902 2.472242,6.71515"
           style="fill:none;stroke:#000000;stroke-width:0.26458332px;stroke-linecap:butt;stroke-linejoin:miter;stroke-opacity:1" />
      </g>
      <g
         transform="rotate(9.3492569,-267.52666,1243.203)"
         style="display:inline"
         id="g1835-3-9-7-4">
        <path
           id="path1072-2-0-3-7"
           d="m 31.041295,223.05196 c -0.566965,-2.22061 -3.685268,-2.50409 -4.110493,-1.98437 -2.999817,6.75348 6.043116,16.51669 7.039811,13.65439 0.708705,-1.55915 -2.929315,-11.67002 -2.929315,-11.67002 z"
           style="fill:#ffdbb4;fill-opacity:1;stroke:#000000;stroke-width:0.26458332px;stroke-linecap:butt;stroke-linejoin:miter;stroke-opacity:1" />
        <path
           id="path1701-8-6-9-2"
           d="m 28.33057,223.6345 -0.14772,0.49876 -0.07087,0.82683 0.01815,0.61211 0.218096,1.0061 0.2008,0.69689 0.295294,0.7087 0.460658,0.82683 0.437034,0.59059 0.531529,0.60239 0.529283,0.34595 0.0021,-0.55856 -0.177176,-0.95675 -0.259858,-0.98037 -0.366165,-1.14574 -0.425225,-0.95676 -0.507904,-1.13392 z"
           style="fill:#f6cba9;fill-opacity:1;stroke:none;stroke-width:0.26458332px;stroke-linecap:butt;stroke-linejoin:miter;stroke-opacity:1" />
        <path
           id="path1094-4-1-1-0"
           d="m 32.224789,232.44078 a 0.26460979,0.26460979 0 0 0 -0.02634,-10e-4 0.26460979,0.26460979 0 0 0 -0.258489,0.21437 l -0.205569,0.96368 -1.115151,-0.28094 a 0.26460979,0.26460979 0 0 0 -0.05217,-0.008 0.26460979,0.26460979 0 0 0 -0.07608,0.52239 l 1.132887,0.28566 -0.223508,1.04768 a 0.26472097,0.26472097 0 1 0 0.517688,0.11094 l 0.219219,-1.02887 0.819353,0.20658 a 0.26510718,0.26510718 0 1 0 0.130827,-0.51382 l -0.839663,-0.21153 0.209997,-0.98404 a 0.26460979,0.26460979 0 0 0 -0.232996,-0.32243 z"
           style="color:#000000;font-style:normal;font-variant:normal;font-weight:normal;font-stretch:normal;font-size:medium;line-height:normal;font-family:sans-serif;font-variant-ligatures:normal;font-variant-position:normal;font-variant-caps:normal;font-variant-numeric:normal;font-variant-alternates:normal;font-feature-settings:normal;text-indent:0;text-align:start;text-decoration:none;text-decoration-line:none;text-decoration-style:solid;text-decoration-color:#000000;letter-spacing:normal;word-spacing:normal;text-transform:none;writing-mode:lr-tb;direction:ltr;text-orientation:mixed;dominant-baseline:auto;baseline-shift:baseline;text-anchor:start;white-space:normal;shape-padding:0;clip-rule:nonzero;display:inline;overflow:visible;visibility:visible;opacity:1;isolation:auto;mix-blend-mode:normal;color-interpolation:sRGB;color-interpolation-filters:linearRGB;solid-color:#000000;solid-opacity:1;vector-effect:none;fill:#7c7c7c;fill-opacity:1;fill-rule:nonzero;stroke:none;stroke-width:0.52916664;stroke-linecap:round;stroke-linejoin:miter;stroke-miterlimit:4;stroke-dasharray:none;stroke-dashoffset:0;stroke-opacity:1;color-rendering:auto;image-rendering:auto;shape-rendering:auto;text-rendering:auto;enable-background:accumulate" />
        <path
           id="path1090-2-3-9-3"
           d="m 27.461943,222.76587 c 1.603618,0.7684 3.207234,5.44562 3.340869,7.21628 0.133636,1.77066 0.133636,1.77066 0.133636,1.77066"
           style="fill:none;stroke:#000000;stroke-width:0.26458332px;stroke-linecap:butt;stroke-linejoin:miter;stroke-opacity:1" />
        <path
           id="path1092-2-5-80-4"
           d="m 28.33057,223.6345 c -0.634765,1.13589 0.23386,5.47902 2.472242,6.71515"
           style="fill:none;fill-opacity:1;stroke:#000000;stroke-width:0.26458332px;stroke-linecap:butt;stroke-linejoin:miter;stroke-opacity:1" />
      </g>
      <path
         style="display:inline;fill:#f6cba9;fill-opacity:1;stroke:none;stroke-width:0.26458332px;stroke-linecap:butt;stroke-linejoin:miter;stroke-opacity:1"
         d="m 189.81914,282.5137 -1.6e-4,0.001 c -0.3347,-0.0439 -0.58381,0.009 -0.65191,0.0629 -0.13279,0.20394 -0.25231,0.41381 -0.36059,0.62828 0.90647,1.30731 2.63913,2.80221 3.37039,2.16796 0.19449,-0.16868 0.33346,-0.38397 0.43316,-0.62053 -0.21456,-0.8864 -0.89775,-1.49981 -1.62133,-1.8648 -0.40939,-0.20653 -0.82856,-0.33001 -1.16956,-0.3748 z"
         id="path2845-4-3-4-3" />
      <path
         style="display:inline;fill:#942f4f;fill-opacity:1;stroke:none;stroke-width:0.26458332px;stroke-linecap:butt;stroke-linejoin:miter;stroke-opacity:1"
         d="m 199.16595,314.63131 1.20271,-0.35079 0.23386,2.17156 -0.73499,0.51784 -1.00226,-0.90204 z"
         id="path1091-5-6-80-4" />
      <path
         style="display:inline;fill:#942f4f;fill-opacity:1;stroke:none;stroke-width:0.26458332px;stroke-linecap:butt;stroke-linejoin:miter;stroke-opacity:1"
         d="m 221.34932,314.24711 1.20271,0.43431 0.0668,1.35305 -0.81851,0.73499 -0.71829,-0.7684 z"
         id="path1089-3-1-1-7" />
      <path
         style="display:inline;fill:#ffdbb4;fill-opacity:1;stroke:#000000;stroke-width:0.26458332px;stroke-linecap:butt;stroke-linejoin:miter;stroke-opacity:1"
         d="m 197.96219,308.25442 c 1.65365,0.8977 2.45685,10.39435 2.45685,10.39435 l 6.64806,2.33019 3.65179,10.80448 3.2128,-10.67783 c 0,0 8.26823,-2.22061 7.89025,-3.63802 -0.37798,-1.41741 0.14174,-6.89806 0.51972,-8.03199 0.37797,-1.13393 -11.29204,2.83482 -11.29204,2.83482 z"
         id="path1087-7-9-6-6" />
      <path
         style="display:inline;fill:#f6cba9;fill-opacity:1;stroke:none;stroke-width:0.26458332px;stroke-linecap:butt;stroke-linejoin:miter;stroke-opacity:1"
         d="m 200.01486,309.0227 c 0.18843,0.81706 0.37789,1.63649 0.59273,2.53887 1.54358,6.48361 8.42101,11.05572 10.21488,11.15022 0.44787,0.0236 1.44972,-0.24594 2.70061,-0.70952 l 0.30282,-1.00614 0.0724,-0.0176 c 0,0 2.06141,-0.55542 4.07417,-1.2852 0.55426,-0.20095 1.09989,-0.4158 1.60145,-0.63457 0.76017,-0.46663 1.47986,-0.95959 2.12597,-1.46711 0.003,-0.0317 8e-4,-0.0616 -0.007,-0.0899 -0.1019,-0.38216 -0.13637,-0.99294 -0.13487,-1.72857 0.002,-0.73564 0.0423,-1.59001 0.10748,-2.43707 0.0652,-0.84705 0.15369,-1.68616 0.25012,-2.38487 0.0962,-0.69702 0.19928,-1.24721 0.30075,-1.55286 -0.0274,-0.014 -0.11986,-0.0352 -0.25166,-0.0352 -0.2636,0 -0.68497,0.0604 -1.20147,0.16588 -1.03302,0.211 -2.45526,0.60106 -3.88866,1.02578 -2.8668,0.84941 -5.78311,1.84174 -5.78311,1.84174 l -0.0393,0.0134 -2.39985,-0.73639 -2.11512,0.59687 c 0,0 -0.24224,-0.63114 -0.54725,-1.41439 z"
         id="path1650-4-0-9-8" />
      <path
         style="display:inline;fill:#ba5575;fill-opacity:1;stroke:#000000;stroke-width:0.26458332px;stroke-linecap:butt;stroke-linejoin:miter;stroke-opacity:1"
         d="m 207.0671,320.97896 c 4.0239,-1.91411 2.90656,3.27405 3.39099,6.58151 0.48442,3.30746 0.81851,-0.0835 0.90203,-1.45328 0.0835,-1.36975 -0.03,-4.35647 0.63708,-5.07476 0.66705,-0.71829 13.32102,0.34483 13.84074,0.77008 0.51972,0.42522 1.25787,1.16781 2.507,1.19221 1.24914,0.0244 2.72631,8.02355 2.72631,8.02355 l -4.45374,22.87675 -0.55756,7.72561 -30.13464,-0.13364 -1.33635,-12.96257 -2.83977,-14.0318 c 0,0 -0.35433,-12.08771 0.59061,-12.06409 0.94494,0.0236 1.70796,-0.12009 3.05097,-0.69788 1.343,-0.57779 11.67633,-0.75169 11.67633,-0.75169 z"
         id="path1081-1-6-1-1" />
      <path
         style="display:inline;fill:#ae375d;fill-opacity:1;stroke:none;stroke-width:0.26458332px;stroke-linecap:butt;stroke-linejoin:miter;stroke-opacity:1"
         d="m 226.61741,347.73946 c -0.80181,2.67249 -3.14041,10.85193 -9.75534,13.11949 -6.61491,2.26757 -8.55262,2.91545 -8.55262,2.91545 l 18.6388,1.77927 z"
         id="path1415-0-3-0-0" />
      <path
         style="display:inline;fill:#ae375d;fill-opacity:1;stroke:none;stroke-width:0.26458332px;stroke-linecap:butt;stroke-linejoin:miter;stroke-opacity:1"
         d="m 214.36695,320.92172 c -0.64165,-0.003 -1.18847,0.0131 -1.59163,0.0512 -0.20158,0.019 -0.36704,0.0448 -0.48628,0.0739 -0.11923,0.0291 -0.19193,0.0725 -0.19533,0.0765 -0.0856,0.0922 -0.16381,0.25392 -0.23151,0.45682 0.62292,3.13848 1.88153,6.7122 3.16518,8.59224 2.0464,2.99717 5.29043,5.67573 7.50238,5.45393 1.96102,-0.19663 4.57048,-10.27603 5.14336,-12.58373 -0.91025,-0.21706 -1.5044,-0.79899 -1.91927,-1.13843 0.0132,0.0108 -0.0662,-0.031 -0.1819,-0.0605 -0.11564,-0.0295 -0.27584,-0.0618 -0.47232,-0.0956 -0.39295,-0.0677 -0.9313,-0.14108 -1.56476,-0.21498 -1.26693,-0.14791 -2.91832,-0.29742 -4.57233,-0.41186 -1.65402,-0.11442 -3.31228,-0.19447 -4.59559,-0.19947 z"
         id="path1379-6-7-4-1" />
      <path
         style="display:inline;fill:#ae375d;fill-opacity:1;stroke:none;stroke-width:0.26458332px;stroke-linecap:butt;stroke-linejoin:miter;stroke-opacity:1"
         d="m 208.59418,320.70003 c -0.0746,-0.002 -0.15324,5.3e-4 -0.23668,0.009 -0.33374,0.0334 -0.73889,0.15382 -1.23248,0.38861 l -0.0274,0.0139 h -0.0274 c 0,0 -1.16443,0.0211 -2.71302,0.0667 -0.33191,1.02392 -3.601,11.17878 -3.21996,13.14752 0.40091,2.07134 2.57244,4.64414 4.47673,5.88026 1.9043,1.23612 0.53413,-4.34349 1.06867,-7.98504 0.42024,-2.86284 2.85325,-3.3705 4.12637,-2.3859 l 0.0754,-0.69712 0.009,-0.0444 c -0.006,10e-4 -0.0122,0.004 -0.0191,0.004 -0.0811,0.006 -0.14597,-0.0441 -0.18552,-0.0935 -0.0791,-0.0988 -0.12807,-0.24047 -0.18552,-0.46871 -0.0574,-0.22823 -0.11475,-0.53886 -0.1757,-0.95498 -0.24576,-1.67797 -0.0889,-3.80517 -0.3669,-5.24412 -0.13899,-0.71947 -0.3848,-1.24743 -0.80099,-1.48622 -0.15607,-0.0896 -0.34193,-0.14299 -0.56585,-0.14986 z"
         id="path1081-3-43-6-8-7" />
      <path
         style="display:inline;fill:#ae375d;fill-opacity:1;stroke:none;stroke-width:0.26458332px;stroke-linecap:butt;stroke-linejoin:miter;stroke-opacity:1"
         d="m 211.00259,354.64214 c -0.49461,0.91179 -1.26624,1.79392 -2.3983,2.46807 -2.97338,1.77066 -10.12288,3.4749 -12.02718,3.50831 -1.90429,0.0334 -0.66818,2.90628 -0.66818,2.90628 l 14.98772,-0.40566 z"
         id="path1246-1-4-8-8" />
      <path
         style="display:inline;fill:#ae375d;fill-opacity:1;stroke:none;stroke-width:0.26458332px;stroke-linecap:butt;stroke-linejoin:miter;stroke-opacity:1"
         d="m 197.46211,342.17677 c 4.81085,2.60588 16.83798,6.81537 28.66465,1.40317 -7.01582,7.61718 -18.64205,9.88897 -28.66465,-1.40317 z"
         id="path1244-3-6-2-6" />
      <path
         style="display:inline;fill:#3a3a3a;fill-opacity:1;stroke:#000000;stroke-width:0.26458332px;stroke-linecap:butt;stroke-linejoin:miter;stroke-opacity:1"
         d="m 192.20551,297.08095 c -0.3957,39.54378 2.77441,26.11387 5.67872,46.01425 0.95912,4.58062 0.74028,1.82726 1.11001,1.09244 0.38478,-18.7691 -5.37864,-3.44586 -5.19865,-47.09067 -0.31302,0.57536 -0.90149,0.50569 -1.59008,-0.016 z"
         id="path1179-4-1-5-4" />
      <path
         style="display:inline;fill:#97d0f9;fill-opacity:1;stroke:#000000;stroke-width:0.26458332px;stroke-linecap:butt;stroke-linejoin:miter;stroke-opacity:1"
         d="m 254.06804,336.74438 c 0.92626,-1.16644 0.93643,-2.14524 0.87864,-3.0615 -1.53811,-1.46409 -4.78527,-2.85419 -6.66817,-3.45577 -3.58987,-1.02421 -6.16064,-3.25497 -9.95014,-4.53747 -3.66325,-0.92384 -1.46561,3.24345 0.77095,3.38614 5.08691,2.36275 9.94575,5.1698 14.96872,7.6686 z"
         id="path853-8-3-1-8" />
      <path
         style="display:inline;fill:#71aad3;fill-opacity:1;stroke:none;stroke-width:0.26458335px;stroke-linecap:butt;stroke-linejoin:miter;stroke-opacity:1"
         d="m 241.41853,328.73158 -0.0579,1.28261 c 4.26416,2.09901 8.40276,4.43367 12.65091,6.55205 0.80608,-1.06721 0.85249,-1.95152 0.80098,-2.81429 -0.55395,-0.51901 -1.33512,-1.03322 -2.19263,-1.50637 -1.82398,-0.0464 -4.14149,-0.57673 -6.33656,-1.40509 -4.25241,-1.60469 -4.86482,-2.10891 -4.86482,-2.10891 z"
         id="path1931-9-0-1-2" />
      <path
         style="display:inline;fill:#97d0f9;fill-opacity:1;stroke:#000000;stroke-width:0.26458332px;stroke-linecap:butt;stroke-linejoin:miter;stroke-opacity:1"
         d="m 229.2161,323.39709 1.37017,-2.81119 c 0,0 5.22079,5.69326 6.61458,6.16573 1.39378,0.47247 8.24865,4.24715 11.33928,5.36254 4.04554,1.46001 7.05676,3.42326 7.34024,5.98641 1.1103,4.34673 0.33741,22.07832 0.33741,22.07832 l -31.71134,0.005 1.06908,-5.62937 4.69392,-20.06191 -1.2187,-7.15056 -0.4961,-3.02381 z"
         id="path857-4-4-9-0" />
      <path
         style="display:inline;fill:#71aad3;fill-opacity:1;stroke:none;stroke-width:0.26458332px;stroke-linecap:butt;stroke-linejoin:miter;stroke-opacity:1"
         d="m 243.60268,357.14614 c 3.82331,-3.84327 4.54597,-15.03163 4.54597,-15.03163 -0.86225,3.60135 -3.97011,10.60692 -6.08825,12.15035 -2.11814,1.54342 1.54228,2.88128 1.54228,2.88128 z"
         id="path1576-1-8-4-1-82" />
      <path
         style="display:inline;fill:#97d0f9;fill-opacity:1;stroke:none;stroke-width:0.26458332px;stroke-linecap:butt;stroke-linejoin:miter;stroke-opacity:1"
         d="m 243.83905,355.91486 0.63784,-0.98038 1.14574,-2.62221 0.98038,-2.56315 0.86225,-2.96475 0.23624,0.2008 -0.96856,5.58696 -1.6064,3.03562 -1.52386,1.53839 z"
         id="path1982-1-3-67-7" />
      <path
         style="display:inline;fill:#71aad3;fill-opacity:1;stroke:none;stroke-width:0.26458332px;stroke-linecap:butt;stroke-linejoin:miter;stroke-opacity:1"
         d="m 229.92223,325.97661 c 0.15355,-2.03163 0.66404,-3.02836 3.19175,0.0427 2.52772,3.07106 5.85863,6.09487 8.90606,7.15793 3.24157,1.17465 0.10223,0.0691 -1.06305,-1.55915 -0.8032,-1.15756 -4.65383,-5.55153 -4.65383,-5.55153 l -4.65384,-4.60658 -2.26786,1.15755 z"
         id="path1869-5-2-6-5" />
      <path
         style="display:inline;fill:#71aad3;fill-opacity:1;stroke:none;stroke-width:0.26458332px;stroke-linecap:butt;stroke-linejoin:miter;stroke-opacity:1"
         d="m 237.11822,331.8869 c 2.63929,1.00226 3.37428,1.73725 3.14042,2.97337 -0.23386,1.23612 -3.60814,11.526 -7.75082,14.56619 -4.14268,3.04019 -3.27405,4.51017 -3.97563,5.24516 -0.70158,0.73499 -2.83974,2.37202 -3.20723,2.37202 -0.0334,-0.96885 0.43431,-4.74403 0.43431,-4.74403 z"
         id="path1417-21-0-1-8" />
      <path
         style="display:inline;fill:#97d0f9;fill-opacity:1;stroke:#000000;stroke-width:0.26458332px;stroke-linecap:butt;stroke-linejoin:miter;stroke-opacity:1"
         d="m 230.2201,327.64933 c -1.63406,-1.33982 -0.6023,-6.0553 1.82196,-4.63814 1.52951,1.55118 2.38035,3.6683 4.15979,5.02805 1.92602,1.91285 4.05414,3.71789 6.59891,4.74234 -2.3837,-2.28498 -4.60857,-4.81716 -5.97908,-7.84898 -1.26049,-1.97913 -3.24311,-3.33823 -4.74326,-5.06196 -2.42247,-1.65516 -3.52076,1.72295 -3.69804,3.57293 -0.22369,1.59521 0.37663,3.39077 1.83972,4.20576 z"
         id="path851-0-2-2-9" />
      <path
         style="display:inline;fill:#71aad3;fill-opacity:1;stroke:none;stroke-width:0.26458332px;stroke-linecap:butt;stroke-linejoin:miter;stroke-opacity:1"
         d="m 243.90272,360.79879 c 4.58711,-2.8891 7.79783,-13.6312 7.79783,-13.6312 -1.64712,3.31666 -6.24538,9.44795 -8.65545,10.47764 -2.41006,1.02969 0.85762,3.15356 0.85762,3.15356 z"
         id="path1576-5-7-3-1" />
      <path
         style="display:inline;fill:#97d0f9;fill-opacity:1;stroke:#000000;stroke-width:0.26458332px;stroke-linecap:butt;stroke-linejoin:miter;stroke-opacity:1"
         d="m 253.00498,345.05985 c 1.32291,-1.32291 2.3151,-8.40997 2.3151,-8.40997 2.55134,1.6064 1.32292,24.47396 1.32292,24.47396 l -13.4654,-0.33073 c 0.7087,-1.98437 4.6302,-5.76413 7.32328,-10.96131"
         id="path855-1-5-41-0" />
      <path
         style="display:inline;fill:none;stroke:#000000;stroke-width:0.26458332px;stroke-linecap:butt;stroke-linejoin:miter;stroke-opacity:1"
         d="m 242.42164,358.38351 c 2.55134,-3.30729 5.10268,-10.91406 5.33892,-13.18192"
         id="path863-9-1-5-8" />
      <path
         style="display:inline;fill:#97d0f9;fill-opacity:1;stroke:#000000;stroke-width:0.26458332px;stroke-linecap:butt;stroke-linejoin:miter;stroke-opacity:1"
         d="m 227.65695,353.20997 c -0.54334,0.59058 -1.18118,4.46484 -0.73233,7.15792 0.44885,2.69308 0.4016,2.78757 0.4016,2.78757 l 16.6782,-1.08668 c 0.89769,-2.26786 -0.4016,-5.57515 -0.66146,-5.83501 -0.25986,-0.25985 -15.68601,-3.0238 -15.68601,-3.0238 z"
         id="path861-26-0-4-3" />
      <path
         style="display:inline;fill:#71aad3;fill-opacity:1;stroke:none;stroke-width:0.26458332px;stroke-linecap:butt;stroke-linejoin:miter;stroke-opacity:1"
         d="m 227.73048,353.35747 c -0.0962,0.1259 -0.23279,0.42508 -0.35192,0.87539 -0.0156,0.059 -0.0302,0.12606 -0.0455,0.18914 2.22449,1.96614 8.52808,5.44329 9.79682,5.56607 1.16797,0.11303 4.958,-0.91581 6.77168,-1.88826 -0.10681,-0.43067 -0.22939,-0.81616 -0.34313,-1.11724 -0.071,-0.18786 -0.13918,-0.34422 -0.19534,-0.45889 -0.054,-0.1102 -0.10335,-0.17959 -0.10955,-0.18758 -0.006,-0.003 -0.0102,-0.006 -0.0212,-0.01 -0.0317,-0.011 -0.0807,-0.024 -0.14263,-0.0408 -0.1238,-0.0335 -0.30115,-0.0771 -0.52348,-0.12712 -0.0233,-0.005 -0.0708,-0.0142 -0.0951,-0.0196 l -5.57743,1.34513 -5.29167,-3.04736 c 0,0 -0.94069,-0.38486 -2.01176,-0.74363 -0.90699,-0.16395 -1.8232,-0.3288 -1.85984,-0.33537 z"
         id="path1506-3-0-43-5" />
      <path
         style="display:inline;fill:#97d0f9;fill-opacity:1;stroke:#000000;stroke-width:0.26458332px;stroke-linecap:butt;stroke-linejoin:miter;stroke-opacity:1"
         d="m 226.61751,353.89505 c 3.16556,0.85044 9.89826,4.7247 10.32348,4.7247 0.42522,0 6.14239,-0.95298 7.25242,-1.96075 0.21261,-0.11812 -0.4016,-2.64584 -0.85045,-3.23642 -0.44884,-0.59059 -5.07905,-1.98438 -6.26023,-2.1025 -1.18118,-0.11811 -8.29185,-0.23623 -8.97694,-0.0709 -0.68508,0.16537 -1.48828,2.64584 -1.48828,2.64584 z"
         id="path859-17-5-4-0" />
      <path
         style="display:inline;fill:none;stroke:#000000;stroke-width:0.26458332px;stroke-linecap:butt;stroke-linejoin:miter;stroke-opacity:1"
         d="m 242.17457,352.82181 c 0.32581,0.82746 0.68995,2.31753 0.58972,2.5848 -0.1661,0.39176 -4.71062,2.50565 -5.44562,2.17157 -0.73499,-0.33409 -6.35774,-3.29074 -8.01808,-3.90882 -0.76935,-0.5374 -0.9047,-2.015 -0.9047,-2.015"
         id="path897-7-5-7-1" />
      <path
         style="display:inline;fill:#97d0f9;fill-opacity:1;stroke:#000000;stroke-width:0.26458332px;stroke-linecap:butt;stroke-linejoin:miter;stroke-opacity:1"
         d="m 230.46815,327.20048 c 0.89769,0.37798 7.28484,3.33336 7.80267,4.21869 -0.2313,6.64515 -1.52804,9.28782 -6.48128,16.28674 -1.74864,2.64682 -2.8333,3.56693 -3.9436,5.2442 -1.11031,1.67727 -2.92252,4.65383 -3.01702,5.5279 0,-2.31511 0.4893,-3.82701 0.46568,-4.46485 -0.0236,-0.63783 0.94494,-7.5359 1.22842,-8.48084 0.28348,-0.94494 0.89769,-4.65383 1.2048,-5.24442 0.30711,-0.59058 0.96856,-3.85063 1.01581,-5.835 0.0472,-1.98438 0.0236,-6.30748 -0.16536,-7.2288 -0.18899,-0.92131 -0.0709,-2.12021 -0.18899,-2.59268 1.16869,-2.06968 0.10846,1.5852 2.07887,2.56906 z"
         id="path849-2-9-3-7" />
      <path
         style="display:inline;fill:#f0f0f0;fill-opacity:1;stroke:#000000;stroke-width:0.26458332px;stroke-linecap:butt;stroke-linejoin:miter;stroke-opacity:1"
         d="m 228.65135,327.87065 c 0.12003,1.54239 0.13264,4.89657 0.0925,6.58203 -0.0473,1.98437 -0.70885,5.24472 -1.01596,5.8353 -0.3071,0.59059 -0.92161,4.29918 -1.20509,5.24412 -0.26989,0.89961 -1.15046,7.13351 -1.21491,8.2858 0.24254,-0.48472 0.57907,-0.95446 1.04954,-1.34048 1.84264,-1.51191 5.76422,-8.31504 7.03989,-10.34666 1.27567,-2.03162 3.26004,-9.44985 2.97656,-10.15855 -0.28348,-0.70871 -1.98981,-0.94136 -3.92121,-1.70067 -1.2063,-0.47426 -2.7855,-1.46154 -3.80132,-2.40089 z"
         id="path849-0-6-7-6-1" />
      <path
         style="display:inline;fill:#97d0f9;fill-opacity:1;stroke:#000000;stroke-width:0.26458332px;stroke-linecap:butt;stroke-linejoin:miter;stroke-opacity:1"
         d="m 230.75163,327.3186 c -1.63406,-1.33982 -1.13383,-5.72457 1.29042,-4.30741 1.52952,1.55118 2.38036,3.6683 4.1598,5.02805 1.92601,1.91285 4.05414,3.71789 6.59891,4.74234 -2.3837,-2.28498 -4.60857,-4.81716 -5.97908,-7.84898 -1.26049,-1.97913 -3.24311,-3.33823 -4.74326,-5.06196 -2.42247,-1.65516 -3.29634,1.33316 -3.73348,3.12408 -0.22369,1.59521 -0.33207,2.97736 2.40669,4.32388 z"
         id="path851-8-9-4-53-5" />
      <path
         style="display:inline;fill:#f0f0f0;fill-opacity:1;stroke:none;stroke-width:0.26458332px;stroke-linecap:butt;stroke-linejoin:miter;stroke-opacity:1"
         d="m 230.70549,319.52232 c -0.0511,0.003 -0.10043,0.009 -0.14883,0.0171 v -0.001 c -0.38764,0.068 -0.70917,0.31694 -0.98444,0.68213 -0.54828,0.72739 -0.87825,1.90169 -1.09605,2.7926 -1e-4,10e-4 1e-4,10e-4 0,0.002 -0.0918,0.6548 -0.15642,1.25606 -0.0253,1.82521 l 0.48163,-0.76998 0.44906,-1.45262 0.63769,-1.26401 0.22427,-0.47232 0.36071,-0.16536 0.65526,0.2005 0.86247,0.64958 0.98444,1.08778 0.69246,0.80202 0.81546,1.01596 1.19269,-0.14159 -0.29507,-0.60255 -0.28267,-0.54829 c -1.04764,-1.08532 -2.23167,-2.06255 -3.22564,-3.19877 -8e-4,-5.3e-4 -8e-4,5.3e-4 -0.002,0 -0.51296,-0.35 -0.93886,-0.47752 -1.29657,-0.45837 z"
         id="path2934-7-1-3-2" />
      <path
         style="display:inline;fill:none;stroke:#000000;stroke-width:0.26458332px;stroke-linecap:butt;stroke-linejoin:miter;stroke-opacity:1"
         d="m 228.38928,324.93853 c 0.92131,-0.99218 1.30221,-3.89544 2.08061,-4.17672 1.02142,-0.36913 3.50792,2.78127 4.81921,4.66051 1.31129,1.87923 1.61197,2.22167 1.61197,2.22167 0.2088,-0.91874 -1.87889,-4.86666 -1.87889,-4.86666"
         id="path919-8-5-5-1" />
      <ellipse
         style="display:inline;opacity:1;fill:#919192;fill-opacity:1;stroke:#100000;stroke-width:0.2670334;stroke-linecap:round;stroke-linejoin:round;stroke-miterlimit:4;stroke-dasharray:none;stroke-opacity:1;paint-order:fill markers stroke"
         id="path937-7-1-0-7"
         cx="433.68088"
         cy="40.005386"
         rx="0.91881794"
         ry="0.90203464"
         transform="matrix(0.62853358,0.77778245,-0.88315993,0.46907199,0,0)" />
      <path
         style="display:inline;fill:#97d0f9;fill-opacity:1;stroke:#000000;stroke-width:0.26458332px;stroke-linecap:butt;stroke-linejoin:miter;stroke-opacity:1"
         d="m 167.95059,336.74438 c -0.92627,-1.16644 -0.93643,-2.14524 -0.87865,-3.0615 1.53811,-1.46409 4.78527,-2.85419 6.66817,-3.45577 3.58987,-1.02421 6.16065,-3.25497 9.95015,-4.53747 3.66325,-0.92384 1.46561,3.24345 -0.77095,3.38614 -5.08691,2.36275 -9.94576,5.1698 -14.96872,7.6686 z"
         id="path853-0-9-9-9-6" />
      <path
         style="display:inline;fill:#71aad3;fill-opacity:1;stroke:none;stroke-width:0.26458332px;stroke-linecap:butt;stroke-linejoin:miter;stroke-opacity:1"
         d="m 184.56981,325.69094 c -0.23024,0.004 -0.5102,0.0433 -0.84543,0.12764 h -0.002 c -1.1558,0.39195 -2.1933,0.87799 -3.18947,1.38803 -0.24192,0.61174 -0.76531,1.24703 -1.72909,1.86035 -2.59858,1.65364 -6.23683,3.80339 -6.23683,3.80339 l 6.70502,-2.16525 c 1.18748,-0.60097 2.38231,-1.18836 3.59099,-1.74976 l 0.0238,-0.01 0.0232,-0.002 c 0.51968,-0.0332 1.05472,-0.30449 1.50223,-0.68729 0.44752,-0.38281 0.80698,-0.87611 0.98237,-1.3224 0.0877,-0.22315 0.12826,-0.43333 0.11886,-0.60927 -0.009,-0.17593 -0.0652,-0.31413 -0.1757,-0.42013 -0.13795,-0.13231 -0.38419,-0.22069 -0.76791,-0.21342 z"
         id="path2584-5-7-4-8" />
      <path
         style="display:inline;fill:#97d0f9;fill-opacity:1;stroke:#000000;stroke-width:0.26458332px;stroke-linecap:butt;stroke-linejoin:miter;stroke-opacity:1"
         d="m 192.80253,323.39709 -1.37017,-2.81119 c 0,0 -5.22079,5.69326 -6.61458,6.16573 -1.39379,0.47247 -8.24866,4.24715 -11.33929,5.36254 -4.04554,1.46001 -7.05676,3.42326 -7.34024,5.98641 -1.1103,4.34673 -0.3374,22.07832 -0.3374,22.07832 l 31.71134,0.005 -1.06908,-5.62937 -4.69392,-20.06191 1.2187,-7.15056 0.4961,-3.02381 z"
         id="path857-2-3-0-7-3" />
      <path
         style="display:inline;fill:#71aad3;fill-opacity:1;stroke:none;stroke-width:0.26458332px;stroke-linecap:butt;stroke-linejoin:miter;stroke-opacity:1"
         d="m 180.62413,331.78667 c 4.6104,-0.60136 9.24586,-6.59325 10.08942,-6.28083 0.45102,0.16704 1.16931,0.96885 1.63703,0.43431 0.46772,-0.53454 0.4009,-3.67496 0.4009,-3.67496 l -2.00452,-1.10248 -3.30746,3.34087 -3.67496,4.27631 z"
         id="path2580-1-6-5-1" />
      <path
         style="display:inline;fill:#71aad3;fill-opacity:1;stroke:none;stroke-width:0.26458332px;stroke-linecap:butt;stroke-linejoin:miter;stroke-opacity:1"
         d="m 192.43444,353.02105 1.01544,2.8112 c 1.86479,1.19279 3.04087,2.22098 3.67058,2.9931 l -0.80615,-4.24315 -0.12713,-0.54312 -0.68161,-0.6165 z"
         id="path2544-8-5-1-3" />
      <path
         style="display:inline;fill:#71aad3;fill-opacity:1;stroke:none;stroke-width:0.26458332px;stroke-linecap:butt;stroke-linejoin:miter;stroke-opacity:1"
         d="m 174.40955,343.52433 c -0.25986,1.13392 0,2.66945 0.11812,3.1183 0.11811,0.44885 0.49609,1.81901 0.49609,1.81901 l 0.61421,1.81901 0.68508,1.74814 0.87407,2.17336 0.9922,1.86626 1.46465,1.46466 c 0,0 1.55916,3.14192 -1.11031,0.85044 -2.66945,-2.29148 -6.00037,-11.55189 -4.13411,-14.85918 z"
         id="path2452-2-0-0-1" />
      <path
         style="display:inline;fill:#97d0f9;fill-opacity:1;stroke:#000000;stroke-width:0.26458332px;stroke-linecap:butt;stroke-linejoin:miter;stroke-opacity:1"
         d="m 191.79853,327.64933 c 1.63406,-1.33982 0.6023,-6.0553 -1.82196,-4.63814 -1.52951,1.55118 -2.38035,3.6683 -4.15979,5.02805 -1.92602,1.91285 -4.05414,3.71789 -6.59891,4.74234 2.3837,-2.28498 4.60857,-4.81716 5.97908,-7.84898 1.26049,-1.97913 3.24311,-3.33823 4.74326,-5.06196 2.42247,-1.65516 3.52076,1.72295 3.69804,3.57293 0.22369,1.59521 -0.37663,3.39077 -1.83972,4.20576 z"
         id="path851-6-7-9-5-9" />
      <path
         style="display:inline;fill:#97d0f9;fill-opacity:1;stroke:#000000;stroke-width:0.26458332px;stroke-linecap:butt;stroke-linejoin:miter;stroke-opacity:1"
         d="m 169.01365,345.05985 c -1.32292,-1.32291 -2.31511,-8.40997 -2.31511,-8.40997 -2.55134,1.6064 -1.32291,24.47396 -1.32291,24.47396 l 13.4654,-0.33073 c -0.70871,-1.98437 -4.63021,-5.76413 -7.32329,-10.96131"
         id="path855-7-31-1-8-9" />
      <path
         style="display:inline;fill:#71aad3;fill-opacity:1;stroke:none;stroke-width:0.26458332px;stroke-linecap:butt;stroke-linejoin:miter;stroke-opacity:1"
         d="m 172.29665,351.4966 c 0.63748,2.42692 2.37238,6.51457 4.15013,9.22269 l 2.15285,-0.0532 c -0.38625,-0.94544 -1.43154,-2.29913 -2.78123,-4.06848 -1.10916,-1.45401 -2.37283,-3.16437 -3.52175,-5.10098 z"
         id="path2401-2-8-2-7" />
      <path
         style="display:inline;fill:none;stroke:#000000;stroke-width:0.26458332px;stroke-linecap:butt;stroke-linejoin:miter;stroke-opacity:1"
         d="m 179.59698,358.38351 c -2.55134,-3.30729 -5.10268,-10.91406 -5.33891,-13.18192"
         id="path863-8-1-1-2-4" />
      <path
         style="display:inline;fill:#97d0f9;fill-opacity:1;stroke:#000000;stroke-width:0.26458332px;stroke-linecap:butt;stroke-linejoin:miter;stroke-opacity:1"
         d="m 194.36168,353.20997 c 0.54334,0.59058 1.18117,4.46484 0.73233,7.15792 -0.44885,2.69308 -0.4016,2.78757 -0.4016,2.78757 l -16.6782,-1.08668 c -0.8977,-2.26786 0.40161,-5.57515 0.66145,-5.83501 0.25987,-0.25985 15.68602,-3.0238 15.68602,-3.0238 z"
         id="path861-8-7-6-8-6" />
      <path
         style="display:inline;fill:#71aad3;fill-opacity:1;stroke:none;stroke-width:0.26458332px;stroke-linecap:butt;stroke-linejoin:miter;stroke-opacity:1"
         d="m 194.28704,353.35747 c -0.0954,0.0171 -3.80712,0.68205 -7.64656,1.39629 -0.0204,0.004 -0.0396,0.008 -0.0599,0.0114 l -1.90066,1.58078 -4.29379,-0.3824 c -0.31612,0.0657 -0.70384,0.1427 -0.93328,0.1943 -0.22233,0.05 -0.39968,0.0935 -0.52348,0.12712 -0.0619,0.0168 -0.11046,0.0297 -0.14211,0.0408 -0.0104,0.004 -0.0156,0.007 -0.0217,0.0103 -0.006,0.008 -0.0571,0.0773 -0.1111,0.18759 -0.0562,0.11467 -0.12282,0.27104 -0.19379,0.45889 -0.073,0.19321 -0.14975,0.42117 -0.22376,0.67282 2.13854,0.98224 5.97662,1.74417 6.82232,1.6676 0.93182,-0.0843 7.87548,-2.06669 9.90121,-3.36568 -0.0843,-0.66009 -0.19662,-1.25904 -0.31988,-1.72495 -0.11914,-0.45034 -0.25724,-0.74902 -0.35347,-0.87489 z"
         id="path1455-6-4-8-29-9" />
      <path
         style="display:inline;fill:#97d0f9;fill-opacity:1;stroke:#000000;stroke-width:0.26458332px;stroke-linecap:butt;stroke-linejoin:miter;stroke-opacity:1"
         d="m 195.40111,353.89505 c -3.16554,0.85044 -9.89825,4.7247 -10.32347,4.7247 -0.42522,0 -6.14239,-0.95298 -7.25242,-1.96075 -0.21261,-0.11812 0.4016,-2.64584 0.85044,-3.23642 0.44886,-0.59059 5.07906,-1.98438 6.26024,-2.1025 1.18117,-0.11811 8.29185,-0.23623 8.97693,-0.0709 0.68508,0.16537 1.48828,2.64584 1.48828,2.64584 z"
         id="path859-1-26-9-3-2" />
      <path
         style="display:inline;fill:none;stroke:#000000;stroke-width:0.26458332px;stroke-linecap:butt;stroke-linejoin:miter;stroke-opacity:1"
         d="m 179.84406,352.82181 c -0.32581,0.82746 -0.68995,2.31753 -0.58972,2.5848 0.1661,0.39176 4.71062,2.50565 5.44562,2.17157 0.73499,-0.33409 6.35774,-3.29074 8.01808,-3.90882 0.76934,-0.5374 0.9047,-2.015 0.9047,-2.015"
         id="path897-8-3-1-8-2" />
      <path
         style="display:inline;fill:#97d0f9;fill-opacity:1;stroke:#000000;stroke-width:0.26458332px;stroke-linecap:butt;stroke-linejoin:miter;stroke-opacity:1"
         d="m 191.55048,327.20048 c -0.89769,0.37798 -7.28484,3.33336 -7.80267,4.21869 0.2313,6.64515 1.52804,9.28782 6.48128,16.28674 1.74864,2.64682 2.8333,3.56693 3.9436,5.2442 1.11031,1.67727 2.92252,4.65383 3.01702,5.5279 0,-2.31511 -0.4893,-3.82701 -0.46568,-4.46485 0.0236,-0.63783 -0.94494,-7.5359 -1.22842,-8.48084 -0.28348,-0.94494 -0.8977,-4.65383 -1.2048,-5.24442 -0.30711,-0.59058 -0.96857,-3.85063 -1.01581,-5.835 -0.0473,-1.98438 -0.0236,-6.30748 0.16536,-7.2288 0.18899,-0.92131 0.0709,-2.12021 0.18899,-2.59268 -1.16869,-2.06968 -0.10846,1.5852 -2.07887,2.56906 z"
         id="path849-4-0-3-5-6" />
      <path
         style="display:inline;fill:#f0f0f0;fill-opacity:1;stroke:#000000;stroke-width:0.26458332px;stroke-linecap:butt;stroke-linejoin:miter;stroke-opacity:1"
         d="m 193.36728,327.87065 c -0.12003,1.54238 -0.13264,4.89657 -0.0925,6.58202 0.0473,1.98437 0.70885,5.24473 1.01596,5.83531 0.3071,0.59059 0.92161,4.29918 1.20509,5.24412 0.26988,0.89961 1.15046,7.13351 1.21491,8.2858 -0.24254,-0.48472 -0.57908,-0.95446 -1.04955,-1.34049 -1.84263,-1.51191 -5.76421,-8.31503 -7.03988,-10.34665 -1.27567,-2.03162 -3.26004,-9.44985 -2.97656,-10.15856 0.28348,-0.7087 1.98981,-0.94136 3.92121,-1.70067 1.2063,-0.47425 2.7855,-1.46153 3.80131,-2.40088 z"
         id="path849-0-8-9-3-4-9" />
      <path
         style="display:inline;fill:#97d0f9;fill-opacity:1;stroke:#000000;stroke-width:0.26458332px;stroke-linecap:butt;stroke-linejoin:miter;stroke-opacity:1"
         d="m 191.267,327.3186 c 1.63406,-1.33982 1.13383,-5.72457 -1.29043,-4.30741 -1.52951,1.55118 -2.38035,3.6683 -4.15979,5.02805 -1.92602,1.91285 -4.05414,3.71789 -6.59891,4.74234 2.3837,-2.28498 4.60858,-4.81716 5.97908,-7.84898 1.26049,-1.97913 3.24311,-3.33823 4.74326,-5.06196 2.42247,-1.65516 3.29634,1.33316 3.73348,3.12408 0.22369,1.59521 0.33207,2.97736 -2.40669,4.32388 z"
         id="path851-8-8-8-9-3-8" />
      <path
         style="display:inline;fill:#f0f0f0;fill-opacity:1;stroke:none;stroke-width:0.26458332px;stroke-linecap:butt;stroke-linejoin:miter;stroke-opacity:1"
         d="m 191.31151,319.52284 c -0.35733,-0.0191 -0.78102,0.10836 -1.29397,0.45837 -0.98688,1.12834 -2.16237,2.09867 -3.20498,3.17448 l -0.34209,0.70487 -0.71831,1.56166 -0.60099,1.52859 -0.0336,0.69298 0.86868,-1.15238 1.45314,-1.988 1.30328,-1.68723 1.58646,-1.63659 1.09444,-0.44021 0.39229,0.2397 0.62632,1.4366 0.65164,1.68672 0.47388,0.74001 c 0.13119,-0.56851 0.0668,-1.16883 -0.0248,-1.82263 -0.2178,-0.89156 -0.5482,-2.06991 -1.09761,-2.79879 -0.27527,-0.36519 -0.5968,-0.61361 -0.98444,-0.68161 -0.0484,-0.008 -0.0983,-0.0138 -0.14934,-0.0165 z"
         id="path2954-0-7-7-4" />
      <ellipse
         style="display:inline;opacity:1;fill:#919192;fill-opacity:1;stroke:#100000;stroke-width:0.2670334;stroke-linecap:round;stroke-linejoin:round;stroke-miterlimit:4;stroke-dasharray:none;stroke-opacity:1;paint-order:fill markers stroke"
         id="path937-8-8-6-9-0"
         cx="232.04082"
         cy="374.3512"
         rx="0.91881794"
         ry="0.90203464"
         transform="matrix(-0.62853358,0.77778245,0.88315993,0.46907199,0,0)" />
      <path
         style="display:inline;fill:#ba5575;fill-opacity:1;stroke:#000000;stroke-width:0.26458332px;stroke-linecap:butt;stroke-linejoin:miter;stroke-opacity:1"
         d="m 199.74225,313.45365 c -1.36976,0.16704 -1.04402,3.19888 -1.04402,3.96728 0,0.7684 0.30068,2.60588 -3.30746,4.30972 -0.7684,2.00453 3.17382,11.59282 4.94448,15.66868 1.36976,-2.37202 2.3052,-3.0736 2.93997,-3.67496 0.63476,-0.60135 2.47224,-4.00904 2.80633,-9.92238 0.20045,-2.50565 3.60814,-2.43883 3.60814,-2.43883 0.10022,-0.93544 -3.64155,-2.00452 -4.84426,-2.37202 -1.20272,-0.36749 -4.04245,-1.80407 -5.17835,-2.87315 -1.1359,-1.06907 0.2965,-1.25282 0.2965,-1.25282 z"
         id="path1056-44-0-3-4" />
      <path
         style="display:inline;fill:none;stroke:#000000;stroke-width:0.26458332px;stroke-linecap:butt;stroke-linejoin:miter;stroke-opacity:1"
         d="m 215.93711,322.19838 c -1.13589,0.30067 -1.63702,1.33634 -1.67043,2.73951 -0.0334,1.40316 -0.33409,16.80457 -0.0334,17.50615 0.30067,0.70159 0.36749,11.49259 0.23386,13.16303 -0.13364,1.67043 0.56794,9.58829 0.56794,9.58829"
         id="path1085-2-8-8-9" />
      <path
         style="display:inline;fill:#ba5575;fill-opacity:1;stroke:#000000;stroke-width:0.26458332px;stroke-linecap:butt;stroke-linejoin:miter;stroke-opacity:1"
         d="m 221.80982,313.47871 c 1.36976,0.16704 1.06073,3.17382 1.06073,3.94222 0,0.7684 -0.30068,2.60588 3.30746,4.30972 0.7684,2.00453 -3.17383,11.59282 -4.94449,15.66868 -1.36976,-2.37202 -2.3052,-3.0736 -2.93996,-3.67496 -0.63477,-0.60135 -2.47225,-4.00904 -2.80633,-9.92238 -0.20046,-2.50565 -3.60814,-2.43883 -3.60814,-2.43883 -0.10023,-0.93544 3.64154,-2.00452 4.84426,-2.37202 1.20271,-0.36749 4.04245,-1.80407 5.17834,-2.87315 1.1359,-1.06907 -0.16704,-1.24447 -0.16704,-1.24447 z"
         id="path1056-2-2-1-9-9" />
      <path
         style="display:inline;fill:none;stroke:#000000;stroke-width:0.26458332px;stroke-linecap:butt;stroke-linejoin:miter;stroke-opacity:1"
         d="m 211.00933,328.74648 c -0.55124,2.48895 -0.6396,8.15695 -0.50424,13.30054 0.14174,5.38616 0.7087,12.61495 0.51971,15.35528 -0.18898,2.74033 -0.47247,7.84301 -0.47247,7.84301"
         id="path1083-2-7-2-4" />
      <path
         style="display:inline;fill:#ffdbb4;fill-opacity:1;stroke:#000000;stroke-width:0.26458332px;stroke-linecap:butt;stroke-linejoin:miter;stroke-opacity:1"
         d="m 191.86785,281.17636 c -0.82894,5.0349 1.54119,19.26683 2.91768,22.2841 1.1505,2.52192 8.63933,13.13019 13.51165,13.97143 5.13601,0.88684 18.47174,-7.72382 20.35638,-10.12222 1.88464,-2.39838 7.09802,-21.3134 7.09802,-21.3134 l -5.3555,-19.70702 -10.9966,-6.00892 -13.28247,4.58488 z"
         id="path1093-4-7-8-4" />
      <path
         style="display:inline;fill:#ffffff;fill-opacity:1;stroke:none;stroke-width:0.26458332px;stroke-linecap:butt;stroke-linejoin:miter;stroke-opacity:1"
         d="m 208.2978,290.07635 c -0.75155,-2.32453 -5.11518,-3.68626 -5.11518,-3.68626 l -2.37578,-0.17107 -2.04242,0.37476 -1.61871,0.78312 -0.4194,0.38804 c 0,0 0.25136,0.73548 0.27427,1.21327 0.0229,0.47779 1.58924,2.3778 1.58924,2.3778 l 1.07025,1.00573 1.56975,0.85097 2.0002,0.49861 c 0,0 1.55729,0.10402 2.42152,-0.31236 0.86423,-0.41638 2.88625,-1.38702 2.64626,-3.32261 z"
         id="path1103-9-9-2-8" />
      <g
         transform="rotate(9.3492569,-267.79125,1246.4388)"
         style="display:inline"
         id="g3053-1-5-2-7">
        <circle
           r="3.4912083"
           cy="226.17357"
           cx="41.593819"
           id="path1121-5-4-2-3"
           style="opacity:1;fill:url(#linearGradient1717-29-4-4-8);fill-opacity:1;stroke:#000000;stroke-width:0.26458332;stroke-linecap:round;stroke-linejoin:round;stroke-miterlimit:4;stroke-dasharray:none;stroke-opacity:1;paint-order:fill markers stroke" />
        <ellipse
           transform="rotate(9.9861916)"
           ry="0.47185963"
           rx="0.7634849"
           cy="214.93105"
           cx="77.059303"
           id="path866-7-9-3-1"
           style="opacity:1;fill:#ffffff;fill-opacity:1;stroke:none;stroke-width:0.26458332;stroke-linecap:round;stroke-linejoin:round;stroke-miterlimit:4;stroke-dasharray:none;stroke-opacity:1;paint-order:fill markers stroke" />
        <circle
           r="0.96349251"
           cy="226.17357"
           cx="41.593819"
           id="path1121-4-0-1-3-97"
           style="display:inline;opacity:1;fill:#001b58;fill-opacity:1;stroke:none;stroke-width:0.26458332;stroke-linecap:round;stroke-linejoin:round;stroke-miterlimit:4;stroke-dasharray:none;stroke-opacity:1;paint-order:fill markers stroke" />
      </g>
      <path
         style="display:inline;fill:#ffdbb4;fill-opacity:1;stroke:none;stroke-width:0.26458332px;stroke-linecap:butt;stroke-linejoin:miter;stroke-opacity:1"
         d="m 202.43885,282.06758 -7.92354,3.10888 -0.90004,5.97254 6.17516,4.47272 7.33355,2.49784 5.15938,-7.3112 -1.55789,-5.71105 z m 0.74374,4.32269 c 0,0 4.36377,1.36146 5.11532,3.68599 0.23999,1.93559 -1.78187,2.9062 -2.6461,3.32258 -0.86423,0.41637 -2.42181,0.31248 -2.42181,0.31248 l -2.00025,-0.49847 -1.56979,-0.85131 -1.06988,-1.00572 c 0,0 -1.56637,-1.89969 -1.58928,-2.37748 -0.0229,-0.47779 -0.27468,-1.21366 -0.27468,-1.21366 l 0.41942,-0.38762 1.61899,-0.78352 2.04236,-0.37444 z"
         id="path3150-5-4-4-7" />
      <path
         style="display:inline;fill:#ffffff;fill-opacity:1;stroke:none;stroke-width:0.26458332px;stroke-linecap:butt;stroke-linejoin:miter;stroke-opacity:1"
         d="m 218.18294,291.70384 c 1.45711,-1.9609 6.02697,-1.85184 6.02697,-1.85184 l 2.30523,0.59961 1.81447,1.00976 1.28221,1.26072 0.27286,0.50201 c 0,0 -0.47387,0.61608 -0.64875,1.06131 -0.17488,0.44523 -2.26765,1.74281 -2.26765,1.74281 l -1.33619,0.60954 -1.7597,0.3028 -2.05448,-0.16895 c 0,0 -1.50844,-0.40072 -2.19357,-1.07218 -0.68513,-0.67146 -2.28925,-2.23911 -1.4414,-3.99559 z"
         id="path1103-3-4-4-1-9" />
      <g
         transform="rotate(9.3492569,-267.26207,1239.9672)"
         style="display:inline"
         id="g3058-9-9-0-3">
        <circle
           r="3.4912083"
           cy="226.17357"
           cx="62.703732"
           id="path1121-1-5-6-2-9"
           style="display:inline;opacity:1;fill:url(#linearGradient14720);fill-opacity:1;stroke:#000000;stroke-width:0.26458332;stroke-linecap:round;stroke-linejoin:round;stroke-miterlimit:4;stroke-dasharray:none;stroke-opacity:1;paint-order:fill markers stroke" />
        <ellipse
           transform="rotate(9.9861915)"
           ry="0.47185963"
           rx="0.7634849"
           cy="211.56451"
           cx="97.816368"
           id="path866-8-3-4-7-7"
           style="opacity:1;fill:#ffffff;fill-opacity:1;stroke:none;stroke-width:0.26458332;stroke-linecap:round;stroke-linejoin:round;stroke-miterlimit:4;stroke-dasharray:none;stroke-opacity:1;paint-order:fill markers stroke" />
        <circle
           transform="scale(-1,1)"
           r="0.96349251"
           cy="226.17357"
           cx="-62.703732"
           id="path1121-4-7-3-2-7-7"
           style="display:inline;opacity:1;fill:#001b58;fill-opacity:1;stroke:none;stroke-width:0.26458332;stroke-linecap:round;stroke-linejoin:round;stroke-miterlimit:4;stroke-dasharray:none;stroke-opacity:1;paint-order:fill markers stroke" />
      </g>
      <path
         style="display:inline;fill:#f6cba9;fill-opacity:1;stroke:none;stroke-width:0.26458332px;stroke-linecap:butt;stroke-linejoin:miter;stroke-opacity:1"
         d="m 226.13887,268.8049 c -0.72884,-1.94835 -6.69268,-1.50818 -8.03058,-0.37411 -1.33688,-1.13429 -4.01527,-2.96345 -6.8571,-1.3321 -2.84182,1.63135 1.91943,-4.25488 1.91943,-4.25488 l 8.96605,1.27301 z"
         id="path2881-6-2-5-8" />
      <path
         style="display:inline;fill:none;stroke:#000000;stroke-width:0.26458332px;stroke-linecap:butt;stroke-linejoin:miter;stroke-opacity:1"
         d="m 211.42065,295.78304 c 1.37346,1.98385 -2.43451,5.90616 -2.43451,5.90616 0.76717,0.57517 1.24904,1.01021 2.87692,0.679"
         id="path893-2-3-7-7" />
      <circle
         r="0.37797621"
         cy="258.20187"
         cx="241.02086"
         id="path971-6-7-6-4"
         style="display:inline;opacity:1;fill:#000000;fill-opacity:1;stroke:none;stroke-width:0;stroke-linecap:round;stroke-linejoin:round;stroke-miterlimit:4;stroke-dasharray:none;stroke-opacity:1;paint-order:fill markers stroke"
         transform="rotate(9.3492569)" />
      <path
         style="display:inline;fill:none;stroke:#000000;stroke-width:0.26458332px;stroke-linecap:butt;stroke-linejoin:miter;stroke-opacity:1"
         d="m 200.31267,284.90183 c 1.21599,-0.29076 5.93268,0.46887 7.96886,2.49702"
         id="path1105-2-6-6-6" />
      <path
         style="display:inline;fill:none;stroke:#000000;stroke-width:0.26458332px;stroke-linecap:butt;stroke-linejoin:miter;stroke-opacity:1"
         d="m 201.40835,286.26726 c -0.60151,-0.0483 -0.96573,-0.92081 -0.96573,-0.92081"
         id="path1107-9-2-2-5" />
      <path
         style="display:inline;fill:none;stroke:#000000;stroke-width:0.26458332px;stroke-linecap:butt;stroke-linejoin:miter;stroke-opacity:1"
         d="m 199.76362,286.38584 c -0.43126,-0.0541 -0.77397,-1.1601 -0.77397,-1.1601"
         id="path1109-8-9-8-2" />
      <path
         style="display:inline;fill:none;stroke:#000000;stroke-width:0.26458332px;stroke-linecap:butt;stroke-linejoin:miter;stroke-opacity:1"
         d="m 198.76442,286.59378 c -0.48865,0.0888 -1.07608,-1.17599 -1.07608,-1.17599"
         id="path1111-7-3-0-0" />
      <path
         style="display:inline;fill:none;stroke:#000000;stroke-width:0.26458332px;stroke-linecap:butt;stroke-linejoin:miter;stroke-opacity:1"
         d="m 198.0813,286.93841 c -0.49387,0.22342 -1.63297,-0.87831 -1.63297,-0.87831"
         id="path1113-7-5-1-9" />
      <path
         style="display:inline;fill:none;stroke:#000000;stroke-width:0.26458332px;stroke-linecap:butt;stroke-linejoin:miter;stroke-opacity:1"
         d="m 198.58982,291.35601 c -0.42683,-0.59508 -0.98935,-0.36603 -0.98935,-0.36603"
         id="path1115-7-1-3-6" />
      <path
         style="display:inline;fill:none;stroke:#000000;stroke-width:0.26458332px;stroke-linecap:butt;stroke-linejoin:miter;stroke-opacity:1"
         d="m 199.66007,292.36174 c -0.48965,-0.41919 -1.09618,-0.23124 -1.09618,-0.23124"
         id="path1117-7-3-0-9" />
      <path
         style="display:inline;fill:none;stroke:#000000;stroke-width:0.52916664;stroke-linecap:butt;stroke-linejoin:miter;stroke-miterlimit:4;stroke-dasharray:none;stroke-opacity:1"
         d="m 208.2978,290.07635 c -1.79195,-3.51158 -7.4802,-5.36226 -11.57149,-2.31141 -0.28774,0.30814 0.27427,1.21327 0.27427,1.21327"
         id="path1097-9-7-9-7" />
      <path
         style="display:inline;fill:none;stroke:#000000;stroke-width:0.26458332px;stroke-linecap:butt;stroke-linejoin:miter;stroke-opacity:1"
         d="m 197.63706,290.04796 c 1.06351,1.76644 3.56512,4.46375 8.01448,3.351"
         id="path1099-3-4-9-4" />
      <path
         style="display:inline;fill:#ffdbb4;fill-opacity:1;stroke:none;stroke-width:0.26458332px;stroke-linecap:butt;stroke-linejoin:miter;stroke-opacity:1"
         d="m 226.64321,286.18665 -9.57848,0.95519 -2.81711,2.98071 0.56983,7.9842 5.27781,2.63545 7.2926,-0.30087 4.21398,-3.95791 1.14379,-6.0534 z m -2.43337,3.66553 2.30518,0.59949 1.81452,1.00943 1.28235,1.26119 0.27302,0.50163 c 0,0 -0.47388,0.61639 -0.64875,1.06162 -0.17488,0.44522 -2.2676,1.74249 -2.2676,1.74249 l -1.33634,0.60956 -1.75986,0.30312 -2.05447,-0.16909 c 0,0 -1.50817,-0.40086 -2.1933,-1.07231 -0.68512,-0.67147 -2.28961,-2.23912 -1.44176,-3.9956 1.4571,-1.9609 6.02701,-1.85153 6.02701,-1.85153 z"
         id="path3132-3-9-9-0" />
      <path
         style="display:inline;fill:none;stroke:#000000;stroke-width:0.26458332px;stroke-linecap:butt;stroke-linejoin:miter;stroke-opacity:1"
         d="m 227.4055,289.36237 c -1.05859,-0.66524 -5.76986,-1.45782 -8.34877,-0.1895"
         id="path1105-1-89-7-9-4" />
      <path
         style="display:inline;fill:none;stroke:#000000;stroke-width:0.26458332px;stroke-linecap:butt;stroke-linejoin:miter;stroke-opacity:1"
         d="m 225.92991,290.30447 c 0.58523,0.14713 1.20996,-0.5626 1.20996,-0.5626"
         id="path1107-8-1-0-9-5" />
      <path
         style="display:inline;fill:none;stroke:#000000;stroke-width:0.26458332px;stroke-linecap:butt;stroke-linejoin:miter;stroke-opacity:1"
         d="m 227.44981,290.94408 c 0.42583,0.087 1.10504,-0.85075 1.10504,-0.85075"
         id="path1109-9-0-7-8-4" />
      <path
         style="display:inline;fill:none;stroke:#000000;stroke-width:0.26458332px;stroke-linecap:butt;stroke-linejoin:miter;stroke-opacity:1"
         d="m 228.32961,291.46137 c 0.43438,0.24081 1.39629,-0.76894 1.39629,-0.76894"
         id="path1111-0-3-8-2-4" />
      <path
         style="display:inline;fill:none;stroke:#000000;stroke-width:0.26458332px;stroke-linecap:butt;stroke-linejoin:miter;stroke-opacity:1"
         d="m 228.86619,292.00681 c 0.39618,0.36995 1.82835,-0.30844 1.82835,-0.30844"
         id="path1113-9-1-3-4-9" />
      <path
         style="display:inline;fill:none;stroke:#000000;stroke-width:0.26458332px;stroke-linecap:butt;stroke-linejoin:miter;stroke-opacity:1"
         d="m 226.96828,296.02822 c 0.59508,-0.42684 1.05448,-0.0295 1.05448,-0.0295"
         id="path1115-5-2-1-8-0" />
      <path
         style="display:inline;fill:none;stroke:#000000;stroke-width:0.26458332px;stroke-linecap:butt;stroke-linejoin:miter;stroke-opacity:1"
         d="m 225.63209,296.63776 c 0.5982,-0.2401 1.11246,0.13238 1.11246,0.13238"
         id="path1117-6-1-2-7-6" />
      <path
         style="display:inline;fill:none;stroke:#000000;stroke-width:0.52916664;stroke-linecap:butt;stroke-linejoin:miter;stroke-miterlimit:4;stroke-dasharray:none;stroke-opacity:1"
         d="m 218.18294,291.70384 c 2.82314,-2.75176 8.80447,-2.68118 11.70174,1.52026 0.17377,0.38412 -0.64875,1.06131 -0.64875,1.06131"
         id="path1097-8-1-3-5-7" />
      <path
         style="display:inline;fill:none;stroke:#000000;stroke-width:0.26458332px;stroke-linecap:butt;stroke-linejoin:miter;stroke-opacity:1"
         d="m 228.2901,295.09465 c -1.57368,1.33226 -4.80797,3.08521 -8.66576,0.60478"
         id="path1099-5-3-4-2-1" />
      <path
         style="display:inline;fill:#f6cba9;fill-opacity:1;stroke:none;stroke-width:0.26458332px;stroke-linecap:butt;stroke-linejoin:miter;stroke-opacity:1"
         d="m 237.59735,290.37933 c -0.29832,-0.0593 -0.67678,-0.076 -1.07408,-0.0354 l -0.34136,3.01175 c 0,0 0.29947,-0.68738 1.17801,-1.49924 0.40663,-0.37589 0.71493,-0.46387 0.98582,-0.39232 -0.0345,-0.27314 -0.084,-0.54507 -0.15326,-0.81552 -0.0482,-0.0728 -0.26454,-0.20314 -0.59471,-0.26865 z"
         id="path2735-9-2-7-7" />
      <path
         style="display:inline;fill:#3a3a3a;fill-opacity:1;stroke:#000000;stroke-width:0.26458332px;stroke-linecap:butt;stroke-linejoin:miter;stroke-opacity:1"
         d="m 218.17618,267.71486 c 1.40108,-1.08652 5.04565,-0.79779 6.886,0.94663 1.19152,1.25911 6.15596,7.85292 6.43856,11.89474 0.28259,4.04183 1.73219,14.97976 1.73219,14.97976 3.98113,-3.20441 8.60108,-11.11155 9.48111,-16.04543 0.88002,-4.93389 0.71887,-14.23764 -3.87328,-20.07245 -4.59215,-5.83481 -13.42311,-11.01316 -16.57367,-9.97438 -2.45474,0.88764 -0.99351,0.77731 -4.74775,-1.18796 -2.23236,-1.24786 -6.72404,-0.70075 -9.94054,0.32718 -3.2165,1.02793 -9.41914,2.91856 -13.73516,8.97966 -4.31603,6.0611 -5.28449,10.70956 -5.38502,15.4332 -0.10053,4.72362 0.86147,7.92926 1.23694,8.93912 0.37548,1.00985 0.71839,2.2175 1.70654,1.97388 0.98814,-0.24361 8.49895,-7.20078 8.49895,-7.20078 0,0 9.73676,-8.96079 11.06461,-9.62249 1.32784,-0.66171 5.12932,-1.94798 7.21052,0.62932 z"
         id="path1000-1-3-0-7" />
      <path
         style="display:inline;fill:#232323;fill-opacity:1;stroke:none;stroke-width:0.26458332px;stroke-linecap:butt;stroke-linejoin:miter;stroke-opacity:1"
         d="m 215.06764,263.91804 -2.33599,1.18134 -0.0666,1.22187 c 0.48665,-0.12729 1.02005,-0.22675 1.57362,-0.26306 0.0717,-0.0728 0.16934,-0.1683 0.30543,-0.29642 0.55095,-0.51875 1.97495,-1.09697 2.24314,-0.87505 l -0.37545,-0.44256 z"
         id="path2715-32-8-7-1" />
      <path
         style="display:inline;fill:#232323;fill-opacity:1;stroke:none;stroke-width:0.26458332px;stroke-linecap:butt;stroke-linejoin:miter;stroke-opacity:1"
         d="m 221.81077,266.56012 -1.06723,-0.0993 -1.23255,0.33861 -0.76239,0.47623 c 0.73782,-0.30427 1.70611,-0.40063 2.721,-0.28155 0.83696,0.0982 1.69608,0.33589 2.45452,0.71991 l -0.0793,-0.14189 -1.00761,-0.665 z"
         id="path2675-6-0-2-6" />
      <path
         style="display:inline;fill:#232323;fill-opacity:1;stroke:none;stroke-width:0.26458332px;stroke-linecap:butt;stroke-linejoin:miter;stroke-opacity:1"
         d="m 203.85759,268.0911 c -4.80672,6.89701 -10.53933,11.35241 -14.67625,12.03121 -0.28717,1.58345 3.81228,1.66745 3.81228,1.66745 l 9.9714,-7.8132 z"
         id="path2620-0-7-4-1" />
      <path
         style="display:inline;fill:#232323;fill-opacity:1;stroke:none;stroke-width:0.26458332px;stroke-linecap:butt;stroke-linejoin:miter;stroke-opacity:1"
         d="m 232.14375,266.98344 2.38962,8.51949 -0.1491,18.76709 c 1.65921,-1.66939 3.3553,-4.00024 4.78275,-6.45826 1.07202,-6.60953 -1.54985,-19.0325 -7.02327,-20.82832 z"
         id="path1984-7-5-15-5" />
      <path
         style="display:inline;fill:none;stroke:#000000;stroke-width:0.26458332px;stroke-linecap:butt;stroke-linejoin:miter;stroke-opacity:1"
         d="m 235.40147,267.35151 c 2.54277,2.91113 2.42138,8.23735 1.52539,10.4017"
         id="path1173-8-1-7-5" />
      <path
         style="display:inline;fill:none;stroke:#000000;stroke-width:0.26458332px;stroke-linecap:butt;stroke-linejoin:miter;stroke-opacity:1"
         d="m 218.76546,260.09505 c 0.16488,-1.07416 -0.4121,-3.16828 -0.4121,-3.16828"
         id="path1147-8-8-4-6" />
      <path
         style="display:inline;fill:none;stroke:#000000;stroke-width:0.26458332px;stroke-linecap:butt;stroke-linejoin:miter;stroke-opacity:1"
         d="m 224.02225,253.79571 c 12.83991,4.76766 19.18009,16.56158 13.15406,30.53905"
         id="path1167-4-2-3-9" />
      <path
         style="display:inline;fill:none;stroke:#000000;stroke-width:0.26458332px;stroke-linecap:butt;stroke-linejoin:miter;stroke-opacity:1"
         d="m 206.11701,264.86521 c -2.90805,0.94043 -10.22053,11.03692 -10.22053,11.03692"
         id="path1151-4-8-8-6" />
      <path
         style="display:inline;fill:none;stroke:#000000;stroke-width:0.52916664;stroke-linecap:butt;stroke-linejoin:miter;stroke-miterlimit:4;stroke-dasharray:none;stroke-opacity:1"
         d="m 229.00688,284.84851 c -3.39774,3.36271 -10.07564,2.17611 -10.07564,2.17611"
         id="path1008-7-2-5-2" />
      <path
         style="display:inline;fill:none;stroke:#000000;stroke-width:0.52916664;stroke-linecap:butt;stroke-linejoin:miter;stroke-miterlimit:4;stroke-dasharray:none;stroke-opacity:1"
         d="m 208.63555,285.43561 c -2.14036,-4.2745 -8.8462,-5.29139 -8.8462,-5.29139"
         id="path1008-1-8-6-0-1" />
      <path
         style="display:inline;fill:none;stroke:#000000;stroke-width:0.26458332px;stroke-linecap:butt;stroke-linejoin:miter;stroke-opacity:1"
         d="m 190.38382,280.01673 c 2.18317,-9.76423 11.79642,-19.88702 14.53588,-21.11189 2.73947,-1.22489 2.73947,-1.22489 2.73947,-1.22489"
         id="path1141-7-4-0-7" />
      <path
         style="display:inline;fill:none;stroke:#000000;stroke-width:0.26458332px;stroke-linecap:butt;stroke-linejoin:miter;stroke-opacity:1"
         d="m 219.5673,260.02356 c 0.19522,-0.45866 1.17438,-2.18883 2.18381,-2.35783"
         id="path1149-5-7-2-0" />
      <path
         style="display:inline;fill:#828282;fill-opacity:1;stroke:#000000;stroke-width:0.26458332px;stroke-linecap:butt;stroke-linejoin:miter;stroke-opacity:1"
         d="m 201.31948,260.6895 c 14.35585,-13.68537 31.89672,-1.38481 32.6225,5.64181 -5.21048,-8.37442 -20.91136,-11.83972 -32.6225,-5.64181 z"
         id="path1027-3-9-8-4" />
      <path
         style="color:#000000;font-style:normal;font-variant:normal;font-weight:normal;font-stretch:normal;font-size:medium;line-height:normal;font-family:sans-serif;font-variant-ligatures:normal;font-variant-position:normal;font-variant-caps:normal;font-variant-numeric:normal;font-variant-alternates:normal;font-feature-settings:normal;text-indent:0;text-align:start;text-decoration:none;text-decoration-line:none;text-decoration-style:solid;text-decoration-color:#000000;letter-spacing:normal;word-spacing:normal;text-transform:none;writing-mode:lr-tb;direction:ltr;text-orientation:mixed;dominant-baseline:auto;baseline-shift:baseline;text-anchor:start;white-space:normal;shape-padding:0;clip-rule:nonzero;display:inline;overflow:visible;visibility:visible;opacity:1;isolation:auto;mix-blend-mode:normal;color-interpolation:sRGB;color-interpolation-filters:linearRGB;solid-color:#000000;solid-opacity:1;vector-effect:none;fill:#232323;fill-opacity:1;fill-rule:nonzero;stroke:none;stroke-width:3.99999976;stroke-linecap:butt;stroke-linejoin:miter;stroke-miterlimit:4;stroke-dasharray:none;stroke-dashoffset:0;stroke-opacity:1;filter:url(#filter2397-4-8-7-3);color-rendering:auto;image-rendering:auto;shape-rendering:auto;text-rendering:auto;enable-background:accumulate"
         d="m 199.85742,73.984375 -3.99414,0.220703 0.9668,17.09961 c 1.34584,0.0062 2.68324,0.051 4.01367,0.125 z"
         transform="matrix(0.257689,0.06000598,-0.06000598,0.257689,173.75425,219.24093)"
         id="path2243-7-1-5-0" />
      <path
         style="display:inline;fill:#696969;fill-opacity:1;stroke:none;stroke-width:0.26458332px;stroke-linecap:butt;stroke-linejoin:miter;stroke-opacity:1"
         d="m 218.69751,256.92956 c -5.34758,-0.91265 -10.32829,0.002 -12.93829,0.66652 -1.16261,0.70677 -2.31847,1.55119 -3.45844,2.54675 5.65215,-2.67828 12.06946,-3.30576 17.79144,-2.22739 5.76681,1.08683 10.73241,3.86479 13.47783,7.76571 -0.37016,-1.57192 -1.38373,-3.3423 -3.10562,-5.02631 -0.38292,-0.37449 -0.79508,-0.74262 -1.23216,-1.10156 -0.26014,0.41491 -2.10191,0.10856 -6.17709,-1.4454 -1.4502,-0.55299 -2.91626,-0.93232 -4.35767,-1.17832 z"
         id="path2021-6-2-0-0" />
      <path
         style="display:inline;fill:#3a3a3a;fill-opacity:1;stroke:#000000;stroke-width:0.26458332px;stroke-linecap:butt;stroke-linejoin:miter;stroke-opacity:1"
         d="m 217.59258,260.09348 c 0.26792,-1.77638 -2.78782,-6.55211 -10.8914,0.20597"
         id="path1169-3-0-3-9" />
      <path
         style="display:inline;fill:#3a3a3a;fill-opacity:1;stroke:#000000;stroke-width:0.26458332px;stroke-linecap:butt;stroke-linejoin:miter;stroke-opacity:1"
         d="m 217.75112,262.69329 c -2.38239,-6.76068 -11.71399,-0.39632 -15.3728,7.28507 -3.65881,7.68139 -9.01381,9.96003 -12.88152,10.18515 -1.992,1.06801 1.17447,5.08503 2.57315,5.02042 0.92414,-0.0873 5.96218,-1.60408 9.37707,-6.93147 3.41491,-5.3274 10.84422,-15.261 12.19618,-15.03841 1.35196,0.22258 2.37726,0.62377 2.37726,0.62377"
         id="path1033-0-6-7-3" />
      <path
         style="display:inline;fill:#232323;fill-opacity:1;stroke:none;stroke-width:0.26458332px;stroke-linecap:butt;stroke-linejoin:miter;stroke-opacity:1"
         d="m 201.64402,277.63854 c -0.68425,0.96059 -4.1908,4.55717 -7.9459,6.93464 0.5945,-0.23297 1.29514,-0.5562 2.05964,-1.00424 1.78703,-1.04734 3.88342,-2.74416 5.578,-5.38777 0.0947,-0.14769 0.20332,-0.31092 0.3039,-0.46531 z"
         id="path2794-8-7-73-1" />
      <path
         style="display:inline;fill:#3a3a3a;fill-opacity:1;stroke:#000000;stroke-width:0.26458332px;stroke-linecap:butt;stroke-linejoin:miter;stroke-opacity:1"
         d="m 189.51906,287.12007 c 9.47059,-1.89433 15.68696,-16.31033 17.06748,-18.11455 1.38052,-1.80422 2.88043,-4.33366 6.00929,-5.24059 3.12886,-0.90692 3.42463,0.0729 3.42463,0.0729 l -3.92054,0.60652 c 0,0 -3.13147,3.31508 -3.66505,4.52008 -0.53357,1.205 -8.83738,19.87269 -18.91581,18.15565 z"
         id="path1031-6-1-6-9" />
      <path
         style="display:inline;fill:#232323;fill-opacity:1;stroke:none;stroke-width:0.26458332px;stroke-linecap:butt;stroke-linejoin:miter;stroke-opacity:1"
         d="m 209.99049,266.06002 c -2.48548,2.0089 -4.74894,6.51079 -5.26578,8.2788 -0.18274,0.62511 -0.29212,1.32412 -0.36229,1.91739 2.2932,-3.62013 3.73897,-6.86699 3.95115,-7.34618 0.23552,-0.53188 0.89353,-1.37348 1.59155,-2.20103 z"
         id="path2622-5-6-1-9" />
      <path
         style="display:inline;fill:#3a3a3a;fill-opacity:1;stroke:#000000;stroke-width:0.26458332px;stroke-linecap:butt;stroke-linejoin:miter;stroke-opacity:1"
         d="m 217.63882,264.82955 c -5.09154,-8.76352 -14.66042,9.40108 -12.89747,17.84381 0.29197,-5.55425 8.75973,-20.63191 11.70186,-17.56183"
         id="path1029-5-7-5-2" />
      <path
         style="display:inline;fill:none;stroke:#000000;stroke-width:0.26458332;stroke-linecap:butt;stroke-linejoin:miter;stroke-miterlimit:4;stroke-dasharray:none;stroke-opacity:1"
         d="m 188.89271,281.72511 c 0.86664,0.80292 7.48449,-1.09407 10.55688,-5.56543 l 3.0724,-4.47135"
         id="path1133-7-7-0-8" />
      <path
         style="display:inline;fill:none;stroke:#000000;stroke-width:0.26458332px;stroke-linecap:butt;stroke-linejoin:miter;stroke-opacity:1"
         d="m 190.06067,283.83144 c 1.14915,0.62935 4.74646,-1.72 6.00437,-2.74392 1.32066,-1.075 4.64265,-4.75457 4.64265,-4.75457"
         id="path1135-3-4-4-3" />
      <path
         style="display:inline;fill:none;stroke:#000000;stroke-width:0.26458332px;stroke-linecap:butt;stroke-linejoin:miter;stroke-opacity:1"
         d="m 216.87223,262.67449 c -1.22794,-1.59035 -5.74373,-2.13068 -9.26054,2.57224 -3.51682,4.7029 -3.51682,4.7029 -3.51682,4.7029"
         id="path1137-6-8-0-2" />
      <path
         style="display:inline;fill:none;stroke:#000000;stroke-width:0.26458332px;stroke-linecap:butt;stroke-linejoin:miter;stroke-opacity:1"
         d="m 191.66322,279.85493 c 1.0348,-4.43438 8.56291,-13.75879 10.24011,-15.51417 1.6772,-1.75537 1.71559,-1.78291 1.71559,-1.78291"
         id="path1139-3-9-10-6" />
      <path
         style="display:inline;fill:#3a3a3a;fill-opacity:1;stroke:#000000;stroke-width:0.26458332px;stroke-linecap:butt;stroke-linejoin:miter;stroke-opacity:1"
         d="m 219.5184,261.5037 c 1.1228,-2.3902 6.69294,-4.47566 12.6862,3.16602 2.78413,3.54989 6.54883,11.731 5.44728,21.30088 -1.10156,9.56987 -3.46343,20.62517 -13.93467,30.34535 5.8091,-6.49246 9.51571,-20.77992 9.51571,-20.77992 l -1.02744,-19.67163 -6.76661,-11.13614"
         id="path1004-3-8-6-9" />
      <path
         style="display:inline;fill:#232323;fill-opacity:1;stroke:none;stroke-width:0.26458332px;stroke-linecap:butt;stroke-linejoin:miter;stroke-opacity:1"
         d="m 224.51375,263.56009 -0.27535,0.51452 1.2001,0.65375 0.11286,-0.0684 6.78451,11.16407 1.02951,19.72629 -0.005,0.0191 c 0,0 -0.92776,3.5791 -2.58316,7.96944 -1.21291,3.2168 -2.86113,6.75904 -4.79949,9.72823 -0.3974,0.62712 -0.80735,1.22847 -1.23112,1.79007 0.58943,-0.58798 1.15105,-1.18041 1.68609,-1.77644 1.32668,-1.73563 2.66714,-3.84442 4.01196,-6.40814 15.21343,-29.00234 0.002,-42.33563 -5.93119,-43.31255 z"
         id="path2057-2-9-2-7" />
      <path
         style="display:inline;fill:#3a3a3a;fill-opacity:1;stroke:#000000;stroke-width:0.26458332px;stroke-linecap:butt;stroke-linejoin:miter;stroke-opacity:1"
         d="m 218.17618,267.71486 c 2.15235,-1.77212 5.3846,-2.34811 8.33054,3.74606 3.71258,7.6801 5.15933,16.65084 3.04607,24.25151 -2.11327,7.60067 -4.42552,16.70083 -11.90172,22.55665 7.58392,-2.43838 15.81688,-18.4166 16.83229,-23.42079 1.01543,-5.00419 1.95469,-17.10762 -2.61227,-24.85046 -4.34521,-7.36688 -9.03843,-9.71716 -12.34928,-6.76679"
         id="path1002-9-4-4-2" />
      <path
         style="color:#000000;font-style:normal;font-variant:normal;font-weight:normal;font-stretch:normal;font-size:medium;line-height:normal;font-family:sans-serif;font-variant-ligatures:normal;font-variant-position:normal;font-variant-caps:normal;font-variant-numeric:normal;font-variant-alternates:normal;font-feature-settings:normal;text-indent:0;text-align:start;text-decoration:none;text-decoration-line:none;text-decoration-style:solid;text-decoration-color:#000000;letter-spacing:normal;word-spacing:normal;text-transform:none;writing-mode:lr-tb;direction:ltr;text-orientation:mixed;dominant-baseline:auto;baseline-shift:baseline;text-anchor:start;white-space:normal;shape-padding:0;clip-rule:nonzero;display:inline;overflow:visible;visibility:visible;opacity:1;isolation:auto;mix-blend-mode:normal;color-interpolation:sRGB;color-interpolation-filters:linearRGB;solid-color:#000000;solid-opacity:1;vector-effect:none;fill:#232323;fill-opacity:1;fill-rule:nonzero;stroke:none;stroke-width:3.99999976;stroke-linecap:butt;stroke-linejoin:miter;stroke-miterlimit:4;stroke-dasharray:none;stroke-dashoffset:0;stroke-opacity:1;filter:url(#filter2325-4-2-2-6);color-rendering:auto;image-rendering:auto;shape-rendering:auto;text-rendering:auto;enable-background:accumulate"
         d="m 174.94153,75.044836 c -0.17783,0.003 -0.35716,0.0158 -0.53515,0.0195 l 1.91601,33.849614 3.99219,-0.2207 -1.90235,-33.636724 c -1.15344,-0.0172 -2.30918,-0.0305 -3.4707,-0.0117 z"
         id="path2093-8-9-3-1"
         transform="matrix(0.26106872,0.04298213,-0.04298213,0.26106872,176.42883,231.05608)" />
      <path
         style="display:inline;fill:none;stroke:#000000;stroke-width:0.26458332px;stroke-linecap:butt;stroke-linejoin:miter;stroke-opacity:1"
         d="m 189.00935,279.31642 c -0.24763,-3.0203 3.87162,-11.38232 6.86261,-15.35921 2.99098,-3.97688 2.99098,-3.97688 2.99098,-3.97688"
         id="path1153-6-7-8-9" />
      <path
         style="display:inline;fill:none;stroke:#000000;stroke-width:0.26458332px;stroke-linecap:butt;stroke-linejoin:miter;stroke-opacity:1"
         d="m 188.50672,275.10088 c -0.0332,-2.88342 3.96603,-10.85685 6.77631,-14.55875"
         id="path1155-24-2-6-1" />
      <path
         style="display:inline;fill:none;stroke:#000000;stroke-width:0.26458332px;stroke-linecap:butt;stroke-linejoin:miter;stroke-opacity:1"
         d="m 188.6068,270.50197 c 0.19921,-2.03257 5.09331,-10.52518 7.26398,-12.70719 2.17067,-2.182 3.72819,-3.08484 3.72819,-3.08484"
         id="path1157-4-4-3-3" />
      <path
         style="display:inline;fill:none;stroke:#000000;stroke-width:0.26458332px;stroke-linecap:butt;stroke-linejoin:miter;stroke-opacity:1"
         d="m 196.81288,259.27037 c 3.47581,-3.21989 7.67805,-5.71073 11.47163,-6.54208"
         id="path1159-2-2-39-8" />
      <path
         style="display:inline;fill:none;stroke:#000000;stroke-width:0.26458332px;stroke-linecap:butt;stroke-linejoin:miter;stroke-opacity:1"
         d="m 204.04249,251.75902 c 6.37712,-2.53907 10.39724,-2.68981 13.13533,-1.22326"
         id="path1161-6-4-3-1" />
      <path
         style="display:inline;fill:none;stroke:#000000;stroke-width:0.26458332px;stroke-linecap:butt;stroke-linejoin:miter;stroke-opacity:1"
         d="m 211.4809,252.6451 c 3.15801,-0.0557 5.37128,-0.13144 6.19118,0.64686"
         id="path1163-7-4-8-1" />
      <path
         style="display:inline;fill:none;stroke:#000000;stroke-width:0.26458332px;stroke-linecap:butt;stroke-linejoin:miter;stroke-opacity:1"
         d="m 220.14043,251.66684 c 3.0346,-1.3626 7.66797,0.31441 8.8947,1.29513 1.22673,0.98071 1.22673,0.98071 1.22673,0.98071"
         id="path1165-3-2-8-7" />
      <path
         style="display:inline;fill:none;stroke:#000000;stroke-width:0.26458332px;stroke-linecap:butt;stroke-linejoin:miter;stroke-opacity:1"
         d="m 239.16645,288.08212 c 2.30516,-6.39216 5.58826,-20.98637 -4.33233,-30.03468"
         id="path1171-24-2-3-0" />
      <path
         style="display:inline;fill:none;stroke:#000000;stroke-width:0.26458332px;stroke-linecap:butt;stroke-linejoin:miter;stroke-opacity:1"
         d="m 220.11198,254.60668 c 0.76752,-0.73554 1.12782,-1.17898 2.11749,-1.51881"
         id="path1175-5-4-0-7" />
      <path
         style="display:inline;fill:none;stroke:#000000;stroke-width:0.26458332px;stroke-linecap:butt;stroke-linejoin:miter;stroke-opacity:1"
         d="m 219.72084,253.20155 c -0.30089,-0.93537 -1.59117,-1.38721 -1.59117,-1.38721"
         id="path1177-4-6-4-6" />
      <path
         style="display:inline;fill:#3a3a3a;fill-opacity:1;stroke:#000000;stroke-width:0.26458332px;stroke-linecap:butt;stroke-linejoin:miter;stroke-opacity:1"
         d="m 198.1462,346.87297 c -0.74174,1.1685 -1.86079,4.27557 -1.47447,5.98318 0.38633,1.70762 0.41051,2.94632 0.0511,3.81542 -0.35945,0.8691 -0.5303,0.94453 -0.5303,0.94453 2.33217,-0.50687 3.16374,-1.80485 3.21363,-3.54171 0.0499,-1.73686 -0.81073,-5.75836 -0.32555,-7.15659 -0.297,-0.43234 -0.93437,-0.0448 -0.93437,-0.0448 z"
         id="path1183-1-2-4-4" />
      <path
         style="display:inline;fill:#bc8d11;fill-opacity:1;stroke:#000000;stroke-width:0.26458332px;stroke-linecap:butt;stroke-linejoin:miter;stroke-opacity:1"
         d="m 199.15146,347.55175 c -0.14953,0.1889 -1.30374,0.16155 -1.54395,0.0246 -0.2402,-0.13696 -0.0919,-3.7953 0.18099,-4.05794 0.27287,-0.26263 1.2497,-0.11571 1.53713,0.0586 0.28742,0.17436 -0.0247,3.78577 -0.17416,3.97465 z"
         id="path1181-1-8-5-4" />
      <path
         style="display:inline;fill:#ae375d;fill-opacity:1;stroke:none;stroke-width:0.26458332px;stroke-linecap:butt;stroke-linejoin:miter;stroke-opacity:1"
         d="m 223.07702,319.32699 c 0.19367,4.54321 -0.41788,11.10965 -4.8147,14.16605 0.0464,0.0573 0.0877,0.10301 0.12247,0.13591 0.59907,0.56755 1.52916,1.33896 2.81637,3.49591 0.88842,-2.05169 2.25159,-5.30996 3.3321,-8.38088 0.55448,-1.57591 1.02889,-3.08587 1.31619,-4.32222 0.28413,-1.22264 0.36175,-2.17488 0.20309,-2.61482 -1.72853,-0.83213 -2.58022,-1.70285 -2.97552,-2.47995 z"
         id="path1056-2-0-7-7-8-0" />
      <path
         style="display:inline;fill:#ae375d;fill-opacity:1;stroke:none;stroke-width:0.26458332px;stroke-linecap:butt;stroke-linejoin:miter;stroke-opacity:1"
         d="m 196.05024,325.68112 c 0.26996,0.94866 0.60624,1.98704 0.98495,3.06338 1.0803,3.07031 2.44521,6.32703 3.33365,8.37881 1.28627,-2.1546 2.21603,-2.92708 2.81482,-3.49436 0.13653,-0.12935 0.37168,-0.45018 0.63458,-0.93947 0.26291,-0.48929 0.55934,-1.15104 0.8475,-1.97818 0.43252,-1.24154 0.84481,-2.85689 1.09398,-4.83019 -3.04051,3.12283 -3.97755,5.86536 -9.70948,-0.19999 z"
         id="path1056-4-2-8-5-9" />
      <path
         style="display:inline;fill:none;stroke:#000000;stroke-width:0.26458332px;stroke-linecap:butt;stroke-linejoin:miter;stroke-opacity:1"
         d="m 211.00933,328.74648 c -0.55124,2.48895 -0.6396,8.15695 -0.50424,13.30054 0.14174,5.38616 0.7087,12.61495 0.51971,15.35528 -0.18898,2.74033 -0.47247,7.84301 -0.47247,7.84301"
         id="path1083-9-7-1-1-4" />
      <path
         style="display:inline;fill:#d6d6d6;fill-opacity:1;stroke:none;stroke-width:0.26458332px;stroke-linecap:butt;stroke-linejoin:miter;stroke-opacity:1"
         d="m 234.5621,339.03638 c -2.10655,2.97725 -6.59329,9.4636 -7.39076,4.13256 -0.19945,0.99133 -0.38977,1.9643 -0.5209,2.40141 -0.0611,0.20358 -0.17018,0.76855 -0.29146,1.49603 -0.12127,0.72748 -0.25929,1.62642 -0.39015,2.53318 -0.23318,1.61572 -0.40506,3.03182 -0.47077,3.76566 0.22076,-0.34723 0.42637,-0.70395 0.77514,-0.99012 0.88168,-0.72343 2.33679,-2.80655 3.7052,-4.9475 1.36842,-2.14096 2.66604,-4.34669 3.30678,-5.36712 0.3789,-0.60344 0.83658,-1.73401 1.27692,-3.0241 z"
         id="path1419-1-8-88-5" />
      <path
         style="display:inline;fill:#71aad3;fill-opacity:1;stroke:none;stroke-width:0.26458332px;stroke-linecap:butt;stroke-linejoin:miter;stroke-opacity:1"
         d="m 256.73853,354.93928 c -0.7147,1.35703 -1.81184,2.60406 -3.4029,3.5388 -2.65405,1.55926 -6.19477,2.06522 -8.09046,2.23294 l 11.27011,0.2775 c 0.005,-0.0838 0.13861,-2.62837 0.22325,-6.04924 z"
         id="path1578-5-2-6-5" />
      <path
         style="display:inline;fill:#d6d6d6;fill-opacity:1;stroke:none;stroke-width:0.26458332px;stroke-linecap:butt;stroke-linejoin:miter;stroke-opacity:1"
         d="m 233.10638,322.65391 0.45372,0.54674 0.79375,1.0356 0.94361,1.24437 0.81028,1.12758 0.75138,0.86868 v -0.70125 l -0.63459,-1.53686 -0.78496,-1.74563 -0.009,-0.0155 c 0.005,1.46929 -0.68512,0.22009 -2.32441,-0.82373 z"
         id="path1871-6-3-3-8" />
      <path
         style="display:inline;fill:none;stroke:#000000;stroke-width:0.26458332px;stroke-linecap:butt;stroke-linejoin:miter;stroke-opacity:1"
         d="m 228.38928,324.93853 c 0.92131,-0.99218 1.30221,-3.89544 2.08061,-4.17672 1.02142,-0.36913 3.50792,2.78127 4.81921,4.66051 1.31129,1.87923 1.61197,2.22167 1.61197,2.22167 0.2088,-0.91874 -1.87889,-4.86666 -1.87889,-4.86666"
         id="path919-3-4-8-69-0" />
      <path
         style="display:inline;fill:#d6d6d6;fill-opacity:1;stroke:none;stroke-width:0.26458332px;stroke-linecap:butt;stroke-linejoin:miter;stroke-opacity:1"
         d="m 193.12535,332.85484 c -0.7178,4.17648 0.64761,9.51466 0.76223,10.35751 0.12327,0.90639 1.56019,6.12163 -3.52795,1.51154 0.51891,0.85075 1.08771,1.77542 1.68104,2.70371 1.36841,2.14095 2.82352,4.22407 3.7052,4.9475 0.34757,0.28519 0.5532,0.64058 0.77359,0.9865 -0.0659,-0.73496 -0.23783,-2.14798 -0.47077,-3.76204 -0.13087,-0.90676 -0.26734,-1.8057 -0.38861,-2.53318 -0.12127,-0.72748 -0.22986,-1.29245 -0.29093,-1.49603 -0.14788,-0.4929 -0.36856,-1.64959 -0.59583,-2.76779 -0.11364,-0.55911 -0.22926,-1.106 -0.33383,-1.54875 -0.10458,-0.44274 -0.20666,-0.79095 -0.26562,-0.90434 -0.0908,-0.17458 -0.18611,-0.48863 -0.29301,-0.91208 -0.10689,-0.42346 -0.22079,-0.9505 -0.32607,-1.52136 -0.21058,-1.14172 -0.38845,-2.45562 -0.41238,-3.46077 -0.0105,-0.44213 -0.0158,-1.00013 -0.0171,-1.60042 z"
         id="path2508-5-2-93-7" />
      <path
         style="display:inline;fill:#ae375d;fill-opacity:1;stroke:none;stroke-width:0.26458332px;stroke-linecap:butt;stroke-linejoin:miter;stroke-opacity:1"
         d="m 198.74775,318.62419 c -0.0481,0.20798 -0.11908,0.42847 -0.23203,0.65939 -0.18498,0.37819 -0.48242,0.77931 -0.93172,1.18804 0.41092,0.88056 1.29973,1.8331 3.25251,1.7601 -0.72041,-0.45283 -1.51317,-1.93623 -2.08876,-3.60753 z"
         id="path2898-2-1-2-4" />
      <path
         style="display:inline;fill:#d6d6d6;fill-opacity:1;stroke:none;stroke-width:0.26458332px;stroke-linecap:butt;stroke-linejoin:miter;stroke-opacity:1"
         d="m 192.57965,320.42149 c -0.0438,0.42474 -0.25092,0.62284 -0.83457,0.49868 l 0.12919,0.13797 0.22582,0.35916 0.45941,1.31568 0.4594,1.12758 0.32556,0.66817 0.22325,0.31368 c 0.13118,-0.56851 0.0668,-1.16883 -0.0248,-1.82263 -0.19913,-0.81514 -0.49453,-1.86638 -0.96325,-2.59829 z"
         id="path2974-41-4-7-2" />
      <path
         style="display:inline;fill:none;stroke:#000000;stroke-width:0.26458332px;stroke-linecap:butt;stroke-linejoin:miter;stroke-opacity:1"
         d="m 193.62935,324.93853 c -0.92132,-0.99218 -1.30221,-3.89544 -2.08061,-4.17672 -1.02142,-0.36913 -3.50792,2.78127 -4.81921,4.66051 -1.31129,1.87923 -1.61197,2.22167 -1.61197,2.22167 -0.2088,-0.91874 1.87889,-4.86666 1.87889,-4.86666"
         id="path919-7-7-3-4-9" />
      <g
         id="g9854-9-7-6"
         transform="matrix(0.71640644,-0.02882287,0.03326762,0.82688292,165.42013,108.92673)"
         style="display:inline;stroke-width:1.29821622">
        <path
           id="path9820-3-1-0"
           d="m 46.564594,244.23157 c 2.016003,1.02467 8.426837,0.99869 10.017939,0.29915 0.671508,-1.81422 -6.658427,-5.74613 -10.017939,-0.29915 z"
           style="fill:#a8000d;fill-opacity:1;stroke:#000000;stroke-width:0.34348637px;stroke-linecap:butt;stroke-linejoin:miter;stroke-opacity:1" />
        <path
           id="path9826-3-5-0"
           d="m 51.387507,241.45419 c -0.906302,0.006 -1.83115,0.20734 -2.688394,0.68239 1.782419,0.25955 3.974624,0.19765 5.707829,-0.0195 -0.877427,-0.39907 -1.933237,-0.66977 -3.019435,-0.66287 z"
           style="fill:#ffffff;fill-opacity:1;stroke:#000000;stroke-width:0.34348637;stroke-linecap:butt;stroke-linejoin:round;stroke-miterlimit:4;stroke-dasharray:none;stroke-opacity:1" />
        <path
           id="path9828-9-2-9"
           d="m 49.249911,244.53529 c -0.573745,0.0212 -1.083039,0.0459 -1.564567,0.0715 2.326392,0.55043 6.377821,0.5359 8.251191,0.11656 -1.90093,-0.28146 -4.534168,-0.26709 -6.6866,-0.18799 z"
           style="fill:#ffffff;fill-opacity:1;stroke:#000000;stroke-width:0.34348637px;stroke-linecap:butt;stroke-linejoin:round;stroke-opacity:1" />
      </g>
    </g>
  </g>
</svg>
