<?xml version="1.0" encoding="UTF-8" standalone="no"?>
<svg
   xmlns:dc="http://purl.org/dc/elements/1.1/"
   xmlns:cc="http://creativecommons.org/ns#"
   xmlns:rdf="http://www.w3.org/1999/02/22-rdf-syntax-ns#"
   xmlns:svg="http://www.w3.org/2000/svg"
   xmlns="http://www.w3.org/2000/svg"
   xmlns:xlink="http://www.w3.org/1999/xlink"
   id="svg8"
   version="1.1"
   viewBox="0 0 105.83333 132.29167"
   height="500"
   width="400">
  <defs
     id="defs2">
    <linearGradient
       id="linearGradient1715">
      <stop
         id="stop1711"
         offset="0"
         style="stop-color:#004f8d;stop-opacity:1" />
      <stop
         id="stop1713"
         offset="1"
         style="stop-color:#217bb8;stop-opacity:1" />
    </linearGradient>
    <linearGradient
       gradientUnits="userSpaceOnUse"
       y2="229.93283"
       x2="41.837238"
       y1="222.49144"
       x1="41.837238"
       id="linearGradient1717-29-4"
       xlink:href="#linearGradient1715" />
    <filter
       height="1.4558276"
       y="-0.2279138"
       width="2.920754"
       x="-0.96037698"
       id="filter2397-4-8"
       style="color-interpolation-filters:sRGB">
      <feGaussianBlur
         id="feGaussianBlur2399-20-4"
         stdDeviation="1.6632088" />
    </filter>
    <filter
       height="1.3156774"
       y="-0.15783869"
       width="2.8101289"
       x="-0.90506452"
       id="filter2325-4-2"
       style="color-interpolation-filters:sRGB">
      <feGaussianBlur
         id="feGaussianBlur2327-67-5"
         stdDeviation="2.2280425" />
    </filter>
    <linearGradient
       y2="229.93283"
       x2="41.837238"
       y1="222.49144"
       x1="41.837238"
       gradientTransform="translate(21.109913)"
       gradientUnits="userSpaceOnUse"
       id="linearGradient5937"
       xlink:href="#linearGradient1715" />
  </defs>
  <metadata
     id="metadata5">
    <rdf:RDF>
      <cc:Work
         rdf:about="">
        <dc:format>image/svg+xml</dc:format>
        <dc:type
           rdf:resource="http://purl.org/dc/dcmitype/StillImage" />
        <dc:title></dc:title>
      </cc:Work>
    </rdf:RDF>
  </metadata>
  <g
     style="display:inline"
     transform="translate(0,-164.70832)"
     id="layer1">
    <g
       transform="translate(119.8747,169.08677)"
       id="g9061">
      <g
         transform="translate(-119.8747,-166.89888)"
         style="display:inline"
         id="g3048-1-6">
        <path
           id="path3035-3-7"
           d="m 52.727677,180.74868 0.944941,-1.03943 1.393788,1.96075 -1.559153,0.89769 -1.086681,-0.96856 z"
           style="fill:#232323;fill-opacity:1;stroke:none;stroke-width:0.26458332px;stroke-linecap:butt;stroke-linejoin:miter;stroke-opacity:1" />
        <path
           id="path3015-62-1"
           d="m 59.601105,183.67771 c 1.603615,-0.93545 0.119133,-4.03933 0.119133,-4.03933 l -1.771763,0.73233 -0.708705,2.76395 z"
           style="fill:#3a3a3a;fill-opacity:1;stroke:#000000;stroke-width:0.26458332px;stroke-linecap:butt;stroke-linejoin:miter;stroke-opacity:1" />
        <path
           id="path3017-0-1"
           d="m 56.601933,183.15828 c 2.362351,-0.51971 6.496466,-4.13411 1.393788,-8.03199 -0.826823,-0.92132 -1.488281,1.32292 -1.488281,1.32292 z"
           style="fill:#3a3a3a;fill-opacity:1;stroke:#000000;stroke-width:0.26458332px;stroke-linecap:butt;stroke-linejoin:miter;stroke-opacity:1" />
        <path
           id="path3019-7-0"
           d="m 55.457524,183.18191 c 3.582281,-1.81901 4.514656,-11.57553 -1.766603,-10.15811 -6.281263,1.41741 1.766603,10.15811 1.766603,10.15811 z"
           style="fill:#3a3a3a;fill-opacity:1;stroke:#000000;stroke-width:0.26458332px;stroke-linecap:butt;stroke-linejoin:miter;stroke-opacity:1" />
        <path
           id="path3021-78-2"
           d="m 50.885044,183.63075 c 4.606584,-3.37816 5.527903,-13.60714 -1.063058,-10.37072 -0.519716,2.7167 1.063058,10.37072 1.063058,10.37072 z"
           style="fill:#3a3a3a;fill-opacity:1;stroke:#000000;stroke-width:0.26458332px;stroke-linecap:butt;stroke-linejoin:miter;stroke-opacity:1" />
        <path
           id="path3023-3-0"
           d="m 49.136905,183.20553 c 5.905876,-2.59859 2.480469,-11.19755 -0.330729,-9.96912 -0.968565,4.77195 0.330729,9.96912 0.330729,9.96912 z"
           style="fill:#3a3a3a;fill-opacity:1;stroke:#000000;stroke-width:0.26458332px;stroke-linecap:butt;stroke-linejoin:miter;stroke-opacity:1" />
        <path
           id="path3025-77-9"
           d="m 47.979354,182.92402 c 4.157736,-3.44049 2.338726,-14.18925 -4.204986,-9.03975 3.897878,-0.24735 6.000371,1.2143 3.685267,8.43261 -0.02363,0.87699 0.519719,0.60714 0.519719,0.60714 z"
           style="fill:#3a3a3a;fill-opacity:1;stroke:#000000;stroke-width:0.26458332px;stroke-linecap:butt;stroke-linejoin:miter;stroke-opacity:1" />
        <path
           id="path3027-7-1"
           d="m 46.703683,183.22915 c 2.574962,-2.10249 3.401785,-9.49665 -1.488281,-8.59896 -4.890069,0.8977 -2.55134,7.29967 -1.322917,8.59896 1.228421,1.2993 2.811198,0 2.811198,0 z"
           style="fill:#3a3a3a;fill-opacity:1;stroke:#000000;stroke-width:0.26458332px;stroke-linecap:butt;stroke-linejoin:miter;stroke-opacity:1" />
        <path
           id="path3029-4-7"
           d="m 46.136718,183.18191 c 1.653646,-2.55134 0.803198,-7.55953 -1.015812,-7.55953 -1.81901,0 -3.189174,4.96094 0.330729,7.03981 3.519906,2.07887 0.685083,0.51972 0.685083,0.51972 z"
           style="fill:#232323;fill-opacity:1;stroke:#000000;stroke-width:0.26458332px;stroke-linecap:butt;stroke-linejoin:miter;stroke-opacity:1" />
        <path
           id="path3031-4-2"
           d="m 46.136718,183.18191 c 2.645833,-2.4096 5.504278,-2.76396 9.591146,-0.77958 1.322917,0.85045 1.372822,1.25205 -0.270341,0.77958 -1.643163,-0.47247 -3.887398,-1.51191 -6.320618,-0.73233 -2.433222,0.77957 -3.000187,0.73233 -3.000187,0.73233 z"
           style="fill:#232323;fill-opacity:1;stroke:#000000;stroke-width:0.26458332px;stroke-linecap:butt;stroke-linejoin:miter;stroke-opacity:1" />
        <path
           id="path3033-56-6"
           d="m 55.822357,183.79612 c -1.299292,-1.51191 -5.66964,-3.18919 -8.008368,-0.82683 -0.543343,0.4961 5.215405,1.18627 5.215405,1.18627 z"
           style="fill:#3a3a3a;fill-opacity:1;stroke:#000000;stroke-width:0.26458332px;stroke-linecap:butt;stroke-linejoin:miter;stroke-opacity:1" />
      </g>
      <g
         style="display:inline"
         id="g1835-2-5-5"
         transform="matrix(-1,0,0,1,-16.097646,-166.89888)">
        <path
           id="path1072-4-7-8"
           d="m 31.041295,223.05196 c -0.566965,-2.22061 -3.685268,-2.50409 -4.110493,-1.98437 -2.999817,6.75348 6.043116,16.51669 7.039811,13.65439 0.708705,-1.55915 -2.929315,-11.67002 -2.929315,-11.67002 z"
           style="fill:#ffdbb4;fill-opacity:1;stroke:#000000;stroke-width:0.26458332px;stroke-linecap:butt;stroke-linejoin:miter;stroke-opacity:1" />
        <path
           id="path1701-1-7-6"
           d="m 28.33057,223.6345 -0.14772,0.49876 -0.07087,0.82683 0.01815,0.61211 0.218096,1.0061 0.2008,0.69689 0.295294,0.7087 0.460658,0.82683 0.437034,0.59059 0.531529,0.60239 0.529283,0.34595 0.0021,-0.55856 -0.177176,-0.95675 -0.259858,-0.98037 -0.366165,-1.14574 -0.425225,-0.95676 -0.507904,-1.13392 z"
           style="fill:#ffc39c;fill-opacity:1;stroke:none;stroke-width:0.26458332px;stroke-linecap:butt;stroke-linejoin:miter;stroke-opacity:1" />
        <path
           id="path1094-3-1-1"
           d="m 32.224789,232.44078 a 0.26460979,0.26460979 0 0 0 -0.02634,-10e-4 0.26460979,0.26460979 0 0 0 -0.258489,0.21437 l -0.205569,0.96368 -1.115151,-0.28094 a 0.26460979,0.26460979 0 0 0 -0.05217,-0.008 0.26460979,0.26460979 0 0 0 -0.07608,0.52239 l 1.132887,0.28566 -0.223508,1.04768 a 0.26472097,0.26472097 0 1 0 0.517688,0.11094 l 0.219219,-1.02887 0.819353,0.20658 a 0.26510718,0.26510718 0 1 0 0.130827,-0.51382 l -0.839663,-0.21153 0.209997,-0.98404 a 0.26460979,0.26460979 0 0 0 -0.232996,-0.32243 z"
           style="color:#000000;font-style:normal;font-variant:normal;font-weight:normal;font-stretch:normal;font-size:medium;line-height:normal;font-family:sans-serif;font-variant-ligatures:normal;font-variant-position:normal;font-variant-caps:normal;font-variant-numeric:normal;font-variant-alternates:normal;font-feature-settings:normal;text-indent:0;text-align:start;text-decoration:none;text-decoration-line:none;text-decoration-style:solid;text-decoration-color:#000000;letter-spacing:normal;word-spacing:normal;text-transform:none;writing-mode:lr-tb;direction:ltr;text-orientation:mixed;dominant-baseline:auto;baseline-shift:baseline;text-anchor:start;white-space:normal;shape-padding:0;clip-rule:nonzero;display:inline;overflow:visible;visibility:visible;opacity:1;isolation:auto;mix-blend-mode:normal;color-interpolation:sRGB;color-interpolation-filters:linearRGB;solid-color:#000000;solid-opacity:1;vector-effect:none;fill:#7c7c7c;fill-opacity:1;fill-rule:nonzero;stroke:none;stroke-width:0.52916664;stroke-linecap:round;stroke-linejoin:miter;stroke-miterlimit:4;stroke-dasharray:none;stroke-dashoffset:0;stroke-opacity:1;color-rendering:auto;image-rendering:auto;shape-rendering:auto;text-rendering:auto;enable-background:accumulate" />
        <path
           id="path1090-8-8-6"
           d="m 27.461943,222.76587 c 1.603618,0.7684 3.207234,5.44562 3.340869,7.21628 0.133636,1.77066 0.133636,1.77066 0.133636,1.77066"
           style="fill:none;stroke:#000000;stroke-width:0.26458332px;stroke-linecap:butt;stroke-linejoin:miter;stroke-opacity:1" />
        <path
           id="path1092-6-4-4"
           d="m 28.33057,223.6345 c -0.634765,1.13589 0.23386,5.47902 2.472242,6.71515"
           style="fill:none;stroke:#000000;stroke-width:0.26458332px;stroke-linecap:butt;stroke-linejoin:miter;stroke-opacity:1" />
      </g>
      <g
         transform="translate(-119.8747,-166.89888)"
         style="display:inline"
         id="g1835-3-9">
        <path
           id="path1072-2-0"
           d="m 31.041295,223.05196 c -0.566965,-2.22061 -3.685268,-2.50409 -4.110493,-1.98437 -2.999817,6.75348 6.043116,16.51669 7.039811,13.65439 0.708705,-1.55915 -2.929315,-11.67002 -2.929315,-11.67002 z"
           style="fill:#ffdbb4;fill-opacity:1;stroke:#000000;stroke-width:0.26458332px;stroke-linecap:butt;stroke-linejoin:miter;stroke-opacity:1" />
        <path
           id="path1701-8-6"
           d="m 28.33057,223.6345 -0.14772,0.49876 -0.07087,0.82683 0.01815,0.61211 0.218096,1.0061 0.2008,0.69689 0.295294,0.7087 0.460658,0.82683 0.437034,0.59059 0.531529,0.60239 0.529283,0.34595 0.0021,-0.55856 -0.177176,-0.95675 -0.259858,-0.98037 -0.366165,-1.14574 -0.425225,-0.95676 -0.507904,-1.13392 z"
           style="fill:#f6cba9;fill-opacity:1;stroke:none;stroke-width:0.26458332px;stroke-linecap:butt;stroke-linejoin:miter;stroke-opacity:1" />
        <path
           id="path1094-4-1"
           d="m 32.224789,232.44078 a 0.26460979,0.26460979 0 0 0 -0.02634,-10e-4 0.26460979,0.26460979 0 0 0 -0.258489,0.21437 l -0.205569,0.96368 -1.115151,-0.28094 a 0.26460979,0.26460979 0 0 0 -0.05217,-0.008 0.26460979,0.26460979 0 0 0 -0.07608,0.52239 l 1.132887,0.28566 -0.223508,1.04768 a 0.26472097,0.26472097 0 1 0 0.517688,0.11094 l 0.219219,-1.02887 0.819353,0.20658 a 0.26510718,0.26510718 0 1 0 0.130827,-0.51382 l -0.839663,-0.21153 0.209997,-0.98404 a 0.26460979,0.26460979 0 0 0 -0.232996,-0.32243 z"
           style="color:#000000;font-style:normal;font-variant:normal;font-weight:normal;font-stretch:normal;font-size:medium;line-height:normal;font-family:sans-serif;font-variant-ligatures:normal;font-variant-position:normal;font-variant-caps:normal;font-variant-numeric:normal;font-variant-alternates:normal;font-feature-settings:normal;text-indent:0;text-align:start;text-decoration:none;text-decoration-line:none;text-decoration-style:solid;text-decoration-color:#000000;letter-spacing:normal;word-spacing:normal;text-transform:none;writing-mode:lr-tb;direction:ltr;text-orientation:mixed;dominant-baseline:auto;baseline-shift:baseline;text-anchor:start;white-space:normal;shape-padding:0;clip-rule:nonzero;display:inline;overflow:visible;visibility:visible;opacity:1;isolation:auto;mix-blend-mode:normal;color-interpolation:sRGB;color-interpolation-filters:linearRGB;solid-color:#000000;solid-opacity:1;vector-effect:none;fill:#7c7c7c;fill-opacity:1;fill-rule:nonzero;stroke:none;stroke-width:0.52916664;stroke-linecap:round;stroke-linejoin:miter;stroke-miterlimit:4;stroke-dasharray:none;stroke-dashoffset:0;stroke-opacity:1;color-rendering:auto;image-rendering:auto;shape-rendering:auto;text-rendering:auto;enable-background:accumulate" />
        <path
           id="path1090-2-3"
           d="m 27.461943,222.76587 c 1.603618,0.7684 3.207234,5.44562 3.340869,7.21628 0.133636,1.77066 0.133636,1.77066 0.133636,1.77066"
           style="fill:none;stroke:#000000;stroke-width:0.26458332px;stroke-linecap:butt;stroke-linejoin:miter;stroke-opacity:1" />
        <path
           id="path1092-2-5"
           d="m 28.33057,223.6345 c -0.634765,1.13589 0.23386,5.47902 2.472242,6.71515"
           style="fill:none;fill-opacity:1;stroke:#000000;stroke-width:0.26458332px;stroke-linecap:butt;stroke-linejoin:miter;stroke-opacity:1" />
      </g>
      <path
         style="display:inline;fill:#f6cba9;fill-opacity:1;stroke:none;stroke-width:0.26458332px;stroke-linecap:butt;stroke-linejoin:miter;stroke-opacity:1"
         d="m -92.196797,54.079394 v 10e-4 c -0.337389,0.011 -0.574558,0.10395 -0.633037,0.16795 -0.09789,0.22281 -0.181729,0.4493 -0.253732,0.67851 1.106807,1.14268 3.0593,2.33625 3.677811,1.59163 0.1645,-0.19803 0.266655,-0.43304 0.326597,-0.68264 -0.355704,-0.83978 -1.129467,-1.33406 -1.902728,-1.57665 -0.437512,-0.13728 -0.871169,-0.19103 -1.214911,-0.17983 z"
         id="path2845-4-3" />
      <path
         style="display:inline;fill:#942f4f;fill-opacity:1;stroke:none;stroke-width:0.26458332px;stroke-linecap:butt;stroke-linejoin:miter;stroke-opacity:1"
         d="m -79.550404,82.710884 1.202711,-0.35079 0.233863,2.17156 -0.734992,0.51784 -1.002262,-0.90204 z"
         id="path1091-5-6" />
      <path
         style="display:inline;fill:#942f4f;fill-opacity:1;stroke:none;stroke-width:0.26458332px;stroke-linecap:butt;stroke-linejoin:miter;stroke-opacity:1"
         d="m -57.367034,82.326684 1.202712,0.43431 0.06682,1.35305 -0.818512,0.73499 -0.718289,-0.7684 z"
         id="path1089-3-1" />
      <path
         style="display:inline;fill:#ffdbb4;fill-opacity:1;stroke:#000000;stroke-width:0.26458332px;stroke-linecap:butt;stroke-linejoin:miter;stroke-opacity:1"
         d="m -80.75416,76.333994 c 1.653646,0.8977 2.456846,10.39435 2.456846,10.39435 l 6.648064,2.33019 3.651787,10.80448 3.212799,-10.67783 c 0,0 8.268229,-2.22061 7.89025,-3.63802 -0.377976,-1.41741 0.141743,-6.89806 0.519719,-8.03199 0.377975,-1.13393 -11.292039,2.83482 -11.292039,2.83482 z"
         id="path1087-7-9" />
      <path
         style="display:inline;fill:#f6cba9;fill-opacity:1;stroke:none;stroke-width:0.26458332px;stroke-linecap:butt;stroke-linejoin:miter;stroke-opacity:1"
         d="m -78.701499,77.102274 c 0.188436,0.81706 0.377894,1.63649 0.59273,2.53887 1.543582,6.48361 8.421016,11.05572 10.21488,11.15022 0.447873,0.0236 1.449726,-0.24594 2.70061,-0.70952 l 0.302824,-1.00614 0.07235,-0.0176 c 0,0 2.061411,-0.55543 4.074171,-1.2852 0.554257,-0.20096 1.099891,-0.41581 1.601451,-0.63458 0.760172,-0.46663 1.47986,-0.95958 2.12597,-1.4671 0.0032,-0.0317 7.93e-4,-0.0616 -0.0067,-0.0899 -0.101904,-0.38216 -0.136377,-0.99294 -0.134876,-1.72858 0.0016,-0.73563 0.04233,-1.59 0.107487,-2.43706 0.06516,-0.84705 0.153685,-1.68616 0.250113,-2.38487 0.09619,-0.69703 0.199279,-1.24722 0.300757,-1.55287 -0.02738,-0.014 -0.119864,-0.0352 -0.251664,-0.0352 -0.263596,0 -0.684969,0.0604 -1.201475,0.16589 -1.033018,0.211 -2.455254,0.60106 -3.888653,1.02577 -2.866797,0.84942 -5.783109,1.84175 -5.783109,1.84175 l -0.03928,0.0134 -2.399853,-0.73639 -2.115116,0.59687 c 0,0 -0.242242,-0.63114 -0.547253,-1.41439 z"
         id="path1650-4-0" />
      <path
         style="display:inline;fill:#ba5575;fill-opacity:1;stroke:#000000;stroke-width:0.26458332px;stroke-linecap:butt;stroke-linejoin:miter;stroke-opacity:1"
         d="m -71.64925,89.058534 c 4.023892,-1.91411 2.906557,3.27405 3.390982,6.58151 0.484426,3.30746 0.818512,-0.0835 0.902036,-1.45328 0.08352,-1.36975 -0.02996,-4.35647 0.63708,-5.07476 0.667046,-0.71829 13.321019,0.34483 13.840738,0.77008 0.519715,0.42522 1.257866,1.16781 2.507001,1.19221 1.249137,0.0244 2.726309,8.02355 2.726309,8.02355 l -4.453737,22.876746 -0.557567,7.72561 -30.134639,-0.13364 -1.33635,-12.96257 -2.83977,-14.0318 c 0,0 -0.35433,-12.087706 0.590611,-12.064086 0.944941,0.0236 1.707962,-0.12009 3.050968,-0.69788 1.343007,-0.57779 11.676338,-0.75169 11.676338,-0.75169 z"
         id="path1081-1-6" />
      <path
         style="display:inline;fill:#ae375d;fill-opacity:1;stroke:none;stroke-width:0.26458332px;stroke-linecap:butt;stroke-linejoin:miter;stroke-opacity:1"
         d="m -52.098941,115.81903 c -0.80181,2.67249 -3.140417,10.85193 -9.755339,13.11949 -6.614919,2.26757 -8.552624,2.91545 -8.552624,2.91545 l 18.638795,1.77927 z"
         id="path1415-0-3" />
      <path
         style="display:inline;fill:#ae375d;fill-opacity:1;stroke:none;stroke-width:0.26458332px;stroke-linecap:butt;stroke-linejoin:miter;stroke-opacity:1"
         d="m -64.349401,89.001294 c -0.641654,-0.003 -1.188477,0.0131 -1.591635,0.0512 -0.201581,0.019 -0.367041,0.0448 -0.486276,0.0739 -0.119234,0.0291 -0.191936,0.0725 -0.195336,0.0765 -0.08564,0.0922 -0.163806,0.25392 -0.231511,0.45682 0.622925,3.13848 1.881535,6.7122 3.165182,8.59224 2.046401,2.997166 5.290433,5.675726 7.502385,5.453926 1.961017,-0.19663 4.570481,-10.276026 5.143354,-12.583726 -0.910251,-0.21706 -1.5044,-0.79899 -1.919264,-1.13843 0.0132,0.0108 -0.06625,-0.031 -0.181901,-0.0605 -0.115646,-0.0295 -0.275846,-0.0618 -0.472321,-0.0956 -0.392948,-0.0677 -0.931299,-0.14108 -1.564761,-0.21498 -1.266929,-0.14791 -2.91832,-0.29742 -4.572331,-0.41186 -1.654014,-0.11442 -3.312282,-0.19447 -4.595585,-0.19947 z"
         id="path1379-6-7" />
      <path
         style="display:inline;fill:#ae375d;fill-opacity:1;stroke:none;stroke-width:0.26458332px;stroke-linecap:butt;stroke-linejoin:miter;stroke-opacity:1"
         d="m -70.122175,88.779604 c -0.07464,-0.002 -0.153244,5.3e-4 -0.236681,0.009 -0.333737,0.0334 -0.738888,0.15382 -1.232482,0.38861 l -0.02739,0.0139 h -0.02739 c 0,0 -1.164431,0.0211 -2.713013,0.0667 -0.331912,1.02392 -3.601003,11.178776 -3.219958,13.147516 0.400904,2.07134 2.572432,4.64414 4.476729,5.88026 1.904293,1.23612 0.53413,-4.34349 1.06867,-7.98504 0.420233,-2.862826 2.853243,-3.370496 4.126362,-2.385896 l 0.07545,-0.69712 0.0093,-0.0444 c -0.0065,10e-4 -0.01217,0.004 -0.01913,0.004 -0.08107,0.006 -0.145971,-0.0441 -0.185521,-0.0935 -0.0791,-0.0988 -0.128066,-0.24047 -0.185518,-0.46871 -0.05744,-0.22823 -0.11475,-0.53886 -0.175699,-0.95498 -0.245764,-1.67797 -0.08893,-3.80517 -0.366903,-5.24412 -0.138986,-0.71947 -0.384794,-1.24743 -0.800984,-1.48622 -0.156072,-0.0896 -0.341929,-0.14299 -0.565856,-0.14986 z"
         id="path1081-3-43-6" />
      <path
         style="display:inline;fill:#ae375d;fill-opacity:1;stroke:none;stroke-width:0.26458332px;stroke-linecap:butt;stroke-linejoin:miter;stroke-opacity:1"
         d="m -67.713766,122.72171 c -0.494604,0.91179 -1.266238,1.79392 -2.398302,2.46807 -2.973375,1.77066 -10.122879,3.4749 -12.027173,3.50831 -1.904296,0.0334 -0.668179,2.90628 -0.668179,2.90628 l 14.987718,-0.40566 z"
         id="path1246-1-4" />
      <path
         style="display:inline;fill:#ae375d;fill-opacity:1;stroke:none;stroke-width:0.26458332px;stroke-linecap:butt;stroke-linejoin:miter;stroke-opacity:1"
         d="m -81.254249,110.25634 c 4.810852,2.60588 16.83798,6.81537 28.664656,1.40317 -7.015824,7.61718 -18.642049,9.88897 -28.664656,-1.40317 z"
         id="path1244-3-6" />
      <path
         style="display:inline;fill:#3a3a3a;fill-opacity:1;stroke:#000000;stroke-width:0.26458332px;stroke-linecap:butt;stroke-linejoin:miter;stroke-opacity:1"
         d="m -87.697848,67.935914 c 1.498703,39.863036 4.024529,26.17447 7.888406,45.959466 1.177555,4.52939 0.827085,1.78988 1.161172,1.03818 -0.515229,-18.765966 -5.537658,-3.18405 -7.449675,-46.787326 -0.324114,0.32192 -0.904033,0.21242 -1.599903,-0.21032 z"
         id="path1179-4-1" />
      <path
         style="display:inline;fill:#97d0f9;fill-opacity:1;stroke:#000000;stroke-width:0.26458332px;stroke-linecap:butt;stroke-linejoin:miter;stroke-opacity:1"
         d="m -24.648317,104.82395 c 0.926263,-1.16644 0.936429,-2.14524 0.878644,-3.0615 -1.538113,-1.46409 -4.785268,-2.854186 -6.668167,-3.455766 -3.589872,-1.02421 -6.160646,-3.25497 -9.95014,-4.53747 -3.663255,-0.92384 -1.465615,3.24345 0.770943,3.38614 5.08691,2.36275 9.945756,5.169796 14.96872,7.668596 z"
         id="path853-8-3" />
      <path
         style="display:inline;fill:#71aad3;fill-opacity:1;stroke:none;stroke-width:0.26458335px;stroke-linecap:butt;stroke-linejoin:miter;stroke-opacity:1"
         d="m -37.297824,96.811154 -0.05788,1.28261 c 4.264155,2.099006 8.402759,4.433666 12.650909,6.552046 0.80608,-1.06721 0.852493,-1.95152 0.800984,-2.81429 -0.553953,-0.51901 -1.335119,-1.03322 -2.192631,-1.50637 -1.823985,-0.0464 -4.141494,-0.576726 -6.336565,-1.405086 -4.252402,-1.60469 -4.864819,-2.10891 -4.864819,-2.10891 z"
         id="path1931-9-0" />
      <path
         style="display:inline;fill:#97d0f9;fill-opacity:1;stroke:#000000;stroke-width:0.26458332px;stroke-linecap:butt;stroke-linejoin:miter;stroke-opacity:1"
         d="m -49.500254,91.476664 1.370166,-2.81119 c 0,0 5.220795,5.69326 6.614583,6.16573 1.393785,0.47247 8.248653,4.24715 11.339285,5.362536 4.04554,1.46001 7.056758,3.42326 7.34024,5.98641 1.1103,4.34673 0.337402,22.07832 0.337402,22.07832 l -31.711336,0.005 1.069078,-5.62937 4.693922,-20.06191 -1.218705,-7.150556 -0.496093,-3.02381 z"
         id="path857-4-4" />
      <path
         style="display:inline;fill:#71aad3;fill-opacity:1;stroke:none;stroke-width:0.26458332px;stroke-linecap:butt;stroke-linejoin:miter;stroke-opacity:1"
         d="m -35.113673,125.22571 c 3.823308,-3.84327 4.54597,-15.03163 4.54597,-15.03163 -0.862256,3.60135 -3.970115,10.60692 -6.088255,12.15035 -2.118141,1.54342 1.542285,2.88128 1.542285,2.88128 z"
         id="path1576-1-8-4" />
      <path
         style="display:inline;fill:#97d0f9;fill-opacity:1;stroke:none;stroke-width:0.26458332px;stroke-linecap:butt;stroke-linejoin:miter;stroke-opacity:1"
         d="m -34.8773,123.99443 0.637837,-0.98038 1.145738,-2.62221 0.980377,-2.56315 0.862258,-2.96475 0.236236,0.2008 -0.968565,5.58696 -1.6064,3.03562 -1.523854,1.53839 z"
         id="path1982-1-3" />
      <path
         style="display:inline;fill:#71aad3;fill-opacity:1;stroke:none;stroke-width:0.26458332px;stroke-linecap:butt;stroke-linejoin:miter;stroke-opacity:1"
         d="m -48.794126,94.056184 c 0.153551,-2.03163 0.664038,-3.02836 3.191753,0.0427 2.527716,3.07106 5.858629,6.094866 8.906063,7.157926 3.241567,1.17465 0.102222,0.0691 -1.063059,-1.559146 -0.803198,-1.15756 -4.65383,-5.55153 -4.65383,-5.55153 l -4.653833,-4.60658 -2.267858,1.15755 z"
         id="path1869-5-2" />
      <path
         style="display:inline;fill:#71aad3;fill-opacity:1;stroke:none;stroke-width:0.26458332px;stroke-linecap:butt;stroke-linejoin:miter;stroke-opacity:1"
         d="m -41.598132,99.966474 c 2.639285,1.002256 3.374277,1.737246 3.140417,2.973366 -0.23386,1.23612 -3.608139,11.526 -7.750816,14.56619 -4.142679,3.04019 -3.274052,4.51017 -3.975634,5.24516 -0.701582,0.73499 -2.839739,2.37202 -3.207234,2.37202 -0.03341,-0.96885 0.434311,-4.74403 0.434311,-4.74403 z"
         id="path1417-21-0" />
      <path
         style="display:inline;fill:#97d0f9;fill-opacity:1;stroke:#000000;stroke-width:0.26458332px;stroke-linecap:butt;stroke-linejoin:miter;stroke-opacity:1"
         d="m -48.496253,95.728904 c -1.634059,-1.33982 -0.602303,-6.0553 1.821955,-4.63814 1.529514,1.55118 2.380356,3.6683 4.159793,5.02805 1.926018,1.91285 4.054141,3.71789 6.598912,4.742336 -2.383703,-2.284976 -4.608576,-4.817156 -5.979081,-7.848976 -1.260488,-1.97913 -3.243106,-3.33823 -4.743257,-5.06196 -2.422472,-1.65516 -3.520768,1.72295 -3.698047,3.57293 -0.223686,1.59521 0.376632,3.39077 1.839725,4.20576 z"
         id="path851-0-2" />
      <path
         style="display:inline;fill:#71aad3;fill-opacity:1;stroke:none;stroke-width:0.26458332px;stroke-linecap:butt;stroke-linejoin:miter;stroke-opacity:1"
         d="m -34.813633,128.87836 c 4.587108,-2.8891 7.797829,-13.6312 7.797829,-13.6312 -1.647118,3.31666 -6.245384,9.44795 -8.655449,10.47764 -2.410063,1.02969 0.85762,3.15356 0.85762,3.15356 z"
         id="path1576-5-7" />
      <path
         style="display:inline;fill:#97d0f9;fill-opacity:1;stroke:#000000;stroke-width:0.26458332px;stroke-linecap:butt;stroke-linejoin:miter;stroke-opacity:1"
         d="m -25.711376,113.13942 c 1.322916,-1.32291 2.315104,-8.40997 2.315104,-8.40997 2.55134,1.6064 1.322917,24.47396 1.322917,24.47396 l -13.465403,-0.33073 c 0.708705,-1.98437 4.630208,-5.76413 7.323288,-10.96131"
         id="path855-1-5" />
      <path
         style="display:inline;fill:none;stroke:#000000;stroke-width:0.26458332px;stroke-linecap:butt;stroke-linejoin:miter;stroke-opacity:1"
         d="m -36.29471,126.46308 c 2.551338,-3.30729 5.102678,-10.91406 5.338914,-13.18192"
         id="path863-9-1" />
      <path
         style="display:inline;fill:#97d0f9;fill-opacity:1;stroke:#000000;stroke-width:0.26458332px;stroke-linecap:butt;stroke-linejoin:miter;stroke-opacity:1"
         d="m -51.059404,121.28954 c -0.543343,0.59058 -1.181177,4.46484 -0.73233,7.15792 0.448847,2.69308 0.401601,2.78757 0.401601,2.78757 l 16.678198,-1.08668 c 0.897694,-2.26786 -0.4016,-5.57515 -0.661458,-5.83501 -0.259858,-0.25985 -15.686011,-3.0238 -15.686011,-3.0238 z"
         id="path861-26-0" />
      <path
         style="display:inline;fill:#71aad3;fill-opacity:1;stroke:none;stroke-width:0.26458332px;stroke-linecap:butt;stroke-linejoin:miter;stroke-opacity:1"
         d="m -50.985876,121.43704 c -0.09623,0.1259 -0.232789,0.42508 -0.351917,0.87539 -0.01561,0.059 -0.03024,0.12606 -0.04548,0.18914 2.224484,1.96614 8.528079,5.44329 9.79682,5.56607 1.167966,0.11303 4.958,-0.91581 6.771679,-1.88826 -0.106809,-0.43067 -0.229391,-0.81616 -0.343132,-1.11724 -0.07097,-0.18786 -0.139177,-0.34422 -0.195337,-0.45889 -0.05399,-0.1102 -0.103354,-0.17959 -0.109553,-0.18758 -0.0062,-0.003 -0.01024,-0.006 -0.02119,-0.01 -0.03165,-0.011 -0.08073,-0.024 -0.142626,-0.0408 -0.123804,-0.0335 -0.301151,-0.0771 -0.523483,-0.12712 -0.02334,-0.005 -0.07076,-0.0142 -0.09508,-0.0196 l -5.577432,1.34513 -5.291667,-3.04736 c 0,0 -0.940691,-0.38486 -2.011764,-0.74363 -0.906981,-0.16395 -1.823191,-0.3288 -1.859833,-0.33537 z"
         id="path1506-3-0" />
      <path
         style="display:inline;fill:#97d0f9;fill-opacity:1;stroke:#000000;stroke-width:0.26458332px;stroke-linecap:butt;stroke-linejoin:miter;stroke-opacity:1"
         d="m -52.098841,121.97462 c 3.165552,0.85044 9.898253,4.7247 10.323476,4.7247 0.425225,0 6.142392,-0.95298 7.252419,-1.96075 0.212611,-0.11812 -0.4016,-2.64584 -0.850447,-3.23642 -0.448847,-0.59059 -5.079056,-1.98438 -6.26023,-2.1025 -1.181177,-0.11811 -8.291854,-0.23623 -8.976937,-0.0709 -0.68508,0.16537 -1.488281,2.64584 -1.488281,2.64584 z"
         id="path859-17-5" />
      <path
         style="display:inline;fill:none;stroke:#000000;stroke-width:0.26458332px;stroke-linecap:butt;stroke-linejoin:miter;stroke-opacity:1"
         d="m -36.541783,120.90138 c 0.325808,0.82746 0.689946,2.31753 0.589719,2.5848 -0.1661,0.39176 -4.710625,2.50565 -5.445617,2.17157 -0.734991,-0.33409 -6.357744,-3.29074 -8.018084,-3.90882 -0.769345,-0.5374 -0.904697,-2.015 -0.904697,-2.015"
         id="path897-7-5" />
      <path
         style="display:inline;fill:#97d0f9;fill-opacity:1;stroke:#000000;stroke-width:0.26458332px;stroke-linecap:butt;stroke-linejoin:miter;stroke-opacity:1"
         d="m -48.248206,95.280054 c 0.897691,0.37798 7.284839,3.33336 7.802673,4.21869 -0.231298,6.645146 -1.52804,9.287816 -6.481286,16.286736 -1.748634,2.64682 -2.833293,3.56693 -3.943598,5.2442 -1.110306,1.67727 -2.922519,4.65383 -3.017015,5.5279 0,-2.31511 0.489299,-3.82701 0.465674,-4.46485 -0.02363,-0.63783 0.944941,-7.5359 1.228424,-8.48084 0.283482,-0.94494 0.897694,-4.65383 1.204799,-5.24442 0.307107,-0.59058 0.968565,-3.85063 1.015812,-5.835 0.04725,-1.98438 0.02363,-6.307476 -0.165365,-7.228796 -0.188989,-0.92131 -0.07087,-2.12021 -0.188989,-2.59268 1.168694,-2.06968 0.108463,1.5852 2.078871,2.56906 z"
         id="path849-2-9" />
      <path
         style="display:inline;fill:#f0f0f0;fill-opacity:1;stroke:#000000;stroke-width:0.26458332px;stroke-linecap:butt;stroke-linejoin:miter;stroke-opacity:1"
         d="m -50.065002,95.950224 c 0.120026,1.54239 0.132633,4.896566 0.0925,6.582026 -0.04725,1.98437 -0.708853,5.24472 -1.01596,5.8353 -0.307105,0.59059 -0.92161,4.29918 -1.205095,5.24412 -0.269883,0.89961 -1.150454,7.13351 -1.214911,8.2858 0.242546,-0.48472 0.579077,-0.95446 1.049546,-1.34048 1.842635,-1.51191 5.764215,-8.31504 7.039883,-10.34666 1.27567,-2.03162 3.260042,-9.44985 2.976562,-10.15855 -0.28348,-0.708706 -1.989812,-0.941356 -3.92121,-1.700666 -1.206299,-0.47426 -2.785501,-1.46154 -3.801315,-2.40089 z"
         id="path849-0-6-7" />
      <path
         style="display:inline;fill:#97d0f9;fill-opacity:1;stroke:#000000;stroke-width:0.26458332px;stroke-linecap:butt;stroke-linejoin:miter;stroke-opacity:1"
         d="m -47.964726,95.398174 c -1.634059,-1.33982 -1.13383,-5.72457 1.290426,-4.30741 1.529516,1.55118 2.380358,3.6683 4.159792,5.02805 1.926018,1.91285 4.054142,3.71789 6.598915,4.742336 -2.383706,-2.284976 -4.608576,-4.817156 -5.979084,-7.848976 -1.260485,-1.97913 -3.243106,-3.33823 -4.743254,-5.06196 -2.422472,-1.65516 -3.296346,1.33316 -3.733482,3.12408 -0.22369,1.59521 -0.332076,2.97736 2.406687,4.32388 z"
         id="path851-8-9-4" />
      <path
         style="display:inline;fill:#f0f0f0;fill-opacity:1;stroke:none;stroke-width:0.26458332px;stroke-linecap:butt;stroke-linejoin:miter;stroke-opacity:1"
         d="m -48.010864,87.601894 c -0.0511,0.003 -0.100433,0.009 -0.148828,0.0171 v -0.001 c -0.387639,0.068 -0.709168,0.31694 -0.984438,0.68213 -0.548283,0.72739 -0.87825,1.90169 -1.096055,2.7926 -1.01e-4,10e-4 9.8e-5,10e-4 0,0.002 -0.09179,0.6548 -0.156417,1.25606 -0.02532,1.82521 l 0.481626,-0.76998 0.449067,-1.45262 0.637688,-1.26401 0.224274,-0.47232 0.360704,-0.16536 0.655257,0.2005 0.862478,0.64958 0.984438,1.08778 0.692462,0.80202 0.815456,1.01596 1.192692,-0.14159 -0.295074,-0.60255 -0.28267,-0.54829 c -1.047642,-1.08532 -2.231671,-2.06255 -3.225642,-3.19877 -7.93e-4,-5.3e-4 -7.93e-4,5.3e-4 -0.0016,0 -0.512958,-0.35 -0.938853,-0.47752 -1.296562,-0.45837 z"
         id="path2934-7-1" />
      <path
         style="display:inline;fill:none;stroke:#000000;stroke-width:0.26458332px;stroke-linecap:butt;stroke-linejoin:miter;stroke-opacity:1"
         d="m -50.327077,93.018104 c 0.921316,-0.99218 1.302216,-3.89544 2.080617,-4.17672 1.021419,-0.36913 3.507912,2.78127 4.819203,4.66051 1.311291,1.87923 1.611969,2.22167 1.611969,2.22167 0.208803,-0.91874 -1.878891,-4.86666 -1.878891,-4.86666"
         id="path919-8-5" />
      <ellipse
         style="display:inline;opacity:1;fill:#919192;fill-opacity:1;stroke:#100000;stroke-width:0.2670334;stroke-linecap:round;stroke-linejoin:round;stroke-miterlimit:4;stroke-dasharray:none;stroke-opacity:1;paint-order:fill markers stroke"
         id="path937-7-1"
         cx="91.876556"
         cy="112.33753"
         rx="0.91881794"
         ry="0.90203464"
         transform="matrix(0.62853358,0.77778245,-0.88315993,0.46907199,0,0)" />
      <path
         style="display:inline;fill:#97d0f9;fill-opacity:1;stroke:#000000;stroke-width:0.26458332px;stroke-linecap:butt;stroke-linejoin:miter;stroke-opacity:1"
         d="m -110.76576,104.82395 c -0.92627,-1.16644 -0.93643,-2.14524 -0.87865,-3.0615 1.53811,-1.46409 4.78527,-2.854186 6.66817,-3.455766 3.58987,-1.02421 6.160646,-3.25497 9.950141,-4.53747 3.663253,-0.92384 1.465615,3.24345 -0.770942,3.38614 -5.086909,2.36275 -9.945759,5.169796 -14.968719,7.668596 z"
         id="path853-0-9-9" />
      <path
         style="display:inline;fill:#71aad3;fill-opacity:1;stroke:none;stroke-width:0.26458332px;stroke-linecap:butt;stroke-linejoin:miter;stroke-opacity:1"
         d="m -94.14655,93.770514 c -0.230235,0.004 -0.510195,0.0433 -0.845426,0.12764 h -0.0021 c -1.155802,0.39195 -2.193301,0.87799 -3.189469,1.38803 -0.241916,0.61174 -0.765312,1.24703 -1.729094,1.86035 -2.598581,1.65364 -6.236831,3.803386 -6.236831,3.803386 l 6.70502,-2.165246 c 1.187485,-0.60097 2.382314,-1.18836 3.590995,-1.74976 l 0.02377,-0.01 0.02325,-0.002 c 0.519681,-0.0332 1.054716,-0.30449 1.502234,-0.68729 0.447519,-0.38281 0.806971,-0.87611 0.982369,-1.3224 0.0877,-0.22315 0.128256,-0.43333 0.118856,-0.60927 -0.0094,-0.17593 -0.0652,-0.31413 -0.175699,-0.42013 -0.137953,-0.13231 -0.384187,-0.22069 -0.767913,-0.21342 z"
         id="path2584-5-7" />
      <path
         style="display:inline;fill:#97d0f9;fill-opacity:1;stroke:#000000;stroke-width:0.26458332px;stroke-linecap:butt;stroke-linejoin:miter;stroke-opacity:1"
         d="m -85.913824,91.476664 -1.370166,-2.81119 c 0,0 -5.220797,5.69326 -6.614585,6.16573 -1.393785,0.47247 -8.248655,4.24715 -11.339285,5.362536 -4.04554,1.46001 -7.05676,3.42326 -7.34024,5.98641 -1.1103,4.34673 -0.3374,22.07832 -0.3374,22.07832 l 31.711336,0.005 -1.069078,-5.62937 -4.693925,-20.06191 1.218705,-7.150556 0.496094,-3.02381 z"
         id="path857-2-3-0" />
      <path
         style="display:inline;fill:#71aad3;fill-opacity:1;stroke:none;stroke-width:0.26458332px;stroke-linecap:butt;stroke-linejoin:miter;stroke-opacity:1"
         d="m -98.092229,99.866244 c 4.6104,-0.60136 9.245861,-6.59325 10.089424,-6.28083 0.451016,0.16704 1.169306,0.96885 1.637028,0.43431 0.46772,-0.53454 0.400902,-3.67496 0.400902,-3.67496 l -2.004521,-1.10248 -3.307461,3.34087 -3.674955,4.27631 z"
         id="path2580-1-6" />
      <path
         style="display:inline;fill:#71aad3;fill-opacity:1;stroke:none;stroke-width:0.26458332px;stroke-linecap:butt;stroke-linejoin:miter;stroke-opacity:1"
         d="m -86.281915,121.10062 1.015442,2.8112 c 1.864789,1.19279 3.04087,2.22098 3.670578,2.9931 l -0.806151,-4.24315 -0.127125,-0.54312 -0.681611,-0.6165 z"
         id="path2544-8-5" />
      <path
         style="display:inline;fill:#71aad3;fill-opacity:1;stroke:none;stroke-width:0.26458332px;stroke-linecap:butt;stroke-linejoin:miter;stroke-opacity:1"
         d="m -104.3068,111.6039 c -0.25986,1.13392 0,2.66945 0.11812,3.1183 0.11811,0.44885 0.49609,1.81901 0.49609,1.81901 l 0.61421,1.81901 0.68508,1.74814 0.87407,2.17336 0.99219,1.86626 1.464659,1.46466 c 0,0 1.559152,3.14192 -1.110309,0.85044 -2.66945,-2.29148 -6.00037,-11.55189 -4.13411,-14.85918 z"
         id="path2452-2-0" />
      <path
         style="display:inline;fill:#97d0f9;fill-opacity:1;stroke:#000000;stroke-width:0.26458332px;stroke-linecap:butt;stroke-linejoin:miter;stroke-opacity:1"
         d="m -86.917825,95.728904 c 1.634059,-1.33982 0.6023,-6.0553 -1.821956,-4.63814 -1.529515,1.55118 -2.380357,3.6683 -4.159792,5.02805 -1.926019,1.91285 -4.054142,3.71789 -6.598914,4.742336 2.383704,-2.284976 4.608577,-4.817156 5.979082,-7.848976 1.260487,-1.97913 3.243107,-3.33823 4.743256,-5.06196 2.422471,-1.65516 3.520767,1.72295 3.698046,3.57293 0.223689,1.59521 -0.376629,3.39077 -1.839722,4.20576 z"
         id="path851-6-7-9" />
      <path
         style="display:inline;fill:#97d0f9;fill-opacity:1;stroke:#000000;stroke-width:0.26458332px;stroke-linecap:butt;stroke-linejoin:miter;stroke-opacity:1"
         d="m -109.7027,113.13942 c -1.32292,-1.32291 -2.31511,-8.40997 -2.31511,-8.40997 -2.55134,1.6064 -1.32291,24.47396 -1.32291,24.47396 l 13.465399,-0.33073 c -0.708709,-1.98437 -4.630209,-5.76413 -7.323289,-10.96131"
         id="path855-7-31-1" />
      <path
         style="display:inline;fill:#71aad3;fill-opacity:1;stroke:none;stroke-width:0.26458332px;stroke-linecap:butt;stroke-linejoin:miter;stroke-opacity:1"
         d="m -106.4197,119.57617 c 0.63748,2.42692 2.37238,6.51457 4.15013,9.22269 l 2.15284,-0.0532 c -0.38624,-0.94544 -1.43153,-2.29913 -2.78122,-4.06848 -1.10916,-1.45401 -2.37283,-3.16437 -3.52175,-5.10098 z"
         id="path2401-2-8" />
      <path
         style="display:inline;fill:none;stroke:#000000;stroke-width:0.26458332px;stroke-linecap:butt;stroke-linejoin:miter;stroke-opacity:1"
         d="m -99.11937,126.46308 c -2.55134,-3.30729 -5.10268,-10.91406 -5.33891,-13.18192"
         id="path863-8-1-1" />
      <path
         style="display:inline;fill:#97d0f9;fill-opacity:1;stroke:#000000;stroke-width:0.26458332px;stroke-linecap:butt;stroke-linejoin:miter;stroke-opacity:1"
         d="m -84.354674,121.28954 c 0.543343,0.59058 1.181174,4.46484 0.732327,7.15792 -0.448847,2.69308 -0.401598,2.78757 -0.401598,2.78757 l -16.678195,-1.08668 c -0.8977,-2.26786 0.4016,-5.57515 0.66145,-5.83501 0.259862,-0.25985 15.686016,-3.0238 15.686016,-3.0238 z"
         id="path861-8-7-6" />
      <path
         style="display:inline;fill:#71aad3;fill-opacity:1;stroke:none;stroke-width:0.26458332px;stroke-linecap:butt;stroke-linejoin:miter;stroke-opacity:1"
         d="m -84.429313,121.43704 c -0.09539,0.0171 -3.807124,0.68205 -7.646561,1.39629 -0.02037,0.004 -0.03958,0.008 -0.05995,0.0114 l -1.900658,1.58078 -4.293795,-0.3824 c -0.31612,0.0657 -0.703837,0.1427 -0.933276,0.1943 -0.222329,0.05 -0.39968,0.0935 -0.523482,0.12712 -0.0619,0.0168 -0.110461,0.0297 -0.142111,0.0408 -0.01039,0.004 -0.01561,0.007 -0.0217,0.0103 -0.0062,0.008 -0.05709,0.0773 -0.111104,0.18759 -0.0562,0.11467 -0.12282,0.27103 -0.19379,0.45889 -0.073,0.19321 -0.14975,0.42116 -0.22376,0.67282 2.138542,0.98223 5.976628,1.74417 6.822327,1.6676 0.931813,-0.0843 7.875477,-2.06669 9.901204,-3.36568 -0.08426,-0.66009 -0.196615,-1.25904 -0.319879,-1.72496 -0.119134,-0.45033 -0.257236,-0.74901 -0.353465,-0.87488 z"
         id="path1455-6-4-8" />
      <path
         style="display:inline;fill:#97d0f9;fill-opacity:1;stroke:#000000;stroke-width:0.26458332px;stroke-linecap:butt;stroke-linejoin:miter;stroke-opacity:1"
         d="m -83.31524,121.97462 c -3.165549,0.85044 -9.898252,4.7247 -10.323474,4.7247 -0.425225,0 -6.142393,-0.95298 -7.252416,-1.96075 -0.21261,-0.11812 0.4016,-2.64584 0.85044,-3.23642 0.448851,-0.59059 5.079059,-1.98438 6.260233,-2.1025 1.181177,-0.11811 8.291853,-0.23623 8.976936,-0.0709 0.68508,0.16537 1.488281,2.64584 1.488281,2.64584 z"
         id="path859-1-26-9" />
      <path
         style="display:inline;fill:none;stroke:#000000;stroke-width:0.26458332px;stroke-linecap:butt;stroke-linejoin:miter;stroke-opacity:1"
         d="m -98.872296,120.90138 c -0.325809,0.82746 -0.689946,2.31753 -0.589721,2.5848 0.1661,0.39176 4.710627,2.50565 5.445618,2.17157 0.734992,-0.33409 6.357744,-3.29074 8.018083,-3.90882 0.769345,-0.5374 0.904701,-2.015 0.904701,-2.015"
         id="path897-8-3-1" />
      <path
         style="display:inline;fill:#97d0f9;fill-opacity:1;stroke:#000000;stroke-width:0.26458332px;stroke-linecap:butt;stroke-linejoin:miter;stroke-opacity:1"
         d="m -87.165872,95.280054 c -0.897693,0.37798 -7.28484,3.33336 -7.802675,4.21869 0.231299,6.645146 1.52804,9.287816 6.481286,16.286736 1.748633,2.64682 2.833295,3.56693 3.943598,5.2442 1.110305,1.67727 2.922519,4.65383 3.017015,5.5279 0,-2.31511 -0.4893,-3.82701 -0.465675,-4.46485 0.02363,-0.63783 -0.944941,-7.5359 -1.228421,-8.48084 -0.283485,-0.94494 -0.897697,-4.65383 -1.204801,-5.24442 -0.307105,-0.59058 -0.968566,-3.85063 -1.01581,-5.835 -0.04725,-1.98438 -0.02363,-6.307476 0.165362,-7.228796 0.188992,-0.92131 0.07087,-2.12021 0.188992,-2.59268 -1.168693,-2.06968 -0.108466,1.5852 -2.078871,2.56906 z"
         id="path849-4-0-3" />
      <path
         style="display:inline;fill:#f0f0f0;fill-opacity:1;stroke:#000000;stroke-width:0.26458332px;stroke-linecap:butt;stroke-linejoin:miter;stroke-opacity:1"
         d="m -85.349079,95.950224 c -0.120025,1.54238 -0.132632,4.896566 -0.0925,6.582016 0.04725,1.98437 0.708853,5.24473 1.01596,5.83531 0.307105,0.59059 0.92161,4.29918 1.205096,5.24412 0.269882,0.89961 1.150453,7.13351 1.214911,8.2858 -0.242547,-0.48472 -0.579078,-0.95446 -1.049547,-1.34049 -1.842635,-1.51191 -5.764216,-8.31503 -7.039883,-10.34665 -1.27567,-2.03162 -3.260042,-9.44985 -2.976562,-10.15856 0.28348,-0.708696 1.989812,-0.941356 3.921209,-1.700666 1.206299,-0.47425 2.785502,-1.46153 3.801314,-2.40088 z"
         id="path849-0-8-9-3" />
      <path
         style="display:inline;fill:#97d0f9;fill-opacity:1;stroke:#000000;stroke-width:0.26458332px;stroke-linecap:butt;stroke-linejoin:miter;stroke-opacity:1"
         d="m -87.449354,95.398174 c 1.634058,-1.33982 1.133832,-5.72457 -1.290426,-4.30741 -1.529515,1.55118 -2.380357,3.6683 -4.159792,5.02805 -1.926019,1.91285 -4.054142,3.71789 -6.598914,4.742336 2.383704,-2.284976 4.608577,-4.817156 5.979082,-7.848976 1.260487,-1.97913 3.243107,-3.33823 4.743256,-5.06196 2.422473,-1.65516 3.296344,1.33316 3.733481,3.12408 0.223689,1.59521 0.332076,2.97736 -2.406687,4.32388 z"
         id="path851-8-8-8-9" />
      <path
         style="display:inline;fill:#f0f0f0;fill-opacity:1;stroke:none;stroke-width:0.26458332px;stroke-linecap:butt;stroke-linejoin:miter;stroke-opacity:1"
         d="m -87.404843,87.602414 c -0.357333,-0.0191 -0.781021,0.10836 -1.293977,0.45837 -0.986877,1.12834 -2.162363,2.09867 -3.204972,3.17448 l -0.342098,0.70487 -0.718304,1.56166 -0.600996,1.52859 -0.03359,0.69298 0.868681,-1.15238 1.453142,-1.988 1.303279,-1.68723 1.586466,-1.63659 1.094433,-0.44021 0.392298,0.2397 0.626319,1.4366 0.651639,1.68672 0.473874,0.74001 c 0.131189,-0.56851 0.06677,-1.16883 -0.02479,-1.82263 -0.217792,-0.89156 -0.548198,-2.06991 -1.097608,-2.79879 -0.27527,-0.36519 -0.5968,-0.61361 -0.984435,-0.68161 -0.04839,-0.008 -0.0983,-0.0138 -0.149347,-0.0165 z"
         id="path2954-0-7" />
      <ellipse
         style="display:inline;opacity:1;fill:#919192;fill-opacity:1;stroke:#100000;stroke-width:0.2670334;stroke-linecap:round;stroke-linejoin:round;stroke-miterlimit:4;stroke-dasharray:none;stroke-opacity:1;paint-order:fill markers stroke"
         id="path937-8-8-6"
         cx="156.57759"
         cy="5.0550995"
         rx="0.91881794"
         ry="0.90203464"
         transform="matrix(-0.62853358,0.77778245,0.88315993,0.46907199,0,0)" />
      <path
         style="display:inline;fill:#ba5575;fill-opacity:1;stroke:#000000;stroke-width:0.26458332px;stroke-linecap:butt;stroke-linejoin:miter;stroke-opacity:1"
         d="m -78.974107,81.533224 c -1.369753,0.16704 -1.04402,3.19888 -1.04402,3.96728 0,0.7684 0.300678,2.60588 -3.307461,4.30972 -0.7684,2.00453 3.173826,11.592816 4.944486,15.668676 1.369756,-2.37202 2.305201,-3.0736 2.939966,-3.67496 0.634764,-0.60135 2.472242,-4.009036 2.806329,-9.922376 0.200454,-2.50565 3.608139,-2.43883 3.608139,-2.43883 0.100227,-0.93544 -3.641548,-2.00452 -4.844259,-2.37202 -1.202714,-0.36749 -4.042452,-1.80407 -5.178348,-2.87315 -1.135896,-1.06907 0.296502,-1.25282 0.296502,-1.25282 z"
         id="path1056-44-0" />
      <path
         style="display:inline;fill:none;stroke:#000000;stroke-width:0.26458332px;stroke-linecap:butt;stroke-linejoin:miter;stroke-opacity:1"
         d="m -62.779242,90.277954 c -1.135896,0.30067 -1.637027,1.33634 -1.670436,2.73951 -0.03341,1.40316 -0.334087,16.804566 -0.03341,17.506146 0.300678,0.70159 0.367496,11.49259 0.23386,13.16303 -0.133636,1.67043 0.567947,9.58829 0.567947,9.58829"
         id="path1085-2-8" />
      <path
         style="display:inline;fill:#ba5575;fill-opacity:1;stroke:#000000;stroke-width:0.26458332px;stroke-linecap:butt;stroke-linejoin:miter;stroke-opacity:1"
         d="m -56.906534,81.558284 c 1.369756,0.16704 1.060725,3.17382 1.060725,3.94222 0,0.7684 -0.300678,2.60588 3.307461,4.30972 0.7684,2.00453 -3.173825,11.592816 -4.944486,15.668676 -1.369756,-2.37202 -2.305201,-3.0736 -2.939965,-3.67496 -0.634765,-0.60135 -2.472243,-4.009036 -2.80633,-9.922376 -0.200453,-2.50565 -3.608139,-2.43883 -3.608139,-2.43883 -0.100226,-0.93544 3.641548,-2.00452 4.844259,-2.37202 1.202714,-0.36749 4.042453,-1.80407 5.178349,-2.87315 1.135896,-1.06907 -0.167045,-1.24447 -0.167045,-1.24447 z"
         id="path1056-2-2-1" />
      <path
         style="display:inline;fill:none;stroke:#000000;stroke-width:0.26458332px;stroke-linecap:butt;stroke-linejoin:miter;stroke-opacity:1"
         d="m -67.707024,96.826054 c -0.551244,2.48895 -0.639596,8.156946 -0.504238,13.300536 0.14174,5.38616 0.708702,12.61495 0.51971,15.35528 -0.188983,2.74033 -0.472469,7.84301 -0.472469,7.84301"
         id="path1083-2-7" />
      <path
         style="display:inline;fill:#ffdbb4;fill-opacity:1;stroke:#000000;stroke-width:0.26458332px;stroke-linecap:butt;stroke-linejoin:miter;stroke-opacity:1"
         d="m -90.392553,52.427004 c 0,5.10268 4.650658,18.76053 6.499019,21.5141 1.544915,2.30152 10.657602,11.5523 15.601857,11.59085 5.211861,0.0407 16.971616,-10.622 18.441599,-13.2947 1.469982,-2.67269 3.541321,-22.18337 3.541321,-22.18337 l -8.485807,-18.57523 -11.826679,-4.14268 -12.361214,6.68174 z"
         id="path1093-4-7" />
      <path
         style="display:inline;fill:#ffffff;fill-opacity:1;stroke:none;stroke-width:0.26458332px;stroke-linecap:butt;stroke-linejoin:miter;stroke-opacity:1"
         d="m -72.735031,58.539694 c -1.119193,-2.17156 -5.646071,-2.80633 -5.646071,-2.80633 l -2.372016,0.21716 -1.954408,0.70158 -1.469983,1.03567 -0.350792,0.45102 c 0,0 0.367498,0.68488 0.467722,1.1526 0.100227,0.46772 1.954408,2.08804 1.954408,2.08804 l 1.219417,0.81851 1.68714,0.58465 2.054635,0.16705 c 0,0 1.553501,-0.15035 2.338607,-0.70159 0.785106,-0.55124 2.622584,-1.83747 2.071341,-3.70836 z"
         id="path1103-9-9" />
      <g
         transform="translate(-119.34553,-166.89888)"
         style="display:inline"
         id="g3053-1-5">
        <circle
           r="3.4912083"
           cy="226.17357"
           cx="41.593819"
           id="path1121-5-4"
           style="opacity:1;fill:url(#linearGradient1717-29-4);fill-opacity:1;stroke:#000000;stroke-width:0.26458332;stroke-linecap:round;stroke-linejoin:round;stroke-miterlimit:4;stroke-dasharray:none;stroke-opacity:1;paint-order:fill markers stroke" />
        <ellipse
           transform="rotate(9.9861916)"
           ry="0.47185963"
           rx="0.7634849"
           cy="214.93105"
           cx="77.059303"
           id="path866-7-9"
           style="opacity:1;fill:#ffffff;fill-opacity:1;stroke:none;stroke-width:0.26458332;stroke-linecap:round;stroke-linejoin:round;stroke-miterlimit:4;stroke-dasharray:none;stroke-opacity:1;paint-order:fill markers stroke" />
        <circle
           r="0.96349251"
           cy="226.17357"
           cx="41.593819"
           id="path1121-4-0-1"
           style="display:inline;opacity:1;fill:#001b58;fill-opacity:1;stroke:none;stroke-width:0.26458332;stroke-linecap:round;stroke-linejoin:round;stroke-miterlimit:4;stroke-dasharray:none;stroke-opacity:1;paint-order:fill markers stroke" />
      </g>
      <path
         style="display:inline;fill:#ffdbb4;fill-opacity:1;stroke:none;stroke-width:0.26458332px;stroke-linecap:butt;stroke-linejoin:miter;stroke-opacity:1"
         d="m -79.817191,51.589104 -7.31325,4.35478 0.08217,6.03942 6.819739,3.41013 7.64191,1.27331 3.903122,-8.05223 -2.464966,-5.3821 z m 1.436087,4.14445 c 0,0 4.526973,0.63447 5.646168,2.80603 0.551241,1.87089 -1.286087,3.15706 -2.071193,3.70831 -0.785106,0.55123 -2.338874,0.70176 -2.338874,0.70176 l -2.054656,-0.16691 -1.687235,-0.58498 -1.219046,-0.81856 c 0,0 -1.854177,-1.62 -1.954403,-2.08772 -0.100225,-0.46772 -0.468189,-1.15291 -0.468189,-1.15291 l 0.350883,-0.45061 1.470194,-1.03612 1.954403,-0.70125 z"
         id="path3150-5-4" />
      <path
         style="display:inline;fill:#ffffff;fill-opacity:1;stroke:none;stroke-width:0.26458332px;stroke-linecap:butt;stroke-linejoin:miter;stroke-opacity:1"
         d="m -62.716808,58.539694 c 1.119193,-2.17156 5.646071,-2.80633 5.646071,-2.80633 l 2.372016,0.21716 1.954408,0.70158 1.469983,1.03567 0.350792,0.45102 c 0,0 -0.367498,0.68488 -0.467722,1.1526 -0.100227,0.46772 -1.954409,2.08804 -1.954409,2.08804 l -1.219417,0.81851 -1.687139,0.58465 -2.054635,0.16705 c 0,0 -1.553501,-0.15035 -2.338607,-0.70159 -0.785106,-0.55124 -2.622585,-1.83747 -2.071341,-3.70836 z"
         id="path1103-3-4-4" />
      <g
         transform="translate(-120.40387,-166.89888)"
         style="display:inline"
         id="g3058-9-9">
        <circle
           r="3.4912083"
           cy="226.17357"
           cx="62.703732"
           id="path1121-1-5-6"
           style="display:inline;opacity:1;fill:url(#linearGradient5937);fill-opacity:1;stroke:#000000;stroke-width:0.26458332;stroke-linecap:round;stroke-linejoin:round;stroke-miterlimit:4;stroke-dasharray:none;stroke-opacity:1;paint-order:fill markers stroke" />
        <ellipse
           transform="rotate(9.9861915)"
           ry="0.47185963"
           rx="0.7634849"
           cy="211.56451"
           cx="97.816368"
           id="path866-8-3-4"
           style="opacity:1;fill:#ffffff;fill-opacity:1;stroke:none;stroke-width:0.26458332;stroke-linecap:round;stroke-linejoin:round;stroke-miterlimit:4;stroke-dasharray:none;stroke-opacity:1;paint-order:fill markers stroke" />
        <circle
           transform="scale(-1,1)"
           r="0.96349251"
           cy="226.17357"
           cx="-62.703732"
           id="path1121-4-7-3-2"
           style="display:inline;opacity:1;fill:#001b58;fill-opacity:1;stroke:none;stroke-width:0.26458332;stroke-linecap:round;stroke-linejoin:round;stroke-miterlimit:4;stroke-dasharray:none;stroke-opacity:1;paint-order:fill markers stroke" />
      </g>
      <path
         style="display:inline;fill:#f6cba9;fill-opacity:1;stroke:none;stroke-width:0.26458332px;stroke-linecap:butt;stroke-linejoin:miter;stroke-opacity:1"
         d="m -58.586546,34.652484 c -1.035669,-1.80407 -6.848782,-0.40091 -7.984678,0.93544 -1.503389,-0.90204 -4.443354,-2.27179 -6.982415,-0.20045 -2.53906,2.07134 1.202714,-4.51018 1.202714,-4.51018 l 9.053753,-0.20045 z"
         id="path2881-6-2" />
      <path
         style="display:inline;fill:none;stroke:#000000;stroke-width:0.26458332px;stroke-linecap:butt;stroke-linejoin:miter;stroke-opacity:1"
         d="m -68.726604,63.663264 c 1.677503,1.73437 -1.442696,6.22319 -1.442696,6.22319 0.850413,0.4429 1.396555,0.79389 2.949011,0.20262"
         id="path893-2-3" />
      <circle
         r="0.37797621"
         cy="64.35688"
         cx="-84.368553"
         id="path971-6-7"
         style="display:inline;opacity:1;fill:#000000;fill-opacity:1;stroke:none;stroke-width:0;stroke-linecap:round;stroke-linejoin:round;stroke-miterlimit:4;stroke-dasharray:none;stroke-opacity:1;paint-order:fill markers stroke" />
      <path
         style="display:inline;fill:none;stroke:#000000;stroke-width:0.26458332px;stroke-linecap:butt;stroke-linejoin:miter;stroke-opacity:1"
         d="m -81.4547,54.731104 c 1.152599,-0.48443 5.930042,-0.50113 8.26865,1.1693"
         id="path1105-2-6" />
      <path
         style="display:inline;fill:none;stroke:#000000;stroke-width:0.26458332px;stroke-linecap:butt;stroke-linejoin:miter;stroke-opacity:1"
         d="m -80.151762,55.900404 c -0.601356,0.0501 -1.102487,-0.75169 -1.102487,-0.75169"
         id="path1107-9-2" />
      <path
         style="display:inline;fill:none;stroke:#000000;stroke-width:0.26458332px;stroke-linecap:butt;stroke-linejoin:miter;stroke-opacity:1"
         d="m -81.755378,56.284604 c -0.434314,0.0167 -0.952148,-1.01896 -0.952148,-1.01896"
         id="path1109-8-9" />
      <path
         style="display:inline;fill:none;stroke:#000000;stroke-width:0.26458332px;stroke-linecap:butt;stroke-linejoin:miter;stroke-opacity:1"
         d="m -82.707526,56.652104 c -0.467723,0.16704 -1.252826,-0.98556 -1.252826,-0.98556"
         id="path1111-7-3" />
      <path
         style="display:inline;fill:none;stroke:#000000;stroke-width:0.26458332px;stroke-linecap:butt;stroke-linejoin:miter;stroke-opacity:1"
         d="m -83.325588,57.103124 c -0.451016,0.30068 -1.753957,-0.60136 -1.753957,-0.60136"
         id="path1113-7-5" />
      <path
         style="display:inline;fill:none;stroke:#000000;stroke-width:0.26458332px;stroke-linecap:butt;stroke-linejoin:miter;stroke-opacity:1"
         d="m -82.106171,61.379434 c -0.517834,-0.51784 -1.035669,-0.20045 -1.035669,-0.20045"
         id="path1115-7-1" />
      <path
         style="display:inline;fill:none;stroke:#000000;stroke-width:0.26458332px;stroke-linecap:butt;stroke-linejoin:miter;stroke-opacity:1"
         d="m -80.886754,62.197944 c -0.551243,-0.33408 -1.11919,-0.0501 -1.11919,-0.0501"
         id="path1117-7-3" />
      <path
         style="display:inline;fill:none;stroke:#000000;stroke-width:0.52916664;stroke-linecap:butt;stroke-linejoin:miter;stroke-miterlimit:4;stroke-dasharray:none;stroke-opacity:1"
         d="m -72.735031,58.539694 c -2.33861,-3.17383 -8.251947,-4.07586 -11.79327,-0.4009 -0.23386,0.35079 0.467722,1.1526 0.467722,1.1526"
         id="path1097-9-7" />
      <path
         style="display:inline;fill:none;stroke:#000000;stroke-width:0.26458332px;stroke-linecap:butt;stroke-linejoin:miter;stroke-opacity:1"
         d="m -83.25877,60.243534 c 1.336347,1.57021 4.242904,3.8253 8.452398,2.00452"
         id="path1099-3-4" />
      <path
         style="display:inline;fill:#ffdbb4;fill-opacity:1;stroke:none;stroke-width:0.26458332px;stroke-linecap:butt;stroke-linejoin:miter;stroke-opacity:1"
         d="m -55.265202,51.721404 -9.296075,2.49855 -2.295467,3.39876 1.85932,7.78557 5.635832,1.74305 7.14685,-1.48157 3.51503,-4.5899 0.145211,-6.1588 z m -1.805575,4.01215 2.371947,0.21704 1.954403,0.70125 1.470195,1.03612 0.350885,0.45061 c 0,0 -0.367448,0.68519 -0.467673,1.15291 -0.100226,0.46772 -1.954403,2.08772 -1.954403,2.08772 l -1.219565,0.81856 -1.687234,0.58498 -2.054654,0.16691 c 0,0 -1.553255,-0.15053 -2.338358,-0.70176 -0.785106,-0.55125 -2.622953,-1.83742 -2.071709,-3.70831 1.119193,-2.17156 5.646166,-2.80603 5.646166,-2.80603 z"
         id="path3132-3-9" />
      <path
         style="display:inline;fill:none;stroke:#000000;stroke-width:0.26458332px;stroke-linecap:butt;stroke-linejoin:miter;stroke-opacity:1"
         d="m -53.997139,54.731104 c -1.152599,-0.48443 -5.930043,-0.50113 -8.26865,1.1693"
         id="path1105-1-89-7" />
      <path
         style="display:inline;fill:none;stroke:#000000;stroke-width:0.26458332px;stroke-linecap:butt;stroke-linejoin:miter;stroke-opacity:1"
         d="m -55.300077,55.900404 c 0.601356,0.0501 1.102487,-0.75169 1.102487,-0.75169"
         id="path1107-8-1-0" />
      <path
         style="display:inline;fill:none;stroke:#000000;stroke-width:0.26458332px;stroke-linecap:butt;stroke-linejoin:miter;stroke-opacity:1"
         d="m -53.696461,56.284604 c 0.434313,0.0167 0.952148,-1.01896 0.952148,-1.01896"
         id="path1109-9-0-7" />
      <path
         style="display:inline;fill:none;stroke:#000000;stroke-width:0.26458332px;stroke-linecap:butt;stroke-linejoin:miter;stroke-opacity:1"
         d="m -52.744313,56.652104 c 0.467722,0.16704 1.252826,-0.98556 1.252826,-0.98556"
         id="path1111-0-3-8" />
      <path
         style="display:inline;fill:none;stroke:#000000;stroke-width:0.26458332px;stroke-linecap:butt;stroke-linejoin:miter;stroke-opacity:1"
         d="m -52.126252,57.103124 c 0.451017,0.30068 1.753958,-0.60136 1.753958,-0.60136"
         id="path1113-9-1-3" />
      <path
         style="display:inline;fill:none;stroke:#000000;stroke-width:0.26458332px;stroke-linecap:butt;stroke-linejoin:miter;stroke-opacity:1"
         d="m -53.345669,61.379434 c 0.517835,-0.51784 1.035669,-0.20045 1.035669,-0.20045"
         id="path1115-5-2-1" />
      <path
         style="display:inline;fill:none;stroke:#000000;stroke-width:0.26458332px;stroke-linecap:butt;stroke-linejoin:miter;stroke-opacity:1"
         d="m -54.565086,62.197944 c 0.551244,-0.33408 1.119191,-0.0501 1.119191,-0.0501"
         id="path1117-6-1-2" />
      <path
         style="display:inline;fill:none;stroke:#000000;stroke-width:0.52916664;stroke-linecap:butt;stroke-linejoin:miter;stroke-miterlimit:4;stroke-dasharray:none;stroke-opacity:1"
         d="m -62.716808,58.539694 c 2.33861,-3.17383 8.251947,-4.07586 11.79327,-0.4009 0.23386,0.35079 -0.467722,1.1526 -0.467722,1.1526"
         id="path1097-8-1-3" />
      <path
         style="display:inline;fill:none;stroke:#000000;stroke-width:0.26458332px;stroke-linecap:butt;stroke-linejoin:miter;stroke-opacity:1"
         d="m -52.19307,60.243534 c -1.336346,1.57021 -4.242903,3.8253 -8.452397,2.00452"
         id="path1099-5-3-4" />
      <path
         style="display:inline;fill:#f6cba9;fill-opacity:1;stroke:none;stroke-width:0.26458332px;stroke-linecap:butt;stroke-linejoin:miter;stroke-opacity:1"
         d="m -43.775465,54.078874 c -0.303979,-0.01 -0.680127,0.035 -1.065567,0.13953 l 0.152445,3.0272 c 0,0 0.183817,-0.7269 0.918806,-1.67069 0.340159,-0.43696 0.630078,-0.57385 0.908989,-0.54726 -0.0784,-0.26391 -0.17141,-0.52419 -0.283702,-0.77979 -0.05938,-0.064 -0.294037,-0.15747 -0.630455,-0.16847 z"
         id="path2735-9-2" />
      <path
         style="display:inline;fill:#3a3a3a;fill-opacity:1;stroke:#000000;stroke-width:0.26458332px;stroke-linecap:butt;stroke-linejoin:miter;stroke-opacity:1"
         d="m -66.620545,34.870474 c 1.205966,-1.29969 4.849027,-1.60687 6.948311,-0.18459 1.380236,1.04882 7.349913,6.74856 8.285355,10.69078 0.935442,3.94223 4.142677,14.49938 4.142677,14.49938 3.407687,-3.80859 6.681739,-12.36122 6.748557,-17.37252 0.06681,-5.01131 -1.603618,-14.16529 -7.082644,-19.17659 -5.479023,-5.0113 -15.033911,-8.68626 -17.973873,-7.14946 -2.277933,1.27463 -0.854036,0.92838 -4.877671,-0.4009 -2.405425,-0.86863 -6.748555,0.4009 -9.755338,1.9377 -3.006781,1.5368 -8.819894,4.40995 -12.093946,11.09168 -3.274051,6.68174 -3.474503,11.42578 -2.80633,16.103 0.668174,4.67721 2.138157,7.68399 2.672695,8.61944 0.53454,0.93544 1.069078,2.07134 2.004523,1.67043 0.935442,-0.4009 7.216277,-8.48581 7.216277,-8.48581 0,0 8.15172,-10.42351 9.354434,-11.29213 1.202711,-0.86863 4.744728,-2.75538 7.216973,-0.55041 z"
         id="path1000-1-3" />
      <path
         style="display:inline;fill:#232323;fill-opacity:1;stroke:none;stroke-width:0.26458332px;stroke-linecap:butt;stroke-linejoin:miter;stroke-opacity:1"
         d="m -70.304595,31.629084 -2.11305,1.54513 0.13281,1.21646 c 0.459508,-0.20466 0.969669,-0.38945 1.509985,-0.51521 0.05896,-0.0835 0.139751,-0.19357 0.253215,-0.3421 0.459369,-0.60136 1.770512,-1.40323 2.071192,-1.22783 l -0.442351,-0.37569 z"
         id="path2715-32-8" />
      <path
         style="display:inline;fill:#232323;fill-opacity:1;stroke:none;stroke-width:0.26458332px;stroke-linecap:butt;stroke-linejoin:miter;stroke-opacity:1"
         d="m -63.221824,33.140624 -1.069183,0.0754 -1.161169,0.53434 -0.674897,0.59376 c 0.678593,-0.42009 1.618358,-0.67247 2.639116,-0.71985 0.841787,-0.0391 1.72811,0.0559 2.538865,0.31161 l -0.101288,-0.12713 -1.102257,-0.49247 z"
         id="path2675-6-0" />
      <path
         style="display:inline;fill:#232323;fill-opacity:1;stroke:none;stroke-width:0.26458332px;stroke-linecap:butt;stroke-linejoin:miter;stroke-opacity:1"
         d="m -80.687813,37.567804 c -3.622432,7.58626 -8.555101,12.91375 -12.5268,14.25558 -0.02612,1.60907 4.032524,1.02599 4.032524,1.02599 l 8.569671,-9.32929 z"
         id="path2620-0-7" />
      <path
         style="display:inline;fill:#232323;fill-opacity:1;stroke:none;stroke-width:0.26458332px;stroke-linecap:butt;stroke-linejoin:miter;stroke-opacity:1"
         d="m -52.957332,31.879714 3.741889,8.01812 2.901632,18.54202 c 1.365975,-1.91676 2.660878,-4.49218 3.670059,-7.14944 -0.01595,-6.69589 -4.621133,-18.52791 -10.31358,-19.4107 z"
         id="path1984-7-5" />
      <path
         style="display:inline;fill:none;stroke:#000000;stroke-width:0.26458332px;stroke-linecap:butt;stroke-linejoin:miter;stroke-opacity:1"
         d="m -49.683094,31.713664 c 2.981912,2.45938 3.727389,7.73457 3.194907,10.01573"
         id="path1173-8-1" />
      <path
         style="display:inline;fill:none;stroke:#000000;stroke-width:0.26458332px;stroke-linecap:butt;stroke-linejoin:miter;stroke-opacity:1"
         d="m -67.276947,27.256154 c -0.01181,-1.08668 -0.921316,-3.05925 -0.921316,-3.05925"
         id="path1147-8-8" />
      <path
         style="display:inline;fill:none;stroke:#000000;stroke-width:0.26458332px;stroke-linecap:butt;stroke-linejoin:miter;stroke-opacity:1"
         d="m -63.113329,20.186514 c 13.443869,2.61846 21.615773,13.22574 17.940468,27.99648"
         id="path1167-4-2" />
      <path
         style="display:inline;fill:none;stroke:#000000;stroke-width:0.26458332px;stroke-linecap:butt;stroke-linejoin:miter;stroke-opacity:1"
         d="m -78.982457,34.017714 c -2.716644,1.40036 -8.291791,12.55066 -8.291791,12.55066"
         id="path1151-4-8" />
      <path
         style="display:inline;fill:none;stroke:#000000;stroke-width:0.52916664;stroke-linecap:butt;stroke-linejoin:miter;stroke-miterlimit:4;stroke-dasharray:none;stroke-opacity:1"
         d="m -62.511973,51.624094 c 2.80633,-1.50339 9.588294,-1.46998 9.588294,-1.46998"
         id="path1008-7-2" />
      <path
         style="display:inline;fill:none;stroke:#000000;stroke-width:0.52916664;stroke-linecap:butt;stroke-linejoin:miter;stroke-miterlimit:4;stroke-dasharray:none;stroke-opacity:1"
         d="m -73.155663,51.624094 c -2.80633,-1.50339 -9.588294,-1.46998 -9.588294,-1.46998"
         id="path1008-1-8-6" />
      <path
         style="display:inline;fill:none;stroke:#000000;stroke-width:0.26458332px;stroke-linecap:butt;stroke-linejoin:miter;stroke-opacity:1"
         d="m -92.045257,51.523864 c 0.567949,-9.98919 8.40903,-21.5392 10.913121,-23.19284 2.504093,-1.65365 2.504093,-1.65365 2.504093,-1.65365"
         id="path1141-7-4" />
      <path
         style="display:inline;fill:none;stroke:#000000;stroke-width:0.26458332px;stroke-linecap:butt;stroke-linejoin:miter;stroke-opacity:1"
         d="m -66.497371,27.055354 c 0.118118,-0.48428 0.803201,-2.35054 1.771764,-2.68127"
         id="path1149-5-7" />
      <path
         style="display:inline;fill:#828282;fill-opacity:1;stroke:#000000;stroke-width:0.26458332px;stroke-linecap:butt;stroke-linejoin:miter;stroke-opacity:1"
         d="m -84.394613,30.676844 c 11.941932,-15.83572 31.248054,-6.5481 33.105688,0.26727 -6.501715,-7.41672 -22.55698,-8.28535 -33.105688,-0.26727 z"
         id="path1027-3-9" />
      <path
         style="color:#000000;font-style:normal;font-variant:normal;font-weight:normal;font-stretch:normal;font-size:medium;line-height:normal;font-family:sans-serif;font-variant-ligatures:normal;font-variant-position:normal;font-variant-caps:normal;font-variant-numeric:normal;font-variant-alternates:normal;font-feature-settings:normal;text-indent:0;text-align:start;text-decoration:none;text-decoration-line:none;text-decoration-style:solid;text-decoration-color:#000000;letter-spacing:normal;word-spacing:normal;text-transform:none;writing-mode:lr-tb;direction:ltr;text-orientation:mixed;dominant-baseline:auto;baseline-shift:baseline;text-anchor:start;white-space:normal;shape-padding:0;clip-rule:nonzero;display:inline;overflow:visible;visibility:visible;opacity:1;isolation:auto;mix-blend-mode:normal;color-interpolation:sRGB;color-interpolation-filters:linearRGB;solid-color:#000000;solid-opacity:1;vector-effect:none;fill:#232323;fill-opacity:1;fill-rule:nonzero;stroke:none;stroke-width:3.99999976;stroke-linecap:butt;stroke-linejoin:miter;stroke-miterlimit:4;stroke-dasharray:none;stroke-dashoffset:0;stroke-opacity:1;filter:url(#filter2397-4-8);color-rendering:auto;image-rendering:auto;shape-rendering:auto;text-rendering:auto;enable-background:accumulate"
         d="m 199.85742,73.984375 -3.99414,0.220703 0.9668,17.09961 c 1.34584,0.0062 2.68324,0.051 4.01367,0.125 z"
         transform="matrix(0.26401407,0.01734675,-0.01734675,0.26401407,-118.32708,-5.7431063)"
         id="path2243-7-1" />
      <path
         style="display:inline;fill:#696969;fill-opacity:1;stroke:none;stroke-width:0.26458332px;stroke-linecap:butt;stroke-linejoin:miter;stroke-opacity:1"
         d="m -67.858231,24.143754 c -5.424808,-0.0318 -10.190734,1.68003 -12.658143,2.75952 -1.032359,0.88625 -2.035683,1.90722 -2.998782,3.07475 5.141984,-3.56091 11.372106,-5.22256 17.193265,-5.08806 5.866762,0.13556 11.217688,2.06995 14.560352,5.47305 -0.62061,-1.49091 -1.90831,-3.07311 -3.880901,-4.45503 -0.438674,-0.30731 -0.905158,-0.60359 -1.394748,-0.88676 -0.189283,0.45166 -2.056352,0.44858 -6.329844,-0.42272 -1.520764,-0.31005 -3.028977,-0.44618 -4.491199,-0.45475 z"
         id="path2021-6-2" />
      <path
         style="display:inline;fill:#3a3a3a;fill-opacity:1;stroke:#000000;stroke-width:0.26458332px;stroke-linecap:butt;stroke-linejoin:miter;stroke-opacity:1"
         d="m -68.434499,27.445144 c -0.02422,-1.79631 -3.815196,-6.01219 -10.713262,1.97256"
         id="path1169-3-0" />
      <path
         style="display:inline;fill:#3a3a3a;fill-opacity:1;stroke:#000000;stroke-width:0.26458332px;stroke-linecap:butt;stroke-linejoin:miter;stroke-opacity:1"
         d="m -67.855723,29.984664 c -3.449031,-6.28385 -11.622767,1.51191 -13.985118,9.68564 -2.362351,8.17374 -7.276042,11.29204 -11.055803,12.14249 -1.792041,1.37742 1.984934,4.82668 3.354539,4.53571 0.897691,-0.23623 5.622396,-2.55134 8.126486,-8.36272 2.504094,-5.81139 8.220983,-16.81994 9.591146,-16.81994 1.370163,0 2.447015,0.22929 2.447015,0.22929"
         id="path1033-0-6" />
      <path
         style="display:inline;fill:#232323;fill-opacity:1;stroke:none;stroke-width:0.26458332px;stroke-linecap:butt;stroke-linejoin:miter;stroke-opacity:1"
         d="m -81.320977,47.348024 c -0.51911,1.05898 -3.394805,5.17743 -6.713802,8.13335 0.548761,-0.32646 1.187585,-0.75921 1.869138,-1.3255 1.593157,-1.32373 3.38605,-3.33857 4.628658,-6.22236 0.06942,-0.1611 0.150106,-0.33981 0.224274,-0.50849 z"
         id="path2794-8-7" />
      <path
         style="display:inline;fill:#3a3a3a;fill-opacity:1;stroke:#000000;stroke-width:0.26458332px;stroke-linecap:butt;stroke-linejoin:miter;stroke-opacity:1"
         d="m -91.744576,58.673324 c 9.03705,-3.40768 12.828936,-18.64205 13.898015,-20.64657 1.069078,-2.00452 2.138156,-4.74403 5.078121,-6.1472 2.939963,-1.40316 3.390982,-0.48442 3.390982,-0.48442 l -3.769932,1.23537 c 0,0 -2.551337,3.77976 -2.882066,5.05543 -0.330729,1.27567 -5.491626,21.04436 -15.71512,20.98739 z"
         id="path1031-6-1" />
      <path
         style="display:inline;fill:#232323;fill-opacity:1;stroke:none;stroke-width:0.26458332px;stroke-linecap:butt;stroke-linejoin:miter;stroke-opacity:1"
         d="m -74.966326,34.567404 c -2.126117,2.38598 -3.62817,7.19578 -3.850928,9.02426 -0.07876,0.6465 -0.07313,1.35399 -0.04599,1.95078 1.67464,-3.94458 2.57374,-7.38318 2.705261,-7.89047 0.145984,-0.56308 0.658538,-1.50039 1.212845,-2.43034 z"
         id="path2622-5-6" />
      <path
         style="display:inline;fill:#3a3a3a;fill-opacity:1;stroke:#000000;stroke-width:0.26458332px;stroke-linecap:butt;stroke-linejoin:miter;stroke-opacity:1"
         d="m -67.619487,32.110784 c -6.447562,-7.81997 -12.938461,11.65782 -9.827382,19.70201 -0.614209,-5.5279 5.291667,-21.78088 8.693455,-19.22954"
         id="path1029-5-7" />
      <path
         style="display:inline;fill:none;stroke:#000000;stroke-width:0.26458332;stroke-linecap:butt;stroke-linejoin:miter;stroke-miterlimit:4;stroke-dasharray:none;stroke-opacity:1"
         d="m -93.239024,53.451784 c 0.985557,0.65147 7.207334,-2.29541 9.512532,-7.20649 l 2.305201,-4.91107"
         id="path1133-7-7" />
      <path
         style="display:inline;fill:none;stroke:#000000;stroke-width:0.26458332px;stroke-linecap:butt;stroke-linejoin:miter;stroke-opacity:1"
         d="m -91.744403,55.340394 c 1.23612,0.43431 4.403989,-2.46822 5.47885,-3.68289 1.128485,-1.27527 3.808593,-5.44562 3.808593,-5.44562"
         id="path1135-3-4" />
      <path
         style="display:inline;fill:none;stroke:#000000;stroke-width:0.26458332px;stroke-linecap:butt;stroke-linejoin:miter;stroke-opacity:1"
         d="m -68.72599,30.108894 c -1.469983,-1.36975 -6.013564,-1.1693 -8.719667,4.04246 -2.706105,5.21175 -2.706105,5.21175 -2.706105,5.21175"
         id="path1137-6-8" />
      <path
         style="display:inline;fill:none;stroke:#000000;stroke-width:0.26458332px;stroke-linecap:butt;stroke-linejoin:miter;stroke-opacity:1"
         d="m -90.809134,51.156374 c 0.300678,-4.54358 6.214017,-14.96709 7.583773,-16.97162 1.369756,-2.00452 1.403165,-2.03793 1.403165,-2.03793"
         id="path1139-3-9" />
      <path
         style="display:inline;fill:#3a3a3a;fill-opacity:1;stroke:#000000;stroke-width:0.26458332px;stroke-linecap:butt;stroke-linejoin:miter;stroke-opacity:1"
         d="m -66.305169,28.523774 c 0.719595,-2.54085 5.876956,-5.50349 13.032004,1.06307 3.323841,3.05044 8.367572,10.51129 8.835295,20.133 0.46772,9.6217 -0.06682,20.91384 -8.819896,32.20597 4.677217,-7.34991 6.013564,-22.04973 6.013564,-22.04973 l -4.209495,-19.24341 -8.485806,-9.88897"
         id="path1004-3-8" />
      <path
         style="display:inline;fill:#232323;fill-opacity:1;stroke:none;stroke-width:0.26458332px;stroke-linecap:butt;stroke-linejoin:miter;stroke-opacity:1"
         d="m -61.042109,29.741344 -0.188103,0.55242 1.290359,0.4501 0.100254,-0.0858 8.508007,9.91361 4.220414,19.29701 -0.0016,0.0196 c 0,0 -0.333997,3.68227 -1.254189,8.28322 -0.674219,3.37111 -1.725107,7.13405 -3.155362,10.37869 -0.290243,0.68335 -0.597067,1.34331 -0.923973,1.96629 0.486085,-0.67593 0.944002,-1.35172 1.375108,-2.02675 1.027097,-1.9281 2.00718,-4.22664 2.917653,-6.97477 10.299848,-31.08854 -6.875057,-41.77367 -12.888618,-41.77367 z"
         id="path2057-2-9" />
      <path
         style="display:inline;fill:#3a3a3a;fill-opacity:1;stroke:#000000;stroke-width:0.26458332px;stroke-linecap:butt;stroke-linejoin:miter;stroke-opacity:1"
         d="m -66.620545,34.870474 c 1.835881,-2.09823 4.931617,-3.19166 8.82844,2.34299 4.910907,6.97496 7.795757,15.59151 6.945312,23.43452 -0.850447,7.84301 -1.653646,17.19792 -8.079242,24.19048 7.087055,-3.63802 12.614955,-20.74145 12.803944,-25.84412 0.188989,-5.10268 -0.850448,-17.19792 -6.614584,-24.09599 -5.484256,-6.56313 -10.496944,-8.11977 -13.28452,-4.67074"
         id="path1002-9-4" />
      <path
         style="color:#000000;font-style:normal;font-variant:normal;font-weight:normal;font-stretch:normal;font-size:medium;line-height:normal;font-family:sans-serif;font-variant-ligatures:normal;font-variant-position:normal;font-variant-caps:normal;font-variant-numeric:normal;font-variant-alternates:normal;font-feature-settings:normal;text-indent:0;text-align:start;text-decoration:none;text-decoration-line:none;text-decoration-style:solid;text-decoration-color:#000000;letter-spacing:normal;word-spacing:normal;text-transform:none;writing-mode:lr-tb;direction:ltr;text-orientation:mixed;dominant-baseline:auto;baseline-shift:baseline;text-anchor:start;white-space:normal;shape-padding:0;clip-rule:nonzero;display:inline;overflow:visible;visibility:visible;opacity:1;isolation:auto;mix-blend-mode:normal;color-interpolation:sRGB;color-interpolation-filters:linearRGB;solid-color:#000000;solid-opacity:1;vector-effect:none;fill:#232323;fill-opacity:1;fill-rule:nonzero;stroke:none;stroke-width:3.99999976;stroke-linecap:butt;stroke-linejoin:miter;stroke-miterlimit:4;stroke-dasharray:none;stroke-dashoffset:0;stroke-opacity:1;filter:url(#filter2325-4-2);color-rendering:auto;image-rendering:auto;shape-rendering:auto;text-rendering:auto;enable-background:accumulate"
         d="m 174.94153,75.044836 c -0.17783,0.003 -0.35716,0.0158 -0.53515,0.0195 l 1.91601,33.849614 3.99219,-0.2207 -1.90235,-33.636724 c -1.15344,-0.0172 -2.30918,-0.0305 -3.4707,-0.0117 z"
         id="path2093-8-9"
         transform="matrix(0.26458333,0,0,0.26458333,-113.76864,5.4806042)" />
      <path
         style="display:inline;fill:none;stroke:#000000;stroke-width:0.26458332px;stroke-linecap:butt;stroke-linejoin:miter;stroke-opacity:1"
         d="m -93.515238,51.056144 c -0.734991,-2.93996 1.971113,-11.86008 4.276313,-16.27003 2.305199,-4.40995 2.305199,-4.40995 2.305199,-4.40995"
         id="path1153-6-7" />
      <path
         style="display:inline;fill:none;stroke:#000000;stroke-width:0.26458332px;stroke-linecap:butt;stroke-linejoin:miter;stroke-opacity:1"
         d="m -94.696006,46.978254 c -0.501131,-2.83974 2.14962,-11.35692 4.321185,-15.46619"
         id="path1155-24-2" />
      <path
         style="display:inline;fill:none;stroke:#000000;stroke-width:0.26458332px;stroke-linecap:butt;stroke-linejoin:miter;stroke-opacity:1"
         d="m -95.344364,42.424174 c -0.133635,-2.03793 3.315812,-11.21279 5.103177,-13.71844 1.787365,-2.50565 3.177532,-3.64952 3.177532,-3.64952"
         id="path1157-4-4" />
      <path
         style="display:inline;fill:none;stroke:#000000;stroke-width:0.26458332px;stroke-linecap:butt;stroke-linejoin:miter;stroke-opacity:1"
         d="m -89.071883,30.008674 c 2.906557,-3.74177 6.648332,-6.88219 10.25647,-8.31877"
         id="path1159-2-2" />
      <path
         style="display:inline;fill:none;stroke:#000000;stroke-width:0.26458332px;stroke-linecap:butt;stroke-linejoin:miter;stroke-opacity:1"
         d="m -83.158543,21.422634 c 5.879928,-3.54132 9.822156,-4.34313 12.762119,-3.34087"
         id="path1161-6-4" />
      <path
         style="display:inline;fill:none;stroke:#000000;stroke-width:0.26458332px;stroke-linecap:butt;stroke-linejoin:miter;stroke-opacity:1"
         d="m -75.674996,21.088554 c 3.107007,-0.56795 5.278572,-1.00226 6.214014,-0.3675"
         id="path1163-7-4" />
      <path
         style="display:inline;fill:none;stroke:#000000;stroke-width:0.26458332px;stroke-linecap:butt;stroke-linejoin:miter;stroke-opacity:1"
         d="m -67.289417,18.716534 c 2.772924,-1.83748 7.617183,-0.93544 8.986938,-0.16704 1.369756,0.7684 1.369756,0.7684 1.369756,0.7684"
         id="path1165-3-2" />
      <path
         style="display:inline;fill:none;stroke:#000000;stroke-width:0.26458332px;stroke-linecap:butt;stroke-linejoin:miter;stroke-opacity:1"
         d="m -42.600392,51.557274 c 1.23612,-6.68173 2.104747,-21.61542 -9.153983,-28.93192"
         id="path1171-24-2" />
      <path
         style="display:inline;fill:none;stroke:#000000;stroke-width:0.26458332px;stroke-linecap:butt;stroke-linejoin:miter;stroke-opacity:1"
         d="m -66.839911,21.621944 c 0.637834,-0.85045 0.921316,-1.34654 1.842633,-1.84263"
         id="path1175-5-4" />
      <path
         style="display:inline;fill:none;stroke:#000000;stroke-width:0.26458332px;stroke-linecap:butt;stroke-linejoin:miter;stroke-opacity:1"
         d="m -67.454122,20.299024 c -0.448847,-0.87407 -1.795386,-1.1103 -1.795386,-1.1103"
         id="path1177-4-6" />
      <path
         style="display:inline;fill:#3a3a3a;fill-opacity:1;stroke:#000000;stroke-width:0.26458332px;stroke-linecap:butt;stroke-linejoin:miter;stroke-opacity:1"
         d="m -79.366659,117.65637 c -0.684879,1.20271 -1.65373,4.35984 -1.186008,6.04697 0.467723,1.68714 0.551244,2.92326 0.23386,3.80859 -0.317381,0.88533 -0.484426,0.96886 -0.484426,0.96886 2.305201,-0.61806 3.073599,-1.95441 3.040193,-3.69166 -0.03341,-1.73726 -1.085784,-5.71289 -0.668174,-7.13276 -0.317383,-0.41761 -0.935445,0 -0.935445,0 z"
         id="path1183-1-2" />
      <path
         style="display:inline;fill:#bc8d11;fill-opacity:1;stroke:#000000;stroke-width:0.26458332px;stroke-linecap:butt;stroke-linejoin:miter;stroke-opacity:1"
         d="m -78.330024,118.28619 c -0.140301,0.19585 -1.294495,0.22385 -1.540986,0.0986 -0.246489,-0.12529 -0.273688,-3.78653 -0.01371,-4.06195 0.259969,-0.27541 1.242719,-0.17547 1.538171,-0.0151 0.295447,0.16038 0.156824,3.7826 0.01654,3.97843 z"
         id="path1181-1-8" />
      <path
         style="display:inline;fill:#ae375d;fill-opacity:1;stroke:none;stroke-width:0.26458332px;stroke-linecap:butt;stroke-linejoin:miter;stroke-opacity:1"
         d="m -55.639339,87.406564 c 0.193675,4.54321 -0.417875,11.10965 -4.814694,14.166046 0.04635,0.0573 0.08774,0.10301 0.122473,0.13591 0.599061,0.56755 1.529151,1.33896 2.816365,3.49591 0.888421,-2.05169 2.251586,-5.309956 3.332096,-8.380876 0.554488,-1.57591 1.028899,-3.08587 1.316199,-4.32222 0.284126,-1.22264 0.361749,-2.17488 0.203089,-2.61482 -1.728533,-0.83213 -2.580222,-1.70285 -2.975528,-2.47995 z"
         id="path1056-2-0-7-7" />
      <path
         style="display:inline;fill:#ae375d;fill-opacity:1;stroke:none;stroke-width:0.26458332px;stroke-linecap:butt;stroke-linejoin:miter;stroke-opacity:1"
         d="m -82.666114,93.760694 c 0.269963,0.94866 0.606243,1.98704 0.984954,3.06338 1.080294,3.07031 2.445205,6.327026 3.333644,8.378806 1.286275,-2.1546 2.216034,-2.92708 2.814818,-3.49436 0.136538,-0.12935 0.371679,-0.45018 0.634584,-0.93947 0.262912,-0.48929 0.559343,-1.151036 0.847495,-1.978176 0.43252,-1.24154 0.844817,-2.85689 1.093989,-4.83019 -3.040512,3.12283 -3.97755,5.86536 -9.709484,-0.19999 z"
         id="path1056-4-2-8" />
      <path
         style="display:inline;fill:none;stroke:#000000;stroke-width:0.26458332px;stroke-linecap:butt;stroke-linejoin:miter;stroke-opacity:1"
         d="m -67.707024,96.826054 c -0.551244,2.48895 -0.639596,8.156946 -0.504238,13.300536 0.14174,5.38616 0.708702,12.61495 0.51971,15.35528 -0.188983,2.74033 -0.472469,7.84301 -0.472469,7.84301"
         id="path1083-9-7-1" />
      <path
         style="display:inline;fill:#d6d6d6;fill-opacity:1;stroke:none;stroke-width:0.26458332px;stroke-linecap:butt;stroke-linejoin:miter;stroke-opacity:1"
         d="m -44.154253,107.11595 c -2.106551,2.97725 -6.593287,9.4636 -7.390762,4.13256 -0.199448,0.99133 -0.389768,1.9643 -0.520898,2.40141 -0.06108,0.20358 -0.170186,0.76855 -0.291458,1.49603 -0.121269,0.72748 -0.259291,1.62642 -0.390157,2.53318 -0.233177,1.61572 -0.405061,3.03182 -0.47077,3.76566 0.220763,-0.34723 0.426378,-0.70395 0.775147,-0.99012 0.881674,-0.72343 2.336784,-2.80655 3.705198,-4.9475 1.368415,-2.14096 2.666043,-4.34669 3.306776,-5.36712 0.378902,-0.60344 0.836584,-1.73401 1.276924,-3.0241 z"
         id="path1419-1-8" />
      <path
         style="display:inline;fill:#71aad3;fill-opacity:1;stroke:none;stroke-width:0.26458332px;stroke-linecap:butt;stroke-linejoin:miter;stroke-opacity:1"
         d="m -21.977828,123.01885 c -0.714697,1.35703 -1.811837,2.60406 -3.402893,3.5388 -2.654057,1.55926 -6.194774,2.06522 -8.090464,2.23294 l 11.270115,0.2775 c 0.0045,-0.0838 0.138607,-2.62837 0.223242,-6.04924 z"
         id="path1578-5-2" />
      <path
         style="display:inline;fill:#d6d6d6;fill-opacity:1;stroke:none;stroke-width:0.26458332px;stroke-linecap:butt;stroke-linejoin:miter;stroke-opacity:1"
         d="m -45.609977,90.733484 0.453718,0.54674 0.79375,1.0356 0.943613,1.24437 0.810286,1.12758 0.751375,0.86868 v -0.70125 l -0.634588,-1.53686 -0.784963,-1.74563 -0.0088,-0.0155 c 0.0051,1.4693 -0.68512,0.2201 -2.324404,-0.82372 z"
         id="path1871-6-3" />
      <path
         style="display:inline;fill:none;stroke:#000000;stroke-width:0.26458332px;stroke-linecap:butt;stroke-linejoin:miter;stroke-opacity:1"
         d="m -50.327077,93.018104 c 0.921316,-0.99218 1.302216,-3.89544 2.080617,-4.17672 1.021419,-0.36913 3.507912,2.78127 4.819203,4.66051 1.311291,1.87923 1.611969,2.22167 1.611969,2.22167 0.208803,-0.91874 -1.878891,-4.86666 -1.878891,-4.86666"
         id="path919-3-4-8" />
      <path
         style="display:inline;fill:#d6d6d6;fill-opacity:1;stroke:none;stroke-width:0.26458332px;stroke-linecap:butt;stroke-linejoin:miter;stroke-opacity:1"
         d="m -85.591,100.93441 c -0.717807,4.17648 0.647602,9.51466 0.762227,10.35751 0.12327,0.90639 1.560187,6.12163 -3.527949,1.51154 0.518904,0.85075 1.08771,1.77542 1.681033,2.70371 1.368415,2.14095 2.823528,4.22407 3.705201,4.9475 0.347578,0.28519 0.553199,0.64058 0.773597,0.9865 -0.06594,-0.73496 -0.237831,-2.14798 -0.470773,-3.76204 -0.130866,-0.90676 -0.267338,-1.8057 -0.388607,-2.53318 -0.121269,-0.72748 -0.229859,-1.29245 -0.290938,-1.49603 -0.147871,-0.4929 -0.36856,-1.64959 -0.595829,-2.76779 -0.113636,-0.55911 -0.229253,-1.106 -0.33383,-1.54875 -0.104576,-0.44274 -0.206658,-0.79095 -0.265618,-0.90434 -0.09079,-0.17458 -0.186108,-0.48863 -0.293005,-0.91208 -0.106894,-0.42346 -0.220792,-0.9505 -0.326077,-1.52136 -0.210577,-1.14172 -0.388448,-2.45562 -0.41238,-3.46077 -0.01053,-0.44213 -0.0158,-1.00013 -0.01707,-1.60042 z"
         id="path2508-5-2" />
      <path
         style="display:inline;fill:#ae375d;fill-opacity:1;stroke:none;stroke-width:0.26458332px;stroke-linecap:butt;stroke-linejoin:miter;stroke-opacity:1"
         d="m -79.968604,86.703764 c -0.04807,0.20798 -0.119081,0.42847 -0.232027,0.65939 -0.184983,0.37819 -0.482428,0.77931 -0.931727,1.18804 0.410924,0.88056 1.299736,1.8331 3.252515,1.7601 -0.720408,-0.45283 -1.513171,-1.93623 -2.088761,-3.60753 z"
         id="path2898-2-1" />
      <path
         style="display:inline;fill:#d6d6d6;fill-opacity:1;stroke:none;stroke-width:0.26458332px;stroke-linecap:butt;stroke-linejoin:miter;stroke-opacity:1"
         d="m -86.136703,88.501064 c -0.04383,0.42474 -0.250923,0.62284 -0.834573,0.49868 l 0.129191,0.13797 0.225824,0.35916 0.459404,1.31568 0.459404,1.12758 0.325562,0.66817 0.223242,0.31368 c 0.131189,-0.56851 0.06677,-1.16883 -0.02479,-1.82263 -0.199126,-0.81514 -0.49453,-1.86638 -0.96325,-2.59829 z"
         id="path2974-41-4" />
      <path
         style="display:inline;fill:none;stroke:#000000;stroke-width:0.26458332px;stroke-linecap:butt;stroke-linejoin:miter;stroke-opacity:1"
         d="m -85.087003,93.018104 c -0.921317,-0.99218 -1.302216,-3.89544 -2.080615,-4.17672 -1.021421,-0.36913 -3.507914,2.78127 -4.819204,4.66051 -1.311291,1.87923 -1.611969,2.22167 -1.611969,2.22167 -0.208804,-0.91874 1.878891,-4.86666 1.878891,-4.86666"
         id="path919-7-7-3" />
      <g
         style="display:inline"
         id="g3806-2-3"
         transform="translate(-120.31392,-2.1447658)">
        <g
           style="display:inline"
           transform="translate(0,-164.70832)"
           id="layer1-0-2-6">
          <g
             style="stroke-width:1.06387472"
             transform="matrix(0.88352537,0,0,1,6.4093547,0.13363476)"
             id="g1203-9-1">
            <path
               style="fill:#ffffff;fill-opacity:1;stroke:#000000;stroke-width:0.2814835px;stroke-linecap:butt;stroke-linejoin:miter;stroke-opacity:1"
               d="m 44.871221,241.72138 c 3.063346,1.10478 13.498903,-0.98803 15.960048,-2.48737 -3.636092,3.74426 -11.850056,8.69146 -15.960048,2.48737 z"
               id="path895-1-9" />
            <path
               style="fill:none;stroke:#000000;stroke-width:0.2814835px;stroke-linecap:butt;stroke-linejoin:miter;stroke-opacity:1"
               d="m 46.606937,243.53853 c 2.826179,0.16797 10.61187,-1.45966 13.097077,-3.2397"
               id="path898-3-8" />
          </g>
        </g>
      </g>
    </g>
  </g>
</svg>
