<?xml version="1.0" encoding="UTF-8" standalone="no"?>
<svg
   xmlns:dc="http://purl.org/dc/elements/1.1/"
   xmlns:cc="http://creativecommons.org/ns#"
   xmlns:rdf="http://www.w3.org/1999/02/22-rdf-syntax-ns#"
   xmlns:svg="http://www.w3.org/2000/svg"
   xmlns="http://www.w3.org/2000/svg"
   width="64"
   height="64"
   viewBox="0 0 16.933333 16.933334"
   version="1.1"
   id="svg2317">
  <defs
     id="defs2311" />
  <metadata
     id="metadata2314">
    <rdf:RDF>
      <cc:Work
         rdf:about="">
        <dc:format>image/svg+xml</dc:format>
        <dc:type
           rdf:resource="http://purl.org/dc/dcmitype/StillImage" />
        <dc:title></dc:title>
      </cc:Work>
    </rdf:RDF>
  </metadata>
  <g
     style="stroke-width:0.65289974"
     id="layer1"
     transform="matrix(1.5321149,0,0,1.5311428,-4.5052392,-433.31904)">
    <g
       id="g2288"
       transform="matrix(0.26599999,0,0,0.26599999,3.2634041,277.58828)"
       style="stroke-width:0.85907865">
      <path
         id="path2131"
         d="M 19.561138,41.102335 31.297001,34.32663 c 0.617676,-0.356615 0.617676,-0.356615 0.617676,0.356617 v 12.838175 c 0,0.713231 0,0.713231 -0.617676,1.069847 l -11.118186,6.419087 c -0.617677,0.356617 -0.617677,0.356617 -0.617677,-0.356615 z"
         style="fill:#ebebeb;fill-opacity:1;stroke:#000000;stroke-width:0.22765584;stroke-linecap:round;stroke-linejoin:round;stroke-miterlimit:4;stroke-dasharray:none;stroke-opacity:1" />
      <path
         id="path2133"
         d="M 19.561138,41.102333 7.8252764,34.32663 c -0.617677,-0.356615 -0.617677,-0.356615 0,-0.713231 L 18.943461,27.194311 c 0.617677,-0.356615 0.617677,-0.356615 1.235354,0 l 11.118186,6.419088 c 0.617676,0.356616 0.617676,0.356616 0,0.713231 z"
         style="fill:#ffffff;fill-opacity:1;stroke:#000000;stroke-width:0.22765584;stroke-linecap:round;stroke-linejoin:round;stroke-miterlimit:4;stroke-dasharray:none;stroke-opacity:1" />
      <path
         id="path2135"
         d="m 7.8252764,34.32663 11.7358616,6.775703 v 13.551408 c 0,0.713232 0,0.713232 -0.617677,0.356615 L 7.8252764,48.591269 C 7.2075994,48.234653 7.2075994,48.234653 7.2075994,47.521421 V 34.683247 c 0,-0.713232 0,-0.713232 0.617677,-0.356617 z"
         style="fill:#f5f5f5;fill-opacity:1;stroke:#000000;stroke-width:0.22765584;stroke-linecap:round;stroke-linejoin:round;stroke-miterlimit:4;stroke-dasharray:none;stroke-opacity:1" />
      <g
         id="g2301"
         style="stroke:#323232;stroke-width:2.89094809;stroke-miterlimit:4;stroke-dasharray:none;stroke-opacity:1"
         transform="matrix(0.67391995,0,0,0.67391995,-5.1459396,0.71206012)">
        <path
           style="fill:#323232;fill-opacity:1;stroke:#323232;stroke-width:2.89094809;stroke-linecap:round;stroke-linejoin:round;stroke-miterlimit:4;stroke-dasharray:none;stroke-opacity:1"
           d="m 39.735339,61.640085 1.185151,-0.819842 v 1.639684 l -1.185151,0.819843 z"
           id="path2201" />
        <path
           style="fill:#323232;fill-opacity:1;stroke:#323232;stroke-width:2.89094809;stroke-linecap:round;stroke-linejoin:round;stroke-miterlimit:4;stroke-dasharray:none;stroke-opacity:1"
           d="m 51.919012,54.470242 -1.185151,0.819842 v 1.639685 l 1.185151,-0.819843 z"
           id="path2203" />
        <path
           style="fill:#323232;fill-opacity:1;stroke:#323232;stroke-width:2.89094809;stroke-linecap:round;stroke-linejoin:round;stroke-miterlimit:4;stroke-dasharray:none;stroke-opacity:1"
           d="m 51.919012,68.809927 v -1.639684 l -1.185151,0.819842 v 1.639685 z"
           id="path2205" />
        <path
           style="fill:#323232;fill-opacity:1;stroke:#323232;stroke-width:2.89094809;stroke-linecap:round;stroke-linejoin:round;stroke-miterlimit:4;stroke-dasharray:none;stroke-opacity:1"
           d="m 39.735339,75.979769 1.185151,-0.819842 v -1.639684 l -1.185151,0.819841 z"
           id="path2207" />
      </g>
      <g
         id="g2295"
         style="stroke:#323232;stroke-width:2.89094809;stroke-miterlimit:4;stroke-dasharray:none;stroke-opacity:1"
         transform="matrix(0.67391995,0,0,0.67391995,-5.1459396,0.71206012)">
        <path
           style="fill:#323232;fill-opacity:1;stroke:#323232;stroke-width:2.89094809;stroke-linecap:round;stroke-linejoin:round;stroke-miterlimit:4;stroke-dasharray:none;stroke-opacity:1"
           d="m 21.404469,54.470242 1.18515,0.819842 v 1.639685 l -1.18515,-0.819843 z"
           id="path2209" />
        <path
           style="fill:#323232;fill-opacity:1;stroke:#323232;stroke-width:2.89094809;stroke-linecap:round;stroke-linejoin:round;stroke-miterlimit:4;stroke-dasharray:none;stroke-opacity:1"
           d="m 32.402992,62.459928 1.18515,0.819842 v -1.639684 l -1.18515,-0.819843 z"
           id="path2211" />
        <path
           style="fill:#323232;fill-opacity:1;stroke:#323232;stroke-width:2.89094809;stroke-linecap:round;stroke-linejoin:round;stroke-miterlimit:4;stroke-dasharray:none;stroke-opacity:1"
           d="m 33.588142,75.979769 v -1.639685 l -1.18515,-0.819841 v 1.639684 z"
           id="path2213" />
        <path
           style="fill:#323232;fill-opacity:1;stroke:#323232;stroke-width:2.89094809;stroke-linecap:round;stroke-linejoin:round;stroke-miterlimit:4;stroke-dasharray:none;stroke-opacity:1"
           d="m 21.404469,68.809927 1.18515,0.819843 v -1.639685 l -1.18515,-0.819842 z"
           id="path2215" />
        <path
           style="fill:#323232;fill-opacity:1;stroke:#323232;stroke-width:2.89094809;stroke-linecap:round;stroke-linejoin:round;stroke-miterlimit:4;stroke-dasharray:none;stroke-opacity:1"
           d="m 26.90373,63.995243 1.185151,0.819841 V 66.45477 L 26.90373,65.634927 Z"
           id="path2217" />
      </g>
      <g
         id="g2309"
         style="stroke:#323232;stroke-width:2.89094809;stroke-miterlimit:4;stroke-dasharray:none;stroke-opacity:1"
         transform="matrix(0.67391995,0,0,0.67391995,-5.1459396,0.71206012)">
        <path
           style="fill:#323232;fill-opacity:1;stroke:#323232;stroke-width:2.89094809;stroke-linecap:round;stroke-linejoin:round;stroke-miterlimit:4;stroke-dasharray:none;stroke-opacity:1"
           d="m 26.033314,48.291673 1.462992,-0.727229 1.46299,0.727229 -1.46299,0.727228 z"
           id="path2219" />
        <path
           style="fill:#323232;fill-opacity:1;stroke:#323232;stroke-width:2.89094809;stroke-linecap:round;stroke-linejoin:round;stroke-miterlimit:4;stroke-dasharray:none;stroke-opacity:1"
           d="m 31.532576,51.466672 1.46299,-0.727228 1.46299,0.727228 -1.46299,0.727229 z"
           id="path2221" />
        <path
           style="fill:#323232;fill-opacity:1;stroke:#323232;stroke-width:2.89094809;stroke-linecap:round;stroke-linejoin:round;stroke-miterlimit:4;stroke-dasharray:none;stroke-opacity:1"
           d="m 37.031837,54.641673 1.46299,-0.727229 1.462991,0.727229 -1.462991,0.727229 z"
           id="path2223" />
        <path
           style="fill:#323232;fill-opacity:1;stroke:#323232;stroke-width:2.89094809;stroke-linecap:round;stroke-linejoin:round;stroke-miterlimit:4;stroke-dasharray:none;stroke-opacity:1"
           d="m 33.365662,44.058341 1.462991,-0.727229 1.46299,0.727229 -1.46299,0.727228 z"
           id="path2225" />
        <path
           style="fill:#323232;fill-opacity:1;stroke:#323232;stroke-width:2.89094809;stroke-linecap:round;stroke-linejoin:round;stroke-miterlimit:4;stroke-dasharray:none;stroke-opacity:1"
           d="m 38.864923,47.23334 1.462992,-0.727228 1.462989,0.727228 -1.462989,0.727228 z"
           id="path2227" />
        <path
           style="fill:#323232;fill-opacity:1;stroke:#323232;stroke-width:2.89094809;stroke-linecap:round;stroke-linejoin:round;stroke-miterlimit:4;stroke-dasharray:none;stroke-opacity:1"
           d="m 45.827177,51.135569 1.462989,-0.72723 -1.462989,-0.727228 -1.462992,0.727228 z"
           id="path2229" />
      </g>
      <path
         id="path2247"
         d="M 31.914677,34.683245 V 33.970014 L 31.297001,33.613397"
         style="fill:none;stroke:#000000;stroke-width:0.22729784;stroke-linecap:butt;stroke-linejoin:round;stroke-miterlimit:4;stroke-dasharray:none;stroke-opacity:1" />
      <path
         id="path2249"
         d="m 7.2075994,34.683245 v -0.713231 l 0.617677,-0.356617"
         style="fill:none;stroke:#000000;stroke-width:0.22729784px;stroke-linecap:round;stroke-linejoin:round;stroke-opacity:1" />
      <path
         id="path2251"
         d="m 18.943461,55.010356 0.617677,0.356616 0.617677,-0.356616"
         style="fill:none;stroke:#000000;stroke-width:0.22729784px;stroke-linecap:round;stroke-linejoin:round;stroke-opacity:1" />
    </g>
  </g>
</svg>
