<?xml version="1.0" encoding="UTF-8" standalone="no"?>
<svg
   xmlns:dc="http://purl.org/dc/elements/1.1/"
   xmlns:cc="http://creativecommons.org/ns#"
   xmlns:rdf="http://www.w3.org/1999/02/22-rdf-syntax-ns#"
   xmlns:svg="http://www.w3.org/2000/svg"
   xmlns="http://www.w3.org/2000/svg"
   id="svg2317"
   version="1.1"
   viewBox="0 0 16.933333 16.933334"
   height="64"
   width="64">
  <defs
     id="defs2311" />
  <metadata
     id="metadata2314">
    <rdf:RDF>
      <cc:Work
         rdf:about="">
        <dc:format>image/svg+xml</dc:format>
        <dc:type
           rdf:resource="http://purl.org/dc/dcmitype/StillImage" />
        <dc:title></dc:title>
      </cc:Work>
    </rdf:RDF>
  </metadata>
  <g
     transform="translate(0,-280.06665)"
     id="layer1">
    <g
       style="stroke-width:0.26499999;stroke-linecap:round;stroke-linejoin:round;stroke-miterlimit:4;stroke-dasharray:none"
       id="g1713"
       transform="matrix(0.35,0,0,0.35,-2.4401168,281.3159)">
      <path
         style="fill:#fafafa;fill-opacity:1;stroke:#000000;stroke-width:0.26499999;stroke-linecap:round;stroke-linejoin:round;stroke-miterlimit:4;stroke-dasharray:none;stroke-opacity:1"
         d="M 25.663538,6.8628568 7.3328739,17.44619 36.662352,34.379523 54.993016,23.79619 Z m -6.415627,4.7625002 0.916223,0.529166 -3.665927,2.116667 -0.916741,-0.529167 z"
         id="path1552" />
      <path
         style="fill:#ff0101;fill-opacity:1;stroke:none;stroke-width:0.26499999;stroke-linecap:round;stroke-linejoin:round;stroke-miterlimit:4;stroke-dasharray:none;stroke-opacity:1"
         d="m 31.162904,31.204576 18.33087,-10.58333 -2.749632,-1.5875 -18.33087,10.58333 z"
         id="path1643" />
      <path
         style="fill:#ff0101;fill-opacity:1;stroke:none;stroke-width:0.26499999;stroke-linecap:round;stroke-linejoin:round;stroke-miterlimit:4;stroke-dasharray:none;stroke-opacity:1"
         d="M 44.911056,17.975406 26.580186,28.558736 24.7471,27.500406 43.07797,16.917076 Z"
         id="path1649" />
      <path
         style="fill:#ff0101;fill-opacity:1;stroke:none;stroke-width:0.26499999;stroke-linecap:round;stroke-linejoin:round;stroke-miterlimit:4;stroke-dasharray:none;stroke-opacity:1"
         d="m 41.244882,15.858746 -0.916543,-0.52917 -18.330873,10.58334 0.916546,0.52916 z"
         id="path1651" />
      <path
         style="fill:#ff0101;fill-opacity:1;stroke:none;stroke-width:0.26499999;stroke-linecap:round;stroke-linejoin:round;stroke-miterlimit:4;stroke-dasharray:none;stroke-opacity:1"
         d="m 32.995989,32.262906 3.666175,2.11666 18.33087,-10.58333 -3.666175,-2.11666 z"
         id="path1661" />
      <path
         style="fill:#323232;fill-opacity:1;stroke:#000000;stroke-width:0.26499999;stroke-linecap:round;stroke-linejoin:round;stroke-miterlimit:4;stroke-dasharray:none;stroke-opacity:1"
         d="M 24.747099,7.3920758 54.076491,24.325406 51.326859,25.912906 21.997467,8.979576 Z"
         id="path1556" />
      <g
         style="stroke-width:0.26499999;stroke-linecap:round;stroke-linejoin:round;stroke-miterlimit:4;stroke-dasharray:none"
         transform="translate(-29.328969,-97.520434)"
         id="g1639">
        <path
           id="path1558"
           d="m 70.573851,121.84584 4.582716,2.64583 -3.666172,2.11667 -4.582719,-2.64583 z"
           style="fill:#c3c34a;fill-opacity:1;stroke:#000000;stroke-width:0.26499999;stroke-linecap:round;stroke-linejoin:round;stroke-miterlimit:4;stroke-dasharray:none;stroke-opacity:1" />
        <path
           id="path1622"
           d="m 70.573851,122.90417 2.74963,1.5875 -1.833086,1.05834 -2.749632,-1.5875 z"
           style="fill:none;stroke:#000000;stroke-width:0.26499999;stroke-linecap:round;stroke-linejoin:round;stroke-miterlimit:4;stroke-dasharray:none;stroke-opacity:1" />
        <path
           id="path1624"
           d="m 68.740763,122.90417 0.916543,0.52917"
           style="fill:none;stroke:#000000;stroke-width:0.26499999;stroke-linecap:round;stroke-linejoin:round;stroke-miterlimit:4;stroke-dasharray:none;stroke-opacity:1" />
        <path
           id="path1626"
           d="m 72.406938,125.02084 0.916543,0.52917"
           style="fill:none;stroke:#000000;stroke-width:0.26499999;stroke-linecap:round;stroke-linejoin:round;stroke-miterlimit:4;stroke-dasharray:none;stroke-opacity:1" />
        <path
           id="path1628"
           d="m 69.657306,124.49167 1.833089,-1.05833"
           style="fill:none;stroke:#000000;stroke-width:0.26499999;stroke-linecap:round;stroke-linejoin:round;stroke-miterlimit:4;stroke-dasharray:none;stroke-opacity:1" />
        <path
           id="path1630"
           d="m 72.406938,123.96251 -1.833087,1.05833"
           style="fill:none;stroke:#000000;stroke-width:0.26499999;stroke-linecap:round;stroke-linejoin:round;stroke-miterlimit:4;stroke-dasharray:none;stroke-opacity:1" />
      </g>
      <path
         style="fill:#dcdcdc;fill-opacity:1;stroke:none;stroke-width:0.26499999;stroke-linecap:round;stroke-linejoin:round;stroke-miterlimit:4;stroke-dasharray:none;stroke-opacity:1"
         d="m 19.076521,15.728806 2.612121,0.14406 -0.193448,0.75244 7.222935,-0.61902 0.806396,0.29881 -0.193457,0.75244 -0.999847,0.45361 -0.80589,-0.29885 -0.999846,0.4536 -0.80589,-0.29885 -0.999846,0.45361 -0.806395,-0.29881 -0.999342,0.45356 -1.806241,0.1548 -0.192951,0.7524 -2.805575,0.60837 -1.612795,-0.59764 -0.612433,-1.05129 1.192798,-1.20601 z m -2.19316,1.65966 -0.193457,0.75244 0.999849,-0.45362 z"
         id="path1669" />
      <path
         style="color:#000000;font-style:normal;font-variant:normal;font-weight:normal;font-stretch:normal;font-size:medium;line-height:normal;font-family:sans-serif;font-variant-ligatures:normal;font-variant-position:normal;font-variant-caps:normal;font-variant-numeric:normal;font-variant-alternates:normal;font-feature-settings:normal;text-indent:0;text-align:start;text-decoration:none;text-decoration-line:none;text-decoration-style:solid;text-decoration-color:#000000;letter-spacing:normal;word-spacing:normal;text-transform:none;writing-mode:lr-tb;direction:ltr;text-orientation:mixed;dominant-baseline:auto;baseline-shift:baseline;text-anchor:start;white-space:normal;shape-padding:0;clip-rule:nonzero;display:inline;overflow:visible;visibility:visible;opacity:1;isolation:auto;mix-blend-mode:normal;color-interpolation:sRGB;color-interpolation-filters:linearRGB;solid-color:#000000;solid-opacity:1;vector-effect:none;fill:#000000;fill-opacity:1;fill-rule:nonzero;stroke:none;stroke-width:0.26499999;stroke-linecap:round;stroke-linejoin:round;stroke-miterlimit:4;stroke-dasharray:none;stroke-dashoffset:0;stroke-opacity:1;color-rendering:auto;image-rendering:auto;shape-rendering:auto;text-rendering:auto;enable-background:accumulate"
         d="m 25.663219,6.7100358 -0.06641,0.0391 -18.529298,10.6972702 29.595705,17.08593 18.59375,-10.73632 z m 0,0.30664 L 54.727672,23.795976 36.663219,34.227616 7.598764,17.446366 Z m -6.416016,4.4550802 -0.06641,0.0391 -3.863282,2.23047 1.181641,0.68359 3.929687,-2.26953 z m 0,0.30664 0.654297,0.37695 -3.402344,1.96289 -0.654297,-0.37695 z"
         id="path1552-4" />
    </g>
  </g>
</svg>
