<?xml version="1.0" encoding="UTF-8" standalone="no"?>
<svg
   xmlns:dc="http://purl.org/dc/elements/1.1/"
   xmlns:cc="http://creativecommons.org/ns#"
   xmlns:rdf="http://www.w3.org/1999/02/22-rdf-syntax-ns#"
   xmlns:svg="http://www.w3.org/2000/svg"
   xmlns="http://www.w3.org/2000/svg"
   id="svg2317"
   version="1.1"
   viewBox="0 0 16.933333 16.933334"
   height="64"
   width="64">
  <defs
     id="defs2311" />
  <metadata
     id="metadata2314">
    <rdf:RDF>
      <cc:Work
         rdf:about="">
        <dc:format>image/svg+xml</dc:format>
        <dc:type
           rdf:resource="http://purl.org/dc/dcmitype/StillImage" />
        <dc:title></dc:title>
      </cc:Work>
    </rdf:RDF>
  </metadata>
  <g
     transform="translate(0,-280.06665)"
     id="layer1">
    <g
       style="stroke-width:0.26499999;stroke-linecap:round;stroke-linejoin:round;stroke-miterlimit:4;stroke-dasharray:none"
       id="g2095"
       transform="matrix(0.35,0,0,0.35,-38.27538,281.26212)">
      <path
         id="path1552-3-5"
         d="M 128.04999,7.0165056 109.71933,17.59984 139.04881,34.533172 157.37947,23.94984 Z m -6.41563,4.7625004 0.91623,0.529166 -3.66593,2.116667 -0.91674,-0.529167 z"
         style="fill:#fafafa;fill-opacity:1;stroke:#000000;stroke-width:0.26499999;stroke-linecap:round;stroke-linejoin:round;stroke-miterlimit:4;stroke-dasharray:none;stroke-opacity:1" />
      <path
         id="path1643-2-9"
         d="m 133.54936,31.358228 18.33087,-10.583332 -2.74963,-1.5875 -18.33087,10.583331 z"
         style="fill:#ffff01;fill-opacity:1;stroke:none;stroke-width:0.26499999;stroke-linecap:round;stroke-linejoin:round;stroke-miterlimit:4;stroke-dasharray:none;stroke-opacity:1" />
      <path
         id="path1649-7-8"
         d="m 147.29751,18.129055 -18.33087,10.583331 -1.83309,-1.05833 18.33087,-10.58333 z"
         style="fill:#ffff01;fill-opacity:1;stroke:none;stroke-width:0.26499999;stroke-linecap:round;stroke-linejoin:round;stroke-miterlimit:4;stroke-dasharray:none;stroke-opacity:1" />
      <path
         id="path1651-2-9"
         d="m 143.63134,16.012395 -0.91655,-0.52917 -18.33087,10.58334 0.91655,0.529162 z"
         style="fill:#ffff01;fill-opacity:1;stroke:none;stroke-width:0.26499999;stroke-linecap:round;stroke-linejoin:round;stroke-miterlimit:4;stroke-dasharray:none;stroke-opacity:1" />
      <path
         id="path1661-3-4"
         d="m 135.38244,32.416556 3.66618,2.116659 18.33087,-10.583329 -3.66617,-2.11666 z"
         style="fill:#ffff01;fill-opacity:1;stroke:none;stroke-width:0.26499999;stroke-linecap:round;stroke-linejoin:round;stroke-miterlimit:4;stroke-dasharray:none;stroke-opacity:1" />
      <path
         id="path1556-0-1"
         d="m 127.13355,7.5457246 29.3294,16.9333314 -2.74963,1.5875 -29.3294,-16.9333314 z"
         style="fill:#323232;fill-opacity:1;stroke:#000000;stroke-width:0.26499999;stroke-linecap:round;stroke-linejoin:round;stroke-miterlimit:4;stroke-dasharray:none;stroke-opacity:1" />
      <g
         style="stroke-width:0.26499999;stroke-linecap:round;stroke-linejoin:round;stroke-miterlimit:4;stroke-dasharray:none"
         id="g1639-6-2"
         transform="translate(73.057486,-97.366785)">
        <path
           style="fill:#c3c34a;fill-opacity:1;stroke:#000000;stroke-width:0.26499999;stroke-linecap:round;stroke-linejoin:round;stroke-miterlimit:4;stroke-dasharray:none;stroke-opacity:1"
           d="m 70.573851,121.84584 4.582716,2.64583 -3.666172,2.11667 -4.582719,-2.64583 z"
           id="path1558-5-3" />
        <path
           style="fill:none;stroke:#000000;stroke-width:0.26499999;stroke-linecap:round;stroke-linejoin:round;stroke-miterlimit:4;stroke-dasharray:none;stroke-opacity:1"
           d="m 70.573851,122.90417 2.74963,1.5875 -1.833086,1.05834 -2.749632,-1.5875 z"
           id="path1622-4-9" />
        <path
           style="fill:none;stroke:#000000;stroke-width:0.26499999;stroke-linecap:round;stroke-linejoin:round;stroke-miterlimit:4;stroke-dasharray:none;stroke-opacity:1"
           d="m 68.740763,122.90417 0.916543,0.52917"
           id="path1624-0-6" />
        <path
           style="fill:none;stroke:#000000;stroke-width:0.26499999;stroke-linecap:round;stroke-linejoin:round;stroke-miterlimit:4;stroke-dasharray:none;stroke-opacity:1"
           d="m 72.406938,125.02084 0.916543,0.52917"
           id="path1626-8-5" />
        <path
           style="fill:none;stroke:#000000;stroke-width:0.26499999;stroke-linecap:round;stroke-linejoin:round;stroke-miterlimit:4;stroke-dasharray:none;stroke-opacity:1"
           d="m 69.657306,124.49167 1.833089,-1.05833"
           id="path1628-0-7" />
        <path
           style="fill:none;stroke:#000000;stroke-width:0.26499999;stroke-linecap:round;stroke-linejoin:round;stroke-miterlimit:4;stroke-dasharray:none;stroke-opacity:1"
           d="m 72.406938,123.96251 -1.833087,1.05833"
           id="path1630-3-9" />
      </g>
      <path
         id="path1669-2-5"
         d="m 121.46297,15.882455 2.61213,0.14406 -0.19345,0.75244 7.22293,-0.61902 0.8064,0.29881 -0.19346,0.75244 -0.99985,0.453611 -0.80589,-0.29885 -0.99984,0.4536 -0.80589,-0.29885 -0.99985,0.453609 -0.80639,-0.298809 -0.99934,0.453559 -1.80625,0.1548 -0.19295,0.752401 -2.80557,0.60837 -1.6128,-0.59764 -0.61243,-1.05129 1.1928,-1.206011 z m -2.19316,1.65966 -0.19345,0.75244 0.99985,-0.453619 z"
         style="fill:#dcdcdc;fill-opacity:1;stroke:none;stroke-width:0.26499999;stroke-linecap:round;stroke-linejoin:round;stroke-miterlimit:4;stroke-dasharray:none;stroke-opacity:1" />
      <path
         id="path1552-4-8-8"
         d="m 128.04967,6.8636846 -0.0664,0.0391 -18.52929,10.6972704 29.5957,17.08593 18.59375,-10.73632 z m 0,0.30664 29.06446,16.7793024 -18.06446,10.431637 -29.06445,-16.781249 z m -6.41601,4.4550804 -0.0664,0.0391 -3.86329,2.23047 1.18164,0.683591 3.92969,-2.269531 z m 0,0.30664 0.65429,0.37695 -3.40234,1.96289 -0.6543,-0.37695 z"
         style="color:#000000;font-style:normal;font-variant:normal;font-weight:normal;font-stretch:normal;font-size:medium;line-height:normal;font-family:sans-serif;font-variant-ligatures:normal;font-variant-position:normal;font-variant-caps:normal;font-variant-numeric:normal;font-variant-alternates:normal;font-feature-settings:normal;text-indent:0;text-align:start;text-decoration:none;text-decoration-line:none;text-decoration-style:solid;text-decoration-color:#000000;letter-spacing:normal;word-spacing:normal;text-transform:none;writing-mode:lr-tb;direction:ltr;text-orientation:mixed;dominant-baseline:auto;baseline-shift:baseline;text-anchor:start;white-space:normal;shape-padding:0;clip-rule:nonzero;display:inline;overflow:visible;visibility:visible;opacity:1;isolation:auto;mix-blend-mode:normal;color-interpolation:sRGB;color-interpolation-filters:linearRGB;solid-color:#000000;solid-opacity:1;vector-effect:none;fill:#000000;fill-opacity:1;fill-rule:nonzero;stroke:none;stroke-width:0.26499999;stroke-linecap:round;stroke-linejoin:round;stroke-miterlimit:4;stroke-dasharray:none;stroke-dashoffset:0;stroke-opacity:1;color-rendering:auto;image-rendering:auto;shape-rendering:auto;text-rendering:auto;enable-background:accumulate" />
    </g>
  </g>
</svg>
