<?xml version="1.0" encoding="UTF-8" standalone="no"?>
<svg
   xmlns:dc="http://purl.org/dc/elements/1.1/"
   xmlns:cc="http://creativecommons.org/ns#"
   xmlns:rdf="http://www.w3.org/1999/02/22-rdf-syntax-ns#"
   xmlns:svg="http://www.w3.org/2000/svg"
   xmlns="http://www.w3.org/2000/svg"
   xmlns:sodipodi="http://sodipodi.sourceforge.net/DTD/sodipodi-0.dtd"
   xmlns:inkscape="http://www.inkscape.org/namespaces/inkscape"
   id="svg2317"
   version="1.1"
   viewBox="0 0 16.933333 16.933334"
   height="64"
   width="64"
   sodipodi:docname="Paper_Letterhead.svg"
   inkscape:version="0.92.4 (5da689c313, 2019-01-14)">
  <sodipodi:namedview
     pagecolor="#ffffff"
     bordercolor="#666666"
     borderopacity="1"
     objecttolerance="10"
     gridtolerance="10"
     guidetolerance="10"
     inkscape:pageopacity="0"
     inkscape:pageshadow="2"
     inkscape:window-width="1920"
     inkscape:window-height="1017"
     id="namedview5391"
     showgrid="true"
     inkscape:zoom="10.429825"
     inkscape:cx="50.650118"
     inkscape:cy="32.227435"
     inkscape:window-x="1352"
     inkscape:window-y="-8"
     inkscape:window-maximized="1"
     inkscape:current-layer="g2129">
    <inkscape:grid
       type="axonomgrid"
       id="grid5936"
       units="px"
       empspacing="4"
       spacingy="0.52916667"
       gridanglex="30"
       gridanglez="30" />
  </sodipodi:namedview>
  <defs
     id="defs2311" />
  <metadata
     id="metadata2314">
    <rdf:RDF>
      <cc:Work
         rdf:about="">
        <dc:format>image/svg+xml</dc:format>
        <dc:type
           rdf:resource="http://purl.org/dc/dcmitype/StillImage" />
        <dc:title></dc:title>
      </cc:Work>
    </rdf:RDF>
  </metadata>
  <g
     transform="translate(0,-280.06665)"
     id="layer1">
    <g
       style="stroke-width:0.26499999;stroke-linecap:round;stroke-linejoin:round;stroke-miterlimit:4;stroke-dasharray:none"
       id="g2129"
       transform="matrix(0.35,0,0,0.35,-20.404369,281.3159)">
      <g
         id="g1444"
         transform="translate(0.68713308,0.01461887)">
        <path
           sodipodi:nodetypes="cccccc"
           inkscape:connector-curvature="0"
           id="path5938"
           d="M 79.869979,7.7553818 106.05694,22.874429 87.726067,33.457763 58.920412,16.82681 74.632587,7.7553818 c 1.309348,0 3.928044,0 5.237392,0 z"
           style="fill:#ffffff;fill-opacity:1;stroke:#000000;stroke-width:0.37797618;stroke-linecap:butt;stroke-linejoin:miter;stroke-miterlimit:4;stroke-dasharray:none;stroke-opacity:1" />
        <path
           inkscape:connector-curvature="0"
           id="path5940"
           d="m 74.632588,7.7553817 2.618695,1.5119045 2.618696,-1.5119045 z"
           style="fill:#e1e1e1;fill-opacity:1;stroke:#000000;stroke-width:0.37797618;stroke-linecap:butt;stroke-linejoin:round;stroke-miterlimit:4;stroke-dasharray:none;stroke-opacity:1" />
      </g>
      <g
         transform="matrix(0.07009813,-0.04047117,0.08094235,0.04673209,55.63645,12.444457)"
         id="g922">
        <g
           aria-label="Scabor"
           style="font-style:normal;font-variant:normal;font-weight:normal;font-stretch:normal;font-size:25.0122242px;line-height:1.25;font-family:Play;-inkscape-font-specification:Play;text-align:center;letter-spacing:0px;word-spacing:0px;text-anchor:middle;fill:#000000;fill-opacity:1;stroke:none;stroke-width:1.33994067"
           id="text817">
          <path
             inkscape:connector-curvature="0"
             d="m 67.302227,140.8329 q -4.15203,0 -9.904843,-0.80039 v -4.05198 q 5.802837,1.25061 10.204989,1.25061 3.70181,0 5.402642,-0.80039 1.700831,-0.85042 1.700831,-3.10152 v -4.20205 q 0,-2.10103 -1.200587,-2.95144 -1.200587,-0.85042 -4.202054,-0.85042 h -3.801859 q -4.752323,0 -6.753301,-1.90093 -2.000978,-1.90093 -2.000978,-5.90289 v -2.60127 q 0,-2.65129 1.150562,-4.3021 1.200587,-1.65081 3.951932,-2.4512 2.80137,-0.80039 7.653742,-0.80039 3.251589,0 8.354084,0.55027 v 3.65178 q -5.702788,-0.85041 -8.704255,-0.85041 -4.652275,0 -6.153008,0.90044 -1.550759,0.95046 -1.550759,3.15154 v 3.70181 q 0,1.70083 1.200587,2.50122 1.250612,0.75037 4.252079,0.75037 h 3.901908 q 3.351638,0 5.202543,0.80039 1.900929,0.80039 2.651296,2.4512 0.800392,1.60078 0.800392,4.35213 v 2.35115 q 0,3.45168 -1.300636,5.45266 -1.250612,2.00098 -3.901908,2.8514 -2.651296,0.85041 -6.953399,0.85041 z"
             style="font-style:normal;font-variant:normal;font-weight:normal;font-stretch:normal;font-size:50.02445602px;font-family:Play;-inkscape-font-specification:Play;letter-spacing:-1.79652095px;stroke-width:1.33994067"
             id="path821" />
          <path
             inkscape:connector-curvature="0"
             d="m 94.037625,140.8329 q -2.501223,0 -3.651785,-0.10005 -1.100538,-0.10005 -2.551248,-0.50024 -1.550758,-0.4002 -2.401174,-1.20059 -0.850415,-0.80039 -1.450709,-2.35115 -0.600293,-1.50073 -0.600293,-3.75183 v -8.90436 q 0,-4.05198 1.550758,-5.80283 0.850416,-1.00049 1.700831,-1.50074 0.900441,-0.55027 2.301125,-0.75036 1.400685,-0.2001 2.501223,-0.25013 1.100538,-0.10004 3.101516,-0.10004 3.451688,0 6.903371,0.75036 v 3.30162 q -4.001952,-1.00049 -7.45364,-1.00049 -2.601271,0 -3.851883,0.40019 -1.200587,0.35017 -1.700831,1.35066 -0.45022,0.95047 -0.45022,2.95145 v 9.90484 q 0,1.8509 0.500244,2.75134 0.550269,0.90044 1.90093,1.30064 1.400684,0.35017 4.102005,0.35017 3.651785,0 7.303575,-0.95046 v 3.40166 q -3.401667,0.70034 -7.753795,0.70034 z"
             style="font-style:normal;font-variant:normal;font-weight:normal;font-stretch:normal;font-size:50.02445602px;font-family:Play;-inkscape-font-specification:Play;letter-spacing:-1.79652095px;stroke-width:1.33994067"
             id="path823" />
          <path
             inkscape:connector-curvature="0"
             d="m 113.19354,140.8329 q -3.45169,0 -5.35262,-0.65032 -1.85091,-0.65031 -2.70132,-2.30112 -0.80039,-1.65081 -0.80039,-4.75232 0,-2.75135 0.75036,-4.25208 0.80039,-1.55076 2.6513,-2.20108 1.90093,-0.65032 5.35262,-0.65032 h 7.25354 v -3.85188 q 0,-1.35066 -0.55027,-2.051 -0.50024,-0.75037 -1.75085,-1.05052 -1.20059,-0.30014 -3.55174,-0.30014 -3.75183,0 -8.30406,0.60029 v -3.30161 q 4.95242,-0.45022 8.95438,-0.45022 4.20205,0 6.20303,0.65031 2.00098,0.6003 2.75135,2.15106 0.75036,1.55075 0.75036,4.80234 v 17.10837 h -4.35212 v -2.30113 q -0.55027,2.80137 -7.30357,2.80137 z m 0.75036,-2.95144 q 2.4512,0 4.15203,-0.35017 2.2511,-0.45022 2.2511,-2.10103 v -6.60323 h -6.9534 q -2.15105,0 -3.10151,0.35017 -0.95047,0.30015 -1.25061,1.20059 -0.30015,0.90044 -0.30015,2.90142 0,1.80088 0.35017,2.80137 0.35017,0.95046 1.25061,1.40068 0.90044,0.4002 2.70132,0.4002 z"
             style="font-style:normal;font-variant:normal;font-weight:normal;font-stretch:normal;font-size:50.02445602px;font-family:Play;-inkscape-font-specification:Play;letter-spacing:-1.79652095px;stroke-width:1.33994067"
             id="path825" />
          <path
             inkscape:connector-curvature="0"
             d="m 141.61726,140.8329 q -2.70132,0 -4.35213,-0.30015 -1.60078,-0.25012 -3.20157,-1.00048 -3.25159,-1.55076 -3.25159,-7.10348 v -27.11325 h 4.5022 v 7.25354 2.8514 q -0.05,1.30063 -0.05,2.90142 0.25012,-1.15057 2.10103,-1.95096 1.90093,-0.75036 5.50269,-0.75036 10.00489,0 10.00489,6.85335 v 9.95486 q 0,2.15105 -0.65032,3.75184 -0.60029,1.60078 -1.60078,2.50122 -0.90044,0.85042 -2.50122,1.35066 -1.55076,0.50024 -3.10152,0.65032 -1.40069,0.15007 -3.40166,0.15007 z m 0.10004,-2.95144 q 2.60128,0 3.95194,-0.35017 1.40068,-0.4002 2.00098,-1.40069 0.60029,-1.00049 0.60029,-3.05149 v -9.50465 q 0,-2.051 -0.60029,-3.05149 -0.6003,-1.05051 -2.00098,-1.35066 -1.35066,-0.35017 -4.00196,-0.35017 -2.4512,0 -3.80186,0.4002 -1.35066,0.40019 -1.95095,1.45071 -0.6003,1.00048 -0.6003,2.90141 v 9.50465 q 0,2.051 0.55027,3.05149 0.6003,1.00049 1.95096,1.40069 1.35066,0.35017 3.9019,0.35017 z"
             style="font-style:normal;font-variant:normal;font-weight:normal;font-stretch:normal;font-size:50.02445602px;font-family:Play;-inkscape-font-specification:Play;letter-spacing:-1.79652095px;stroke-width:1.33994067"
             id="path827" />
          <path
             inkscape:connector-curvature="0"
             d="m 168.19086,140.8329 q -3.20157,0 -4.80235,-0.25012 -1.60078,-0.2001 -3.20157,-0.95047 -1.6508,-0.75036 -2.40117,-2.40117 -0.75037,-1.70083 -0.75037,-4.55222 v -8.40411 q 0,-2.2511 0.55027,-3.95194 0.55027,-1.70083 1.45071,-2.65129 0.75037,-0.85042 2.2511,-1.30064 1.55076,-0.50024 3.15154,-0.65032 1.80088,-0.10004 3.75184,-0.10004 2.60127,0 3.90191,0.15007 1.35066,0.10005 2.85139,0.50024 1.55076,0.45022 2.40117,1.35066 0.85042,0.90044 1.45071,2.60128 0.55027,1.75085 0.55027,4.05198 v 8.40411 q 0,4.25207 -1.95095,6.20303 -0.80039,0.80039 -2.30113,1.25061 -1.50073,0.45022 -3.10151,0.60029 -1.90093,0.10005 -3.80186,0.10005 z m 0,-2.95144 q 2.10103,0 3.05149,-0.10005 0.95046,-0.10005 1.8509,-0.55027 0.90044,-0.4002 1.25062,-1.30064 0.40019,-0.95046 0.40019,-2.60127 v -9.80479 q 0,-2.2511 -0.55027,-3.25159 -0.55027,-1.05051 -1.90093,-1.35066 -1.30063,-0.35017 -4.102,-0.35017 -2.80137,0 -4.15203,0.35017 -1.30064,0.30015 -1.85091,1.35066 -0.55027,1.00049 -0.55027,3.25159 v 9.80479 q 0,1.65081 0.35018,2.60127 0.40019,0.90044 1.30063,1.30064 0.90044,0.45022 1.85091,0.55027 0.95046,0.10005 3.05149,0.10005 z"
             style="font-style:normal;font-variant:normal;font-weight:normal;font-stretch:normal;font-size:50.02445602px;font-family:Play;-inkscape-font-specification:Play;letter-spacing:-1.79652095px;stroke-width:1.33994067"
             id="path829" />
          <path
             inkscape:connector-curvature="0"
             d="m 184.57119,116.12082 h 4.25208 v 3.95193 q 0,-1.15056 1.00049,-2.15105 1.00049,-1.05051 2.55125,-1.65081 1.55075,-0.65031 3.05149,-0.65031 h 2.20107 v 3.85188 h -2.50122 q -3.20157,0 -4.65227,0.85041 -1.40069,0.8004 -1.40069,2.95145 v 17.05834 h -4.5022 z"
             style="font-style:normal;font-variant:normal;font-weight:normal;font-stretch:normal;font-size:50.02445602px;font-family:Play;-inkscape-font-specification:Play;letter-spacing:-1.79652095px;stroke-width:1.33994067"
             id="path831" />
        </g>
        <g
           aria-label="Corporation"
           style="font-style:normal;font-variant:normal;font-weight:normal;font-stretch:normal;font-size:28.64052391px;line-height:1.25;font-family:Play;-inkscape-font-specification:Play;text-align:start;letter-spacing:0px;word-spacing:0px;text-anchor:start;fill:#000000;fill-opacity:1;stroke:none;stroke-width:1.5343138"
           id="text821">
          <path
             inkscape:connector-curvature="0"
             d="m 64.565927,162.0592 q -7.818863,0 -7.818863,-5.04073 v -8.82128 q 0,-5.32714 7.818863,-5.32714 2.663568,0 5.098013,0.54417 v 2.06212 q -2.74949,-0.68737 -5.040732,-0.68737 -1.116981,0 -1.947556,0.1432 -0.830575,0.11456 -1.603869,0.42961 -1.661151,0.71601 -1.661151,2.80677 v 8.70672 q 0,3.20774 5.327138,3.20774 2.291242,0 5.040732,-0.68738 v 2.1194 q -2.434444,0.54417 -5.212575,0.54417 z"
             style="text-align:start;letter-spacing:-2.19406891px;text-anchor:start;stroke-width:1.5343138"
             id="path834" />
          <path
             inkscape:connector-curvature="0"
             d="m 76.991503,162.0592 q -1.832994,0 -2.749491,-0.1432 -0.916497,-0.11456 -1.832993,-0.54417 -0.945138,-0.42961 -1.374745,-1.37475 -0.429608,-0.97377 -0.429608,-2.60628 v -4.81161 q 0,-1.28883 0.315045,-2.2626 0.315046,-0.97378 0.830576,-1.51795 0.429608,-0.48689 1.288823,-0.74465 0.887856,-0.28641 1.804353,-0.37233 1.031059,-0.0573 2.14804,-0.0573 1.489307,0 2.23396,0.0859 0.773295,0.0573 1.63251,0.2864 0.887857,0.25777 1.374745,0.7733 0.486889,0.51553 0.830576,1.48931 0.315045,1.00241 0.315045,2.31988 v 4.81161 q 0,2.43444 -1.11698,3.55142 -0.458248,0.45825 -1.317464,0.71601 -0.859216,0.25777 -1.775713,0.34369 -1.08834,0.0573 -2.176679,0.0573 z m 0,-1.68979 q 1.202902,0 1.747072,-0.0573 0.544169,-0.0573 1.059699,-0.31505 0.515529,-0.22912 0.716013,-0.74465 0.229124,-0.54417 0.229124,-1.48931 v -5.61354 q 0,-1.28882 -0.315046,-1.86163 -0.315045,-0.60145 -1.088339,-0.7733 -0.744654,-0.20048 -2.348523,-0.20048 -1.60387,0 -2.377164,0.20048 -0.744654,0.17185 -1.059699,0.7733 -0.315046,0.57281 -0.315046,1.86163 v 5.61354 q 0,0.94514 0.200484,1.48931 0.229124,0.51553 0.744653,0.74465 0.51553,0.25777 1.0597,0.31505 0.54417,0.0573 1.747072,0.0573 z"
             style="text-align:start;letter-spacing:-2.19406891px;text-anchor:start;stroke-width:1.5343138"
             id="path836" />
          <path
             inkscape:connector-curvature="0"
             d="m 85.204237,147.91078 h 2.434444 v 2.2626 q 0,-0.65873 0.572811,-1.23154 0.57281,-0.60145 1.460666,-0.94514 0.887857,-0.37232 1.747072,-0.37232 h 1.260183 v 2.20532 h -1.432026 q -1.832993,0 -2.663568,0.48689 -0.801935,0.45825 -0.801935,1.68979 v 9.76642 h -2.577647 z"
             style="text-align:start;letter-spacing:-2.19406891px;text-anchor:start;stroke-width:1.5343138"
             id="path838" />
          <path
             inkscape:connector-curvature="0"
             d="m 93.079103,147.91078 h 2.549007 v 1.48931 h 0.02864 q 0.315046,-1.77571 4.72569,-1.77571 2.63493,0 3.98103,1.11698 1.3461,1.08834 1.3461,2.80677 v 5.69946 q 0,1.23155 -0.37232,2.14804 -0.34369,0.9165 -0.9165,1.43203 -0.51553,0.48689 -1.43203,0.77329 -0.88785,0.28641 -1.77571,0.37233 -0.80193,0.0859 -1.947554,0.0859 -1.260183,0 -2.319882,-0.2864 -1.031059,-0.31505 -1.288824,-0.88786 v 6.84509 h -2.577647 z m 6.243634,12.40135 q 1.489303,0 2.262603,-0.20048 0.80193,-0.22913 1.14562,-0.80194 0.34369,-0.57281 0.34369,-1.74707 v -5.09801 q 0,-1.28883 -0.34369,-1.91892 -0.34369,-0.63009 -1.14562,-0.83057 -0.7733,-0.22913 -2.291243,-0.22913 -1.517948,0 -2.262601,0.22913 -0.744654,0.20048 -1.0597,0.83057 -0.315046,0.60145 -0.315046,1.91892 v 5.09801 q 0,1.17426 0.315046,1.74707 0.343686,0.57281 1.116981,0.80194 0.773294,0.20048 2.23396,0.20048 z"
             style="text-align:start;letter-spacing:-2.19406891px;text-anchor:start;stroke-width:1.5343138"
             id="path841" />
          <path
             inkscape:connector-curvature="0"
             d="m 113.31414,162.0592 q -1.83299,0 -2.74949,-0.1432 -0.9165,-0.11456 -1.83299,-0.54417 -0.94514,-0.42961 -1.37475,-1.37475 -0.4296,-0.97377 -0.4296,-2.60628 v -4.81161 q 0,-1.28883 0.31504,-2.2626 0.31505,-0.97378 0.83058,-1.51795 0.4296,-0.48689 1.28882,-0.74465 0.88786,-0.28641 1.80435,-0.37233 1.03106,-0.0573 2.14804,-0.0573 1.48931,0 2.23396,0.0859 0.7733,0.0573 1.63251,0.2864 0.88786,0.25777 1.37475,0.7733 0.48689,0.51553 0.83057,1.48931 0.31505,1.00241 0.31505,2.31988 v 4.81161 q 0,2.43444 -1.11698,3.55142 -0.45825,0.45825 -1.31747,0.71601 -0.85921,0.25777 -1.77571,0.34369 -1.08834,0.0573 -2.17668,0.0573 z m 0,-1.68979 q 1.2029,0 1.74707,-0.0573 0.54417,-0.0573 1.0597,-0.31505 0.51553,-0.22912 0.71602,-0.74465 0.22912,-0.54417 0.22912,-1.48931 v -5.61354 q 0,-1.28882 -0.31505,-1.86163 -0.31504,-0.60145 -1.08834,-0.7733 -0.74465,-0.20048 -2.34852,-0.20048 -1.60387,0 -2.37716,0.20048 -0.74466,0.17185 -1.0597,0.7733 -0.31505,0.57281 -0.31505,1.86163 v 5.61354 q 0,0.94514 0.20049,1.48931 0.22912,0.51553 0.74465,0.74465 0.51553,0.25777 1.0597,0.31505 0.54417,0.0573 1.74707,0.0573 z"
             style="text-align:start;letter-spacing:-2.19406891px;text-anchor:start;stroke-width:1.5343138"
             id="path843" />
          <path
             inkscape:connector-curvature="0"
             d="m 121.52688,147.91078 h 2.43444 v 2.2626 q 0,-0.65873 0.57281,-1.23154 0.57281,-0.60145 1.46067,-0.94514 0.88785,-0.37232 1.74707,-0.37232 h 1.26018 v 2.20532 h -1.43202 q -1.833,0 -2.66357,0.48689 -0.80194,0.45825 -0.80194,1.68979 v 9.76642 h -2.57764 z"
             style="text-align:start;letter-spacing:-2.19406891px;text-anchor:start;stroke-width:1.5343138"
             id="path845" />
          <path
             inkscape:connector-curvature="0"
             d="m 133.66918,162.0592 q -1.9762,0 -3.06454,-0.37232 -1.0597,-0.37233 -1.54659,-1.31747 -0.45825,-0.94514 -0.45825,-2.72085 0,-1.57523 0.42961,-2.43444 0.45825,-0.88786 1.51795,-1.26019 1.08834,-0.37232 3.06454,-0.37232 h 4.15287 v -2.20532 q 0,-0.7733 -0.31504,-1.17427 -0.28641,-0.4296 -1.00242,-0.60145 -0.68737,-0.17184 -2.03348,-0.17184 -2.14804,0 -4.75433,0.34369 v -1.89028 q 2.83542,-0.25776 5.12666,-0.25776 2.4058,0 3.55142,0.37232 1.14562,0.34369 1.57523,1.23155 0.42961,0.88785 0.42961,2.74949 v 9.79506 h -2.49173 v -1.31747 q -0.31504,1.60387 -4.18151,1.60387 z m 0.4296,-1.68979 q 1.40339,0 2.37717,-0.20048 1.28882,-0.25777 1.28882,-1.2029 v -3.78055 h -3.98103 q -1.23154,0 -1.77571,0.20048 -0.54417,0.17184 -0.71602,0.68737 -0.17184,0.51553 -0.17184,1.66115 0,1.03106 0.20048,1.60387 0.20049,0.54417 0.71602,0.80194 0.51553,0.22912 1.54659,0.22912 z"
             style="text-align:start;letter-spacing:-2.19406891px;text-anchor:start;stroke-width:1.5343138"
             id="path847" />
          <path
             inkscape:connector-curvature="0"
             d="m 148.40479,162.0592 q -1.77571,0 -2.77813,-0.37232 -1.00242,-0.40097 -1.46067,-1.31747 -0.4296,-0.94514 -0.4296,-2.63493 v -8.13391 h -3.09318 v -1.68979 h 3.09318 v -4.29608 h 2.60628 v 4.29608 h 4.95481 v 1.68979 h -4.95481 v 8.27712 q 0,1.03105 0.22913,1.54658 0.25776,0.51553 0.85921,0.74466 0.63009,0.20048 1.80436,0.20048 0.37232,0 2.06211,-0.22912 v 1.68979 q -1.46066,0.22912 -2.89269,0.22912 z"
             style="text-align:start;letter-spacing:-2.19406891px;text-anchor:start;stroke-width:1.5343138"
             id="path849" />
          <path
             inkscape:connector-curvature="0"
             d="m 151.92003,142.89869 h 2.57765 v 2.69221 h -2.57765 z m 0,5.01209 h 2.57765 v 13.86202 h -2.57765 z"
             style="text-align:start;letter-spacing:-2.19406891px;text-anchor:start;stroke-width:1.5343138"
             id="path851" />
          <path
             inkscape:connector-curvature="0"
             d="m 162.64553,162.0592 q -1.83299,0 -2.74949,-0.1432 -0.9165,-0.11456 -1.833,-0.54417 -0.94513,-0.42961 -1.37474,-1.37475 -0.42961,-0.97377 -0.42961,-2.60628 v -4.81161 q 0,-1.28883 0.31505,-2.2626 0.31504,-0.97378 0.83057,-1.51795 0.42961,-0.48689 1.28883,-0.74465 0.88785,-0.28641 1.80435,-0.37233 1.03106,-0.0573 2.14804,-0.0573 1.48931,0 2.23396,0.0859 0.77329,0.0573 1.63251,0.2864 0.88786,0.25777 1.37474,0.7733 0.48689,0.51553 0.83058,1.48931 0.31505,1.00241 0.31505,2.31988 v 4.81161 q 0,2.43444 -1.11699,3.55142 -0.45824,0.45825 -1.31746,0.71601 -0.85921,0.25777 -1.77571,0.34369 -1.08834,0.0573 -2.17668,0.0573 z m 0,-1.68979 q 1.2029,0 1.74707,-0.0573 0.54417,-0.0573 1.0597,-0.31505 0.51553,-0.22912 0.71601,-0.74465 0.22913,-0.54417 0.22913,-1.48931 v -5.61354 q 0,-1.28882 -0.31505,-1.86163 -0.31504,-0.60145 -1.08834,-0.7733 -0.74465,-0.20048 -2.34852,-0.20048 -1.60387,0 -2.37716,0.20048 -0.74466,0.17185 -1.0597,0.7733 -0.31505,0.57281 -0.31505,1.86163 v 5.61354 q 0,0.94514 0.20048,1.48931 0.22913,0.51553 0.74466,0.74465 0.51553,0.25777 1.0597,0.31505 0.54417,0.0573 1.74707,0.0573 z"
             style="text-align:start;letter-spacing:-2.19406891px;text-anchor:start;stroke-width:1.5343138"
             id="path853" />
          <path
             inkscape:connector-curvature="0"
             d="m 170.85826,147.91078 h 2.57765 v 1.68979 q 0.40096,-1.97619 4.55384,-1.97619 2.66357,0 3.72327,0.97378 1.08834,0.94513 1.08834,3.00725 v 10.16739 h -2.57765 v -10.02419 q 0,-0.54417 -0.0859,-0.88785 -0.0859,-0.34369 -0.34369,-0.68738 -0.57281,-0.71601 -2.549,-0.71601 -1.51795,0 -2.34853,0.22913 -0.80193,0.20048 -1.14562,0.68737 -0.31504,0.48689 -0.31504,1.37474 v 10.02419 h -2.57765 z"
             style="text-align:start;letter-spacing:-2.19406891px;text-anchor:start;stroke-width:1.5343138"
             id="path855" />
        </g>
        <g
           transform="translate(0,9.0202187)"
           id="g912"
           style="stroke:#090909;stroke-opacity:1">
          <circle
             style="opacity:1;fill:#06a7f3;fill-opacity:1;stroke:#090909;stroke-width:2.11666656;stroke-linecap:round;stroke-linejoin:round;stroke-miterlimit:4;stroke-dasharray:none;stroke-dashoffset:0;stroke-opacity:1;paint-order:fill markers stroke"
             id="path840"
             cx="31.671438"
             cy="114.054"
             r="19.243404" />
          <path
             inkscape:connector-curvature="0"
             style="opacity:1;fill:#000000;fill-opacity:0.18316836;stroke:#090909;stroke-width:7.99999952;stroke-linecap:round;stroke-linejoin:round;stroke-miterlimit:4;stroke-dasharray:none;stroke-dashoffset:0;stroke-opacity:1;paint-order:fill markers stroke"
             d="m 89.703125,378.33984 a 72.730977,72.730977 0 0 0 -24.041016,4.17383 72.730977,72.730977 0 0 0 -18.689453,48.55664 72.730977,72.730977 0 0 0 72.730464,72.73047 72.730977,72.730977 0 0 0 24.04102,-4.17383 72.730977,72.730977 0 0 0 18.68945,-48.55664 72.730977,72.730977 0 0 0 -72.730465,-72.73047 z"
             transform="scale(0.26458333)"
             id="path840-4" />
          <path
             inkscape:connector-curvature="0"
             style="opacity:1;fill:#008132;fill-opacity:0.3960396;stroke:#090909;stroke-width:7.99999952;stroke-linecap:round;stroke-linejoin:round;stroke-miterlimit:4;stroke-dasharray:none;stroke-dashoffset:0;stroke-opacity:1;paint-order:fill markers stroke"
             d="m 134.85547,398.74609 a 72.730977,72.730977 0 0 0 -72.73047,72.73047 72.730977,72.730977 0 0 0 0.146484,4.16406 72.730977,72.730977 0 0 0 57.431636,28.16016 72.730977,72.730977 0 0 0 72.73047,-72.73047 72.730977,72.730977 0 0 0 -0.14648,-4.16406 72.730977,72.730977 0 0 0 -57.43164,-28.16016 z"
             transform="scale(0.26458333)"
             id="path840-9" />
        </g>
      </g>
    </g>
  </g>
</svg>
