<?xml version="1.0" encoding="UTF-8" standalone="no"?>
<svg
   xmlns:dc="http://purl.org/dc/elements/1.1/"
   xmlns:cc="http://creativecommons.org/ns#"
   xmlns:rdf="http://www.w3.org/1999/02/22-rdf-syntax-ns#"
   xmlns:svg="http://www.w3.org/2000/svg"
   xmlns="http://www.w3.org/2000/svg"
   width="64"
   height="64"
   viewBox="0 0 16.933333 16.933334"
   version="1.1"
   id="svg2317">
  <defs
     id="defs2311" />
  <metadata
     id="metadata2314">
    <rdf:RDF>
      <cc:Work
         rdf:about="">
        <dc:format>image/svg+xml</dc:format>
        <dc:type
           rdf:resource="http://purl.org/dc/dcmitype/StillImage" />
        <dc:title></dc:title>
      </cc:Work>
    </rdf:RDF>
  </metadata>
  <g
     id="layer1"
     transform="translate(0,-280.06665)">
    <g
       id="g2288"
       transform="matrix(0.26599999,0,0,0.26599999,3.2634041,277.58828)"
       style="stroke-width:1.31578958">
      <path
         id="path2131"
         d="m 19.561139,21.299247 c -0.215631,0 -0.431415,0.125317 -0.862676,0.374174 L 3.1730172,30.631914 2.3103414,31.130813 V 32.1259 50.042885 c 0,0.99544 1.528e-4,0.996267 0.8626758,1.493987 l 15.5254458,8.958492 0.862676,0.498899 0.862675,-0.498899 15.525446,-8.958492 c 0.862522,-0.49772 0.862676,-0.498548 0.862676,-1.493987 V 32.1259 31.130813 L 35.94926,30.631914 20.423814,21.673421 c -0.431261,-0.248859 -0.647045,-0.374174 -0.862675,-0.374174 z"
         style="fill:#515151;fill-opacity:1;stroke:#000000;stroke-width:0.34868422;stroke-linecap:round;stroke-linejoin:round;stroke-miterlimit:4;stroke-dasharray:none;stroke-opacity:1" />
      <path
         id="text5140"
         d="m 19.591556,29.491164 c -2.114437,0 -3.894299,0.581068 -5.240038,1.764017 a 0.57681261,0.57681261 0 0 0 -0.0016,0.0014 c -1.338419,1.186079 -2.131199,2.89587 -2.391157,5.027523 a 0.57681261,0.57681261 0 0 0 0.50528,0.642001 l 2.74931,0.326946 a 0.57681261,0.57681261 0 0 0 0.637543,-0.481501 c 0.22529,-1.436229 0.689773,-2.417801 1.325613,-3.012353 0.658245,-0.615502 1.440533,-0.91396 2.45952,-0.91396 1.049739,0 1.871765,0.328726 2.58435,1.023933 a 0.57681261,0.57681261 0 0 0 0.003,0.0014 c 0.720462,0.694106 1.041765,1.429684 1.041765,2.319825 0,0.481819 -0.111547,0.902968 -0.340319,1.303322 -0.209067,0.365866 -0.7823,1.01218 -1.692685,1.816031 -0.931211,0.821067 -1.580265,1.444966 -1.978017,1.920059 a 0.57681261,0.57681261 0 0 0 -0.0016,0.0016 c -0.517229,0.622786 -0.904896,1.256092 -1.150254,1.902227 0,0 -0.0016,0.0016 -0.0016,0.0016 -0.328656,0.845372 -0.482987,1.820326 -0.482987,2.923188 0,0.189013 0.0048,0.459514 0.01486,0.818848 a 0.57681261,0.57681261 0 0 0 0.576612,0.560265 h 2.570979 a 0.57681261,0.57681261 0 0 0 0.576612,-0.566209 c 0.01942,-1.048455 0.101383,-1.801235 0.203597,-2.178644 0.112228,-0.4144 0.280316,-0.766727 0.503793,-1.072974 0.205382,-0.281449 0.764434,-0.854717 1.624324,-1.616891 1.323216,-1.171704 2.232964,-2.171206 2.737421,-3.079229 0.492847,-0.887203 0.74157,-1.870067 0.74157,-2.911298 0,-1.792875 -0.721063,-3.381403 -2.089475,-4.632217 -1.386847,-1.267665 -3.252016,-1.888851 -5.486734,-1.888851 z M 18.045997,48.60259 a 0.57681261,0.57681261 0 0 0 -0.576612,0.576612 v 3.046535 a 0.57681261,0.57681261 0 0 0 0.576612,0.57661 h 3.046535 a 0.57681261,0.57681261 0 0 0 0.576612,-0.57661 V 49.179202 A 0.57681261,0.57681261 0 0 0 21.092532,48.60259 Z"
         style="font-style:normal;font-variant:normal;font-weight:normal;font-stretch:normal;font-size:39.78696823px;line-height:1.25;font-family:'Segoe UI';-inkscape-font-specification:'Segoe UI';letter-spacing:0px;word-spacing:0px;fill:#ffffff;fill-opacity:1;stroke:none;stroke-width:1.50792599;stroke-linejoin:round;stroke-miterlimit:4;stroke-dasharray:none;stroke-opacity:1" />
    </g>
  </g>
</svg>
