<?xml version="1.0" encoding="UTF-8" standalone="no"?>
<svg
   xmlns:dc="http://purl.org/dc/elements/1.1/"
   xmlns:cc="http://creativecommons.org/ns#"
   xmlns:rdf="http://www.w3.org/1999/02/22-rdf-syntax-ns#"
   xmlns:svg="http://www.w3.org/2000/svg"
   xmlns="http://www.w3.org/2000/svg"
   id="svg4"
   xml:space="preserve"
   enable-background="new 0 0 76.00 76.00"
   viewBox="0 0 76.00 76.00"
   height="76"
   width="76"
   version="1.1"><metadata
   id="metadata10"><rdf:RDF><cc:Work
       rdf:about=""><dc:format>image/svg+xml</dc:format><dc:type
         rdf:resource="http://purl.org/dc/dcmitype/StillImage" /><dc:title></dc:title></cc:Work></rdf:RDF></metadata><defs
   id="defs8" />
	<path
   style="fill:#e800dc;fill-opacity:1;stroke-width:0.34764597;stroke-linejoin:round"
   id="path2"
   d="m 38.000087,0.845339 c -7.599888,0 -13.761044,6.1609815 -13.761044,13.76087 0,7.600062 6.161156,13.761043 13.761044,13.761043 7.600062,0 13.761043,-6.160981 13.761043,-13.761043 0,-7.5998885 -6.161155,-13.76087 -13.761043,-13.76087 z M 24.239043,47.632574 23.18585,71.451015 c 4.893638,2.372857 10.386618,3.703646 16.190393,3.703646 4.761186,0 9.313262,-0.895536 13.496833,-2.52756 L 51.76113,47.632574 c 1.834702,0.917438 5.504453,8.256591 5.504453,8.256591 0,0 1.834701,2.752313 2.752139,13.761044 L 68.274139,66.89807 65.522,53.137026 c 0,0 -5.504278,-19.265322 -16.513356,-19.265148 H 26.991183 C 15.982452,33.871704 10.478174,53.137026 10.478174,53.137026 l -2.7523132,13.76087 8.2565912,2.752139 c 0.917438,-11.00873 2.752313,-13.761043 2.752313,-13.761043 0,0 3.669577,-7.33898 5.504278,-8.256418 z" />
</svg>